<?xml version="1.0" encoding="utf-8"?>
<!-- Generator: Adobe Illustrator 16.0.0, SVG Export Plug-In . SVG Version: 6.00 Build 0)  -->
<!DOCTYPE svg PUBLIC "-//W3C//DTD SVG 1.1//EN" "http://www.w3.org/Graphics/SVG/1.1/DTD/svg11.dtd">
<svg version="1.1" id="Layer_1" xmlns="http://www.w3.org/2000/svg" xmlns:xlink="http://www.w3.org/1999/xlink" x="0px" y="0px"
	 width="256px" height="256px" viewBox="0 0 256 256" enable-background="new 0 0 256 256" xml:space="preserve">
<rect fill="#A05C94" width="256" height="256"/>
<polygon opacity="0.7" fill="#73467A" points="0,189.089 7,181.68 221,182 240.043,164.667 16.001,164.667 16,15 0,31 "/>
<rect x="16" y="15" fill="#FFFFFF" width="224" height="130.001"/>
<rect x="129.001" y="146.667" fill="#FFFFFF" width="111.042" height="18"/>
<rect x="16.001" y="146.667" fill="#FFFFFF" width="111.042" height="18"/>
<path fill-rule="evenodd" clip-rule="evenodd" fill="#A05C94" d="M73.734,162.09l0.009-5.165l5.137,0.03
	c0.213,0,0.385-0.172,0.385-0.385l0.004-1.473c0-0.102-0.041-0.199-0.114-0.271c-0.072-0.072-0.171-0.112-0.271-0.113l-5.117-0.027
	l-0.033-5.12c0-0.103-0.041-0.198-0.114-0.271c-0.072-0.073-0.171-0.113-0.271-0.115l-1.472,0.006c-0.212,0-0.385,0.173-0.385,0.385
	l0.031,5.138l-5.161,0.009c-0.103,0-0.201,0.039-0.273,0.111c-0.073,0.072-0.114,0.169-0.111,0.273l-0.004,1.473
	c0,0.106,0.041,0.203,0.112,0.273c0.068,0.069,0.165,0.114,0.272,0.112l5.144-0.011l-0.007,5.144c0,0.106,0.042,0.202,0.112,0.272
	c0.069,0.07,0.165,0.115,0.273,0.113l1.474-0.004c0.102,0,0.2-0.039,0.272-0.111C73.695,162.29,73.734,162.191,73.734,162.09z"/>
<polygon fill-rule="evenodd" clip-rule="evenodd" fill="#A05C94" points="188.423,155.668 182.045,162.045 182.045,149.289 "/>
<g>
	<rect x="16.001" y="172.174" fill="#FFFFFF" width="166.333" height="3"/>
</g>
<polygon opacity="0.7" fill="#73467A" points="0,256 68.993,256.009 87.004,238.038 15.991,238.038 16,182 0,198 "/>
<polygon opacity="0.7" fill="#73467A" points="145.327,256.009 163.338,238.038 92.494,238.038 92.494,182.038 15.854,238.125 
	0,253.906 0,256 "/>
<polygon opacity="0.7" fill="#73467A" points="221.827,256.009 239.838,238.038 168.994,238.038 168.994,182.038 92.319,238.146 
	74.417,256 "/>
<polygon fill="#73467A" points="0,198 16,182 175.75,182 182.25,175.183 15.99,175.183 15.99,172.188 0,189.089 "/>
<polygon fill="#E6E6E6" points="63.511,47.566 15.875,95.125 16,145.001 157.438,145.001 193.438,109 "/>
<g>
	<rect x="15.991" y="182.038" fill="#FFFFFF" width="71.013" height="56"/>
	<rect x="92.494" y="182.038" fill="#FFFFFF" width="71.012" height="56"/>
	<rect x="168.997" y="182.038" fill="#FFFFFF" width="71.012" height="56"/>
</g>
<g>
	<g>
		<path fill="#9B5C8F" d="M49.666,219.847H33.685c-2.691,0-4.881-2.19-4.881-4.882v-13.079c-0.011-1.291,0.49-2.515,1.409-3.441
			c0.922-0.93,2.149-1.441,3.456-1.441h34.265c2.692,0,4.882,2.189,4.882,4.883v13.079c0,2.691-2.19,4.882-4.882,4.882H57.072
			l2.18,5.337L49.666,219.847z"/>
	</g>
	<path fill="#FFFFFF" d="M31.862,201.523c0.24-0.327,0.602-0.499,1.083-0.533c0.878-0.068,1.376,0.344,1.498,1.239
		c0.533,3.597,1.119,6.644,1.738,9.138l3.768-7.176c0.345-0.655,0.775-0.999,1.292-1.032c0.757-0.053,1.221,0.43,1.411,1.445
		c0.43,2.289,0.981,4.233,1.635,5.886c0.447-4.371,1.204-7.521,2.271-9.466c0.259-0.482,0.638-0.723,1.136-0.757
		c0.396-0.034,0.758,0.085,1.084,0.343c0.327,0.259,0.499,0.586,0.534,0.982c0.016,0.309-0.035,0.567-0.173,0.826
		c-0.671,1.238-1.221,3.321-1.669,6.212c-0.431,2.806-0.585,4.992-0.482,6.558c0.035,0.431-0.034,0.809-0.207,1.136
		c-0.206,0.379-0.515,0.586-0.912,0.619c-0.447,0.035-0.912-0.173-1.359-0.637c-1.601-1.636-2.875-4.079-3.804-7.332
		c-1.119,2.204-1.944,3.855-2.478,4.957c-1.016,1.945-1.876,2.943-2.6,2.994c-0.464,0.035-0.86-0.36-1.204-1.187
		c-0.877-2.255-1.824-6.608-2.839-13.063C31.535,202.229,31.62,201.833,31.862,201.523z"/>
	<path fill="#FFFFFF" d="M68.862,204.226c-0.619-1.084-1.531-1.737-2.753-1.996c-0.328-0.069-0.636-0.104-0.929-0.104
		c-1.652,0-2.994,0.86-4.044,2.581c-0.896,1.464-1.343,3.081-1.343,4.854c0,1.324,0.275,2.46,0.826,3.406
		c0.62,1.085,1.533,1.738,2.754,1.997c0.327,0.068,0.637,0.104,0.93,0.104c1.669,0,3.011-0.861,4.044-2.582
		c0.895-1.479,1.343-3.098,1.343-4.871C69.689,206.273,69.414,205.155,68.862,204.226L68.862,204.226z M66.694,208.993
		c-0.241,1.136-0.671,1.979-1.308,2.547c-0.499,0.447-0.964,0.637-1.394,0.551c-0.414-0.087-0.758-0.447-1.016-1.119
		c-0.206-0.533-0.309-1.066-0.309-1.566c0-0.431,0.034-0.86,0.12-1.256c0.154-0.705,0.447-1.395,0.912-2.049
		c0.568-0.843,1.171-1.187,1.79-1.066c0.414,0.086,0.757,0.448,1.016,1.119c0.206,0.533,0.31,1.067,0.31,1.565
		C66.815,208.167,66.764,208.597,66.694,208.993L66.694,208.993z"/>
	<path fill="#FFFFFF" d="M58.072,204.226c-0.62-1.084-1.549-1.737-2.754-1.996c-0.327-0.069-0.637-0.104-0.93-0.104
		c-1.652,0-2.995,0.86-4.044,2.581c-0.895,1.464-1.342,3.081-1.342,4.854c0,1.324,0.275,2.46,0.827,3.406
		c0.618,1.085,1.531,1.738,2.752,1.997c0.327,0.068,0.636,0.104,0.929,0.104c1.669,0,3.012-0.861,4.044-2.582
		c0.895-1.479,1.343-3.098,1.343-4.871C58.898,206.273,58.623,205.155,58.072,204.226L58.072,204.226z M55.904,208.993
		c-0.241,1.136-0.671,1.979-1.308,2.547c-0.499,0.447-0.964,0.637-1.395,0.551c-0.413-0.087-0.757-0.447-1.016-1.119
		c-0.206-0.533-0.31-1.066-0.31-1.566c0-0.431,0.036-0.86,0.121-1.256c0.155-0.705,0.447-1.395,0.912-2.049
		c0.567-0.843,1.17-1.187,1.79-1.066c0.413,0.086,0.758,0.448,1.015,1.119c0.207,0.533,0.31,1.067,0.31,1.565
		C56.023,208.167,55.989,208.597,55.904,208.993L55.904,208.993z"/>
</g>
<path fill-rule="evenodd" clip-rule="evenodd" fill="#A05C94" d="M193.385,227.457c0,0,6.747,1.549,13.128,1.549
	c0,0,7.749,0.182,13.128-1.457l-4.498-23.493l8.965,4.462c0,0,0.75,0.66,1.368-0.045c0.347-0.416,3.034-4.335,4.189-6.249
	c0.545-0.92-0.042-0.99-0.042-0.99l-9.892-5.827c0,0-1.185-1.457-4.467-1.457h-2.826c0,0,0.092,5.873-5.926,5.873
	c0,0-5.926-0.364-5.835-5.873h-2.826c0,0-3.373,0.272-4.558,1.457l-9.907,5.782c0,0-0.409,0.5,0.046,1.366l4.208,6.009
	c0,0,0.729,0.592,1.505-0.091l8.266-4.325L193.385,227.457z"/>
<g>
	<g>
		<path fill="#9B5C8F" d="M124.42,114.577H74.385c-8.428,0-15.285-6.857-15.285-15.286V58.338
			c-0.033-4.038,1.533-7.873,4.411-10.772c2.887-2.91,6.729-4.513,10.819-4.513h107.285c8.429,0,15.286,6.856,15.286,15.285v40.952
			c0,8.429-6.857,15.286-15.286,15.286h-34.007l6.826,16.71L124.42,114.577z"/>
	</g>
	<path fill="#FFFFFF" d="M68.674,57.206c0.754-1.023,1.885-1.562,3.395-1.67c2.748-0.215,4.309,1.077,4.688,3.881
		c1.668,11.262,3.502,20.799,5.442,28.611l11.799-22.47c1.079-2.048,2.427-3.125,4.043-3.232c2.371-0.162,3.824,1.347,4.418,4.527
		c1.346,7.165,3.072,13.255,5.12,18.428c1.399-13.686,3.771-23.55,7.11-29.637c0.811-1.51,1.996-2.265,3.558-2.37
		c1.239-0.109,2.372,0.268,3.395,1.075c1.024,0.811,1.563,1.833,1.671,3.075c0.053,0.967-0.108,1.775-0.54,2.586
		c-2.101,3.877-3.823,10.398-5.226,19.45c-1.348,8.782-1.834,15.628-1.51,20.53c0.107,1.348-0.106,2.533-0.646,3.557
		c-0.646,1.186-1.613,1.833-2.855,1.939c-1.4,0.108-2.855-0.54-4.256-1.995c-5.012-5.118-9-12.771-11.91-22.954
		c-3.502,6.899-6.087,12.069-7.758,15.518c-3.181,6.092-5.875,9.218-8.139,9.378c-1.455,0.108-2.692-1.131-3.771-3.716
		c-2.747-7.06-5.711-20.693-8.889-40.901C67.65,59.417,67.918,58.176,68.674,57.206z"/>
	<path fill="#FFFFFF" d="M184.524,65.667c-1.938-3.395-4.795-5.441-8.621-6.25c-1.024-0.217-1.992-0.325-2.909-0.325
		c-5.174,0-9.375,2.695-12.662,8.082c-2.804,4.583-4.203,9.647-4.203,15.198c0,4.148,0.861,7.704,2.584,10.668
		c1.941,3.396,4.8,5.443,8.623,6.251c1.024,0.215,1.994,0.324,2.911,0.324c5.226,0,9.429-2.695,12.662-8.083
		c2.801-4.632,4.204-9.699,4.204-15.251C187.113,72.079,186.252,68.576,184.524,65.667L184.524,65.667z M177.737,80.593
		c-0.755,3.557-2.103,6.196-4.097,7.974c-1.562,1.401-3.018,1.995-4.365,1.726c-1.293-0.271-2.372-1.4-3.179-3.503
		c-0.646-1.671-0.968-3.341-0.968-4.904c0-1.348,0.106-2.693,0.376-3.933c0.483-2.209,1.398-4.365,2.855-6.415
		c1.778-2.639,3.665-3.715,5.604-3.338c1.294,0.268,2.371,1.401,3.18,3.502c0.646,1.67,0.971,3.342,0.971,4.903
		C178.115,78.005,177.953,79.352,177.737,80.593L177.737,80.593z"/>
	<path fill="#FFFFFF" d="M150.741,65.667c-1.941-3.395-4.85-5.441-8.623-6.25c-1.022-0.217-1.994-0.325-2.911-0.325
		c-5.172,0-9.375,2.695-12.661,8.082c-2.802,4.583-4.203,9.647-4.203,15.198c0,4.148,0.861,7.704,2.589,10.668
		c1.936,3.396,4.794,5.443,8.619,6.251c1.024,0.215,1.992,0.324,2.91,0.324c5.225,0,9.431-2.695,12.661-8.083
		c2.803-4.632,4.204-9.699,4.204-15.251C153.326,72.079,152.465,68.576,150.741,65.667L150.741,65.667z M143.951,80.593
		c-0.755,3.557-2.103,6.196-4.095,7.974c-1.562,1.401-3.02,1.995-4.367,1.726c-1.294-0.271-2.37-1.4-3.18-3.503
		c-0.646-1.671-0.97-3.341-0.97-4.904c0-1.348,0.11-2.693,0.378-3.933c0.485-2.209,1.401-4.365,2.857-6.415
		c1.777-2.639,3.663-3.715,5.604-3.338c1.292,0.268,2.372,1.401,3.178,3.502c0.646,1.67,0.969,3.342,0.969,4.903
		C144.326,78.005,144.219,79.352,143.951,80.593L143.951,80.593z"/>
</g>
<path fill-rule="evenodd" clip-rule="evenodd" fill="#A05C94" d="M151.38,208.222c0,11.098-11.577,10.295-11.577,10.295
	c-7.544,0-10.396-8.275-10.396-8.275s-0.197-1.125-1.476-1.125c-1.279,0-1.663,1.213-1.663,1.213
	c-0.933,9.37-11.635,8.06-11.635,8.06c-10.485,0-10.043-9.777-10.043-9.777c-1.918-0.897-1.849-4.36-1.849-4.36
	c0-3.078,4.22-3.206,4.22-3.206c4.306-0.296,13.788,0.723,17.292,3.172c1.534,0.77,2.36,1.653,3.831,1.653s3.905-1.619,3.905-1.619
	c2.587-3.23,17.02-3.177,18.618-3.177c1.598,0,2.493,0.32,2.493,2.949C153.101,206.653,151.38,208.222,151.38,208.222z
	 M106.582,204.304h-1.576c-0.436,0-0.788,0.354-0.788,0.79c0,0.437,0.353,0.79,0.788,0.79h1.576c0.435,0,0.788-0.354,0.788-0.79
	C107.37,204.658,107.017,204.304,106.582,204.304z M150.693,204.304h-1.575c-0.435,0-0.787,0.354-0.787,0.79
	c0,0.437,0.353,0.79,0.787,0.79h1.575c0.436,0,0.788-0.354,0.788-0.79C151.481,204.658,151.129,204.304,150.693,204.304z"/>
</svg>
