<?xml version="1.0" standalone="no"?>
<!DOCTYPE svg PUBLIC "-//W3C//DTD SVG 1.1//EN" "http://www.w3.org/Graphics/SVG/1.1/DTD/svg11.dtd" >
<svg xmlns="http://www.w3.org/2000/svg">
<metadata>
This is a custom SVG webfont generated by Font Squirrel.
Copyright   :  2006 The Monotype Corporation All Rights Reserved
Designer    : Geoffrey Lee
Foundry     : The Monotype Corporation
</metadata>
<defs>
<font id="ImpactRegular" horiz-adv-x="1451" >
<font-face units-per-em="2048" ascent="1638" descent="-410" />
<missing-glyph horiz-adv-x="361" />
<glyph horiz-adv-x="0" />
<glyph horiz-adv-x="361" />
<glyph unicode=" "  horiz-adv-x="361" />
<glyph unicode="&#x09;" horiz-adv-x="361" />
<glyph unicode="&#xa0;" horiz-adv-x="361" />
<glyph unicode="!" horiz-adv-x="553" d="M72 1619h444l-66 -1219h-312zM105 0v324h378v-324h-378z" />
<glyph unicode="&#x22;" horiz-adv-x="757" d="M36 1371v248h306v-248l-46 -273h-207zM415 1371v248h306v-248l-47 -273h-206z" />
<glyph unicode="#" horiz-adv-x="1283" d="M36 380v189h209l63 302h-272v190h308l84 383h189l-84 -383h355l82 383h189l-82 -383h170v-190h-206l-63 -302h269v-189h-305l-82 -380h-190l83 380h-359l-78 -380h-191l81 380h-170zM434 570h356l62 301h-355z" />
<glyph unicode="$" horiz-adv-x="1121" d="M54 1218q0 181 102.5 284t307.5 127v129h186v-129q187 -24 280 -125.5t93 -280.5q0 -25 -4 -76h-404v67q0 107 -14 140t-60 33q-37 0 -55.5 -28.5t-18.5 -85.5q0 -95 38 -133q37 -38 218 -148q154 -93 210 -142.5t94.5 -140t38.5 -225.5q0 -216 -104 -339t-312 -152v-152 h-186v157q-162 16 -283 124.5t-121 378.5v79h404v-99q0 -163 12.5 -202.5t60.5 -39.5q41 0 61 27.5t20 81.5q0 136 -19 194.5t-130 127.5q-185 116 -251.5 170.5t-115 153.5t-48.5 224z" />
<glyph unicode="%" horiz-adv-x="1419" d="M36 1052v291q0 120 24.5 177.5t94.5 93.5t173 36q114 0 185 -39.5t95 -95.5t24 -172v-278q0 -109 -20.5 -163.5t-88 -95t-178.5 -40.5q-128 0 -195 38.5t-90.5 92.5t-23.5 155zM291 1006q0 -70 7 -84t37 -14q26 0 33.5 16t7.5 75v415q0 64 -6.5 79t-35.5 15 q-27 0 -35 -16t-8 -78v-408zM316 -31l635 1681h152l-633 -1681h-154zM787 269v292q0 119 24.5 176.5t94.5 94t173 36.5q115 0 186 -40t94.5 -96t23.5 -171v-279q0 -108 -20.5 -163t-88 -95.5t-178.5 -40.5q-127 0 -194.5 39t-91 93t-23.5 154zM1043 223q0 -69 7 -83t36 -14 q27 0 34 15.5t7 75.5v414q0 64 -6.5 79.5t-35.5 15.5q-27 0 -34.5 -16t-7.5 -79v-408z" />
<glyph unicode="&#x26;" horiz-adv-x="1180" d="M36 365q0 132 56 207t168 122q-160 115 -160 311q0 169 114 272t314 103q180 0 283.5 -101t103.5 -257q0 -164 -126 -291l143 -258l220 142v-273l-114 -72l142 -270h-373l-49 90q-188 -124 -356 -124q-176 0 -271 117t-95 282zM414 344q0 -57 23.5 -85.5t69.5 -28.5 q49 0 113 43l-131 218q-75 -68 -75 -147zM454 1073q0 -94 75 -174q68 89 68 170q0 35 -20 64t-56 29q-33 0 -50 -22t-17 -67z" />
<glyph unicode="'" horiz-adv-x="379" d="M36 1371v248h306v-248l-46 -273h-207z" />
<glyph unicode="(" horiz-adv-x="642" d="M84 396v827q0 204 26 268t111 96t257 32h127v-211q-83 0 -107.5 -7t-36 -32.5t-11.5 -144.5v-829q0 -111 9 -138.5t33.5 -36.5t112.5 -9v-211h-127q-176 0 -258.5 32.5t-109 95.5t-26.5 268z" />
<glyph unicode=")" horiz-adv-x="642" d="M36 0v211q89 0 113 9t33.5 36.5t9.5 138.5v829q0 119 -12 144.5t-36.5 32.5t-107.5 7v211h127q172 0 257 -32t111 -96t26 -268v-827q0 -205 -26 -268t-109 -95.5t-259 -32.5h-127z" />
<glyph unicode="*" horiz-adv-x="575" d="M30 1391l43 118l153 -51v161h126v-161l148 51l45 -118l-148 -62l93 -132l-100 -74l-101 133l-99 -133l-105 74l94 137z" />
<glyph unicode="+" horiz-adv-x="1092" d="M64 686v244h359v360h244v-360h361v-244h-361v-358h-244v358h-359z" />
<glyph unicode="," horiz-adv-x="344" d="M36 0v317h271v-145q0 -114 -27 -187t-93.5 -124t-150.5 -68v116q60 34 68 91h-68z" />
<glyph unicode="-" horiz-adv-x="603" d="M36 524v279h531v-279h-531z" />
<glyph unicode="." horiz-adv-x="378" d="M36 0v330h305v-330h-305z" />
<glyph unicode="/" horiz-adv-x="810" d="M12 -31l483 1681h303l-480 -1681h-306z" />
<glyph unicode="0" horiz-adv-x="1098" d="M72 506v565q0 223 38.5 334t153 178t277.5 67q133 0 238 -46.5t157 -113.5t70.5 -151t18.5 -268v-540q0 -184 -20 -268t-83 -157t-152 -105t-199 -32q-145 0 -241 33.5t-153 104.5t-81 149.5t-24 249.5zM476 417q0 -141 13.5 -170t58.5 -29t59 34t14 153v802 q0 129 -12.5 161.5t-58.5 32.5q-45 0 -59.5 -34.5t-14.5 -159.5v-790z" />
<glyph unicode="1" horiz-adv-x="780" d="M12 1171v189q293 63 445 259h238v-1619h-404v868q0 188 -9 226t-49.5 57.5t-180.5 19.5h-40z" />
<glyph unicode="2" horiz-adv-x="1028" d="M54 0v231q395 646 469.5 799.5t74.5 239.5q0 66 -22.5 98.5t-68.5 32.5t-68.5 -36t-22.5 -143v-154h-362v59q0 136 14 214.5t69 154.5t143 115t211 39q241 0 364.5 -119.5t123.5 -302.5q0 -139 -69.5 -294t-409.5 -658h443v-276h-889z" />
<glyph unicode="3" horiz-adv-x="1086" d="M60 515v128h404v-263q0 -105 12.5 -133.5t55.5 -28.5q47 0 62 36t15 188v112q0 93 -21 136t-62 56.5t-159 15.5v235q144 0 178 11t49 48t15 116v90q0 85 -17.5 112t-54.5 27q-42 0 -57.5 -28.5t-15.5 -121.5v-133h-404v138q0 232 106 313.5t337 81.5q289 0 392 -113 t103 -314q0 -136 -37 -196.5t-130 -110.5q92 -31 137 -101.5t45 -330.5q0 -193 -44 -299.5t-152 -162t-277 -55.5q-192 0 -301.5 64.5t-144 158t-34.5 324.5z" />
<glyph unicode="4" horiz-adv-x="1023" d="M12 285v276l349 1058h535v-1058h115v-276h-115v-285h-404v285h-480zM314 561h178v689z" />
<glyph unicode="5" horiz-adv-x="1099" d="M66 520v88h404v-101q0 -157 11 -223t76 -66q30 0 48.5 19t20 41t3.5 191v321q0 91 -19 124t-63 33q-28 0 -47 -17t-24.5 -36.5t-5.5 -90.5h-400l17 816h867v-259h-501v-275q94 111 242 111q167 0 252.5 -93.5t85.5 -359.5v-231q0 -172 -16.5 -252.5t-70.5 -149 t-150.5 -105t-235.5 -36.5q-156 0 -275 54.5t-169 162.5t-50 334z" />
<glyph unicode="6" horiz-adv-x="1109" d="M72 682v224q0 289 8.5 386.5t69.5 184.5t166.5 130.5t243.5 43.5q170 0 279 -55t156 -155t47 -252h-404q0 113 -2.5 142.5t-24 49.5t-58.5 20q-31 0 -51 -19t-23 -49t-3 -121v-258q31 65 91 97.5t148 32.5q111 0 196 -60t108 -144t23 -227v-129q0 -170 -13 -253 t-69.5 -153.5t-155 -109.5t-229.5 -39q-163 0 -267 45t-160.5 129.5t-66 177.5t-9.5 361zM476 391q0 -107 18.5 -140t61.5 -33q26 0 54 25.5t28 137.5v303q0 86 -19 118t-62 32q-42 0 -61.5 -30.5t-19.5 -119.5v-293z" />
<glyph unicode="7" horiz-adv-x="802" d="M12 1328v291h772v-353l-258 -1266h-402l287 1328h-399z" />
<glyph unicode="8" horiz-adv-x="1095" d="M66 490q0 147 22.5 255t141.5 173q-75 36 -112.5 114.5t-37.5 199.5q0 209 116 313.5t347 104.5q267 0 369 -111t102 -317q0 -131 -33.5 -189t-137.5 -115q89 -36 137 -107.5t48 -340.5q0 -196 -38 -289t-148 -152.5t-295 -59.5q-180 0 -285 57t-150.5 151t-45.5 313z M470 383q0 -105 19.5 -135t61.5 -30q43 0 58 30.5t15 137.5v207q0 93 -19 123.5t-60 30.5q-40 0 -57.5 -29.5t-17.5 -124.5v-210zM478 1143q0 -73 16 -101t54 -28q40 0 54 27.5t14 113.5v111q0 82 -14.5 108.5t-55.5 26.5q-40 0 -54 -28.5t-14 -106.5v-123z" />
<glyph unicode="9" horiz-adv-x="1109" d="M72 430h404q0 -113 3 -142.5t24.5 -49.5t58.5 -20q31 0 51 19t22.5 49t2.5 121v258q-30 -65 -90 -97.5t-149 -32.5q-111 0 -196 60t-108 144t-23 227v129q0 170 13.5 253t69.5 153.5t155 109.5t230 39q162 0 266 -45t161 -129.5t66 -177.5t9 -360v-225q0 -289 -8 -386.5 t-69.5 -184.5t-166.5 -130.5t-243 -43.5q-171 0 -279.5 55t-156 155t-47.5 252zM476 935q0 -102 26.5 -126t54.5 -24q42 0 61.5 30.5t19.5 119.5v293q0 107 -18.5 140t-61.5 33q-26 0 -54 -25.5t-28 -137.5v-303z" />
<glyph unicode=":" horiz-adv-x="414" d="M72 0v330h305v-330h-305zM72 725v329h305v-329h-305z" />
<glyph unicode=";" horiz-adv-x="414" d="M72 725v329h305v-329h-305zM89 0v317h271v-145q0 -114 -27 -187t-93.5 -124t-150.5 -68v116q60 34 68 91h-68z" />
<glyph unicode="&#x37e;" horiz-adv-x="414" d="M72 725v329h305v-329h-305zM89 0v317h271v-145q0 -114 -27 -187t-93.5 -124t-150.5 -68v116q60 34 68 91h-68z" />
<glyph unicode="&#x3c;" horiz-adv-x="1092" d="M65 725v203l962 402v-264l-594 -239l594 -238v-265z" />
<glyph unicode="=" horiz-adv-x="1092" d="M65 496v244h962v-244h-962zM65 878v244h962v-244h-962z" />
<glyph unicode="&#x3e;" horiz-adv-x="1092" d="M65 324v264l594 239l-594 238v265l962 -400v-204z" />
<glyph unicode="?" horiz-adv-x="1075" d="M84 1097q2 213 36 311t147.5 171.5t289.5 73.5q127 0 222 -40t151 -111.5t82 -154.5t26 -260v-198q0 -135 -25 -217t-109 -144t-197 -62q-147 0 -219 115v-174h-377v445h368q2 -92 66 -92q50 0 63.5 40.5t13.5 198.5v269q0 89 -12.5 119.5t-49.5 30.5q-46 0 -59 -40.5 t-13 -182.5v-98h-404zM111 0v324h377v-324h-377z" />
<glyph unicode="@" horiz-adv-x="1587" d="M36 763q0 374 214 632t595 258q227 0 371 -87.5t240.5 -244t96.5 -387.5q0 -307 -171 -483.5t-343 -176.5q-129 0 -157 116q-68 -66 -117.5 -91.5t-118.5 -25.5q-149 0 -239 116t-90 310q0 250 125.5 444.5t305.5 194.5q72 0 130 -36t101 -108l16 114h198l-127 -792 q-4 -26 -4 -35q0 -39 37 -39q60 0 130.5 57.5t123 170.5t52.5 264q0 255 -153.5 412.5t-402.5 157.5q-289 0 -477 -199.5t-188 -532.5q0 -321 183.5 -509.5t467.5 -188.5q140 0 266 47t239 140h210q-130 -166 -322.5 -251t-391.5 -85q-341 0 -570.5 230.5t-229.5 607.5z M525 642q0 -94 40 -159t107 -65q65 0 114.5 51t91.5 209.5t42 302.5q0 90 -38 145.5t-103 55.5q-122 0 -188 -171.5t-66 -368.5z" />
<glyph unicode="A" horiz-adv-x="1040" d="M-12 0l214 1619h609l241 -1619h-431l-21 291h-151l-25 -291h-436zM444 578h144q-32 275 -64 679q-64 -464 -80 -679z" />
<glyph unicode="B" horiz-adv-x="1131" d="M84 0v1619h420q199 0 301.5 -31t165.5 -125.5t63 -304.5q0 -142 -44.5 -198t-175.5 -86q146 -33 198 -109.5t52 -234.5v-150q0 -164 -37.5 -243t-119.5 -108t-336 -29h-487zM505 277q89 3 113.5 28t24.5 123v151q0 104 -22 126t-116 25v-453zM505 982q27 1 42 1 q62 0 79 30.5t17 174.5q0 76 -14 106.5t-36.5 38.5t-87.5 9v-360z" />
<glyph unicode="C" horiz-adv-x="1134" d="M72 575v473q0 175 12 262.5t71.5 168.5t165 127.5t242.5 46.5q186 0 307 -72t159 -179.5t38 -334.5v-154h-421v282q0 123 -13.5 153.5t-59.5 30.5q-52 0 -66 -37t-14 -160v-752q0 -118 14 -154t63 -36q47 0 61.5 36t14.5 169v203h421v-63q0 -251 -35.5 -356t-157 -184 t-299.5 -79q-185 0 -305 67t-159 185.5t-39 356.5z" />
<glyph unicode="D" horiz-adv-x="1132" d="M84 0v1619h315q305 0 412.5 -28t163.5 -92t70 -142.5t14 -308.5v-567q0 -218 -20.5 -291.5t-71.5 -115t-126 -58t-226 -16.5h-531zM505 277q91 0 112 36.5t21 198.5v629q0 110 -7 141t-32 45.5t-94 14.5v-1065z" />
<glyph unicode="E" horiz-adv-x="851" d="M84 0v1619h702v-324h-281v-307h263v-308h-263v-356h309v-324h-730z" />
<glyph unicode="F" horiz-adv-x="815" d="M84 0v1619h713v-324h-292v-307h260v-308h-260v-680h-421z" />
<glyph unicode="G" horiz-adv-x="1129" d="M72 555v481q0 232 25 337t143.5 192.5t306.5 87.5q185 0 307 -76t159 -180.5t37 -303.5v-70h-421v147q0 139 -12 174t-57 35q-39 0 -53 -30t-14 -154v-777q0 -109 14 -143.5t56 -34.5q46 0 62.5 39t16.5 152v192h-85v246h493v-869h-265l-39 116q-43 -75 -108.5 -112.5 t-154.5 -37.5q-106 0 -198.5 51.5t-140.5 127.5t-60 159.5t-12 250.5z" />
<glyph unicode="H" horiz-adv-x="1137" d="M84 0v1619h421v-579h126v579h421v-1619h-421v680h-126v-680h-421z" />
<glyph unicode="I" horiz-adv-x="590" d="M84 0v1619h421v-1619h-421z" />
<glyph unicode="J" horiz-adv-x="678" d="M18 0v283q38 -3 55 -3q45 0 71 22t30 54t4 124v1139h421v-1082q0 -243 -5 -312.5t-45.5 -125.5t-110 -77.5t-209.5 -21.5h-211z" />
<glyph unicode="K" horiz-adv-x="1099" d="M84 0v1619h421v-629l187 629h395l-241 -731l264 -888h-435l-170 694v-694h-421z" />
<glyph unicode="L" horiz-adv-x="779" d="M84 0v1619h421v-1295h256v-324h-677z" />
<glyph unicode="M" horiz-adv-x="1468" d="M84 0v1619h545q24 -146 51 -344l58 -412l96 756h549v-1619h-368v1093l-147 -1093h-261l-155 1068v-1068h-368z" />
<glyph unicode="N" horiz-adv-x="1109" d="M84 0v1619h352l236 -729v729h352v-1619h-369l-219 736v-736h-352z" />
<glyph unicode="O" horiz-adv-x="1119" d="M72 671v277q0 244 11.5 345.5t72 185.5t163.5 129t240 45q130 0 233.5 -42.5t166.5 -127.5t75 -185t12 -350v-277q0 -244 -11.5 -345.5t-72 -185.5t-163.5 -129t-240 -45q-130 0 -233.5 42.5t-166.5 127.5t-75 185t-12 350zM493 447q0 -141 11.5 -174t53.5 -33 q43 0 55 38t12 181v744q0 113 -12.5 144.5t-51.5 31.5q-33 0 -50.5 -25.5t-17.5 -150.5v-756z" />
<glyph unicode="P" horiz-adv-x="1028" d="M84 0v1619h424q172 0 264.5 -27t139 -78t63 -123.5t16.5 -224.5v-141q0 -155 -32 -226t-117.5 -109t-223.5 -38h-113v-652h-421zM505 930q18 -1 31 -1q58 0 80.5 28.5t22.5 118.5v133q0 83 -26 108t-108 25v-412z" />
<glyph unicode="Q" horiz-adv-x="1119" d="M72 583v501q0 165 19.5 251.5t80.5 163t157 115.5t213 39q141 0 251.5 -48t165 -122t71 -153.5t16.5 -236.5v-526q0 -216 -21 -293t-80.5 -122.5t-158.5 -69.5q3 -54 22.5 -68t92.5 -14h146v-196h-318q-115 0 -162 17.5t-63.5 52.5t-16.5 126q-143 4 -246 75t-136 180.5 t-33 327.5zM493 447q0 -141 11.5 -174t53.5 -33q43 0 55 38t12 181v744q0 113 -12.5 144.5t-51.5 31.5q-33 0 -50.5 -25.5t-17.5 -150.5v-756z" />
<glyph unicode="R" horiz-adv-x="1103" d="M84 0v1619h298q298 0 403.5 -23t172 -117.5t66.5 -301.5q0 -189 -47 -254t-185 -78q125 -31 168 -83t53.5 -95.5t10.5 -239.5v-427h-391v538q0 130 -20.5 161t-107.5 31v-730h-421zM505 982q71 0 99.5 19.5t28.5 126.5v89q0 77 -27.5 101t-100.5 24v-360z" />
<glyph unicode="S" horiz-adv-x="1059" d="M49 1198q0 186 47.5 272t153.5 134.5t256 48.5q164 0 279.5 -53t153 -133.5t37.5 -273.5v-64h-391v120q0 84 -15 107t-50 23q-38 0 -57.5 -31t-19.5 -94q0 -81 22 -122q21 -41 119 -99q281 -167 354 -274t73 -345q0 -173 -40.5 -255t-156.5 -137.5t-270 -55.5 q-169 0 -288.5 64t-156.5 163t-37 281v106h391v-197q0 -91 16.5 -117t58.5 -26t62.5 33t20.5 98q0 143 -39 187q-40 44 -197 147q-157 104 -208 151t-84.5 130t-33.5 212z" />
<glyph unicode="T" horiz-adv-x="944" d="M12 1295v324h920v-324h-250v-1295h-421v1295h-249z" />
<glyph unicode="U" horiz-adv-x="1120" d="M78 661v958h421v-1214q0 -106 11.5 -135.5t46.5 -29.5q40 0 51.5 32.5t11.5 153.5v1193h421v-1082q0 -184 -12 -258.5t-71 -153t-155.5 -119t-227.5 -40.5q-145 0 -256 48t-166 125t-65 162.5t-10 359.5z" />
<glyph unicode="V" horiz-adv-x="1072" d="M-12 1619h444q77 -669 110 -1131q33 467 69 830l29 301h444l-214 -1619h-639z" />
<glyph unicode="W" horiz-adv-x="1668" d="M0 1619h409l43 -565l44 -545q23 423 116 1110h438q9 -71 46 -534l46 -615q35 587 117 1149h409l-187 -1619h-526q-72 373 -127 848q-25 -203 -117 -848h-523z" />
<glyph unicode="X" horiz-adv-x="988" d="M0 0l152 903l-152 716h407q11 -67 44 -223q26 -119 43 -218l90 441h353l-147 -716l222 -903h-390q-70 242 -128 589q-16 -153 -44 -325l-40 -264h-410z" />
<glyph unicode="Y" horiz-adv-x="969" d="M-12 1619h387q91 -473 102 -637q35 259 117 637h387l-307 -1033v-586h-390v586z" />
<glyph unicode="Z" horiz-adv-x="813" d="M12 0v235l324 1060h-286v324h738v-324l-314 -971h314v-324h-776z" />
<glyph unicode="[" horiz-adv-x="578" d="M84 0v1619h457v-249h-91v-1121h91v-249h-457z" />
<glyph unicode="\" horiz-adv-x="810" d="M12 1650h303l483 -1681h-305z" />
<glyph unicode="]" horiz-adv-x="578" d="M36 0v249h91v1121h-91v249h457v-1619h-457z" />
<glyph unicode="^" horiz-adv-x="990" d="M12 820l376 799h223l366 -799h-284l-198 489l-197 -489h-286z" />
<glyph unicode="_" horiz-adv-x="1131" d="M-12 -154h1155v-102h-1155v102z" />
<glyph unicode="`" horiz-adv-x="683" d="M0 1772h356l176 -271h-203z" />
<glyph unicode="a" horiz-adv-x="1032" d="M54 296v109q0 149 47 203t233 126q199 78 213 105t14 110q0 104 -15.5 135.5t-51.5 31.5q-41 0 -51 -26.5t-10 -137.5v-139h-379v89q0 154 35.5 237.5t142.5 147.5t278 64q205 0 309 -72.5t125 -178t21 -434.5v-666h-393v118q-37 -71 -95.5 -106.5t-139.5 -35.5 q-106 0 -194.5 59.5t-88.5 260.5zM433 374q0 -103 13.5 -133t53.5 -30q38 0 49.5 23.5t11.5 123.5v273q-97 -71 -112.5 -119t-15.5 -138z" />
<glyph unicode="b" horiz-adv-x="1064" d="M72 0v1619h404v-383q50 58 111.5 86.5t133.5 28.5q83 0 144 -26t93 -73t38.5 -92t6.5 -192v-598q0 -146 -19.5 -217.5t-91.5 -124t-171 -52.5q-71 0 -132.5 31t-112.5 93l-26 -100h-378zM476 378q0 -107 12.5 -137t49.5 -30q38 0 49.5 31t11.5 149v559q0 103 -13 134.5 t-51 31.5q-37 0 -48 -27.5t-11 -138.5v-572z" />
<glyph unicode="c" horiz-adv-x="1013" d="M60 498v377q0 169 34 255t145 153.5t270 67.5q158 0 270 -67t149 -169t37 -289h-381v153q0 80 -13 108.5t-48 28.5t-47 -25t-12 -112v-626q0 -71 18 -106.5t53 -35.5q41 0 55.5 37t14.5 140v158h360q-1 -159 -11.5 -238.5t-67 -163t-147.5 -126t-225 -42.5 q-171 0 -271 58.5t-141.5 164t-41.5 299.5z" />
<glyph unicode="d" horiz-adv-x="1064" d="M60 352v621q0 153 19.5 217t89.5 112.5t167 48.5q75 0 137.5 -27t113.5 -81v376h404v-1619h-404v96q-58 -60 -122 -90t-134 -30q-94 0 -163 49.5t-88.5 114.5t-19.5 212zM464 343q0 -81 12 -106.5t46 -25.5q39 0 52 28.5t13 139.5v614q0 73 -12.5 98t-49.5 25 q-36 0 -48.5 -22.5t-12.5 -100.5v-650z" />
<glyph unicode="e" horiz-adv-x="1047" d="M60 482v387q0 174 47 274.5t154 154t246 53.5q170 0 280.5 -64.5t155 -171t44.5 -299.5v-176h-523v-287q0 -90 13 -116t50 -26q46 0 61.5 34.5t15.5 133.5v175h383v-98q0 -123 -15.5 -189t-72.5 -141t-144.5 -112.5t-219.5 -37.5q-128 0 -226 37t-152.5 101.5t-75.5 142 t-21 225.5zM464 856h118v97q0 103 -11 133t-45 30q-42 0 -52 -25.5t-10 -137.5v-97z" />
<glyph unicode="f" horiz-adv-x="592" d="M4 1085v210h83q0 131 9 175t44.5 78.5t99.5 52.5t199 18h148v-205q-125 0 -147.5 -11.5t-22.5 -65.5v-42h170v-210h-96v-1085h-404v1085h-83z" />
<glyph unicode="g" horiz-adv-x="1062" d="M60 94h392q0 -88 64 -88q46 0 61 27t15 113v100q-52 -47 -109.5 -71t-120.5 -24q-109 0 -179.5 44t-96.5 115.5t-26 203.5v482q0 189 68 272t207 83q76 0 138.5 -31t111.5 -93l29 100h376v-1022q0 -207 -9.5 -267.5t-67.5 -128t-161.5 -103t-260.5 -35.5 q-193 0 -310 65.5t-121 257.5zM464 529q0 -89 11 -115.5t46 -26.5q40 0 52 32t12 145v411q0 91 -10.5 116t-46.5 25q-35 0 -49.5 -28.5t-14.5 -112.5v-446z" />
<glyph unicode="h" horiz-adv-x="1073" d="M72 0v1619h404v-364q52 48 112.5 72t129.5 24q106 0 180.5 -54t91 -124.5t16.5 -257.5v-915h-404v934q0 116 -11.5 149t-51.5 33q-37 0 -50 -34t-13 -135v-947h-404z" />
<glyph unicode="i" horiz-adv-x="561" d="M72 0v1327h416v-1327h-416zM72 1408v211h416v-211h-416z" />
<glyph unicode="j" horiz-adv-x="573" d="M-6 26q72 0 81 16t9 200v1085h416v-1050q0 -185 -7.5 -250.5t-46 -115t-103 -73.5t-193.5 -24h-156v212zM84 1408v211h416v-211h-416z" />
<glyph unicode="k" horiz-adv-x="979" d="M72 0v1619h404v-680l126 388h340l-164 -529l213 -798h-389l-126 578v-578h-404z" />
<glyph unicode="l" horiz-adv-x="561" d="M72 0v1619h416v-1619h-416z" />
<glyph unicode="m" horiz-adv-x="1579" d="M72 0v1327h399l-7 -126q47 75 112 112.5t148 37.5q162 0 255 -150q51 75 115 112.5t142 37.5q103 0 170.5 -50t86.5 -122.5t19 -235.5v-943h-392v865q0 170 -11.5 210.5t-53.5 40.5q-43 0 -55.5 -40t-12.5 -211v-865h-392v843q0 195 -9.5 234t-52.5 39q-27 0 -46 -20.5 t-21 -50t-2 -125.5v-920h-392z" />
<glyph unicode="n" horiz-adv-x="1071" d="M72 0v1327h411l-7 -122q44 73 107.5 109.5t146.5 36.5q104 0 170 -49t85 -123.5t19 -248.5v-930h-404v919q0 137 -9 167t-50 30q-43 0 -54 -34.5t-11 -184.5v-897h-404z" />
<glyph unicode="o" horiz-adv-x="1047" d="M60 492v340q0 185 40 289t144 167t266 63q136 0 233.5 -40.5t150.5 -105.5t72.5 -134t19.5 -210v-325q0 -179 -18 -262.5t-77 -156t-151.5 -107t-212.5 -34.5q-134 0 -227 29.5t-144.5 89t-73.5 144t-22 253.5zM464 362q0 -94 12 -122.5t47 -28.5q36 0 47.5 26t11.5 112 v612q0 102 -11 128.5t-47 26.5t-48 -26.5t-12 -128.5v-599z" />
<glyph unicode="p" horiz-adv-x="1063" d="M72 -189v1516h411l-7 -117q54 71 119 106t142 35q94 0 162.5 -50.5t85.5 -116.5t17 -224v-559q0 -181 -21.5 -257.5t-88 -122t-160.5 -45.5q-75 0 -139 35t-117 104v-304h-404zM476 391q0 -120 12 -150t52 -30q39 0 48.5 27.5t9.5 133.5v569q0 123 -9 149t-50 26 q-40 0 -51.5 -30t-11.5 -145v-550z" />
<glyph unicode="q" horiz-adv-x="1061" d="M60 399v585q0 135 18 201.5t86.5 116t162.5 49.5q76 0 140 -34t117 -103l7 113h397v-1516h-404v296q-59 -86 -108.5 -108.5t-122.5 -22.5q-106 0 -175.5 50t-93.5 129.5t-24 243.5zM464 375q0 -107 12 -135.5t49 -28.5q35 0 47 29.5t12 128.5v597q0 88 -13.5 119 t-48.5 31q-34 0 -46 -27t-12 -123v-591z" />
<glyph unicode="r" horiz-adv-x="733" d="M72 0v1327h404l-16 -174q88 187 255 198v-467q-111 0 -163 -30t-64 -83.5t-12 -246.5v-524h-404z" />
<glyph unicode="s" horiz-adv-x="964" d="M42 959q0 159 42 234.5t142.5 116.5t233.5 41q132 0 224.5 -33.5t142 -88.5t60 -102t10.5 -147v-77h-358v72q0 92 -10.5 116.5t-52.5 24.5q-34 0 -51 -22.5t-17 -67.5q0 -61 8.5 -89.5t51 -62.5t174.5 -99q176 -86 231 -162t55 -221q0 -162 -42 -244.5t-140.5 -127 t-237.5 -44.5q-154 0 -263.5 48t-150.5 130t-41 248v64h358v-84q0 -107 13.5 -139t53.5 -32q43 0 60 21.5t17 90.5q0 95 -22 119q-23 24 -235 142q-178 100 -217 181.5t-39 193.5z" />
<glyph unicode="t" horiz-adv-x="624" d="M6 1085v210h87v209h405v-209h109v-210h-109v-710q0 -131 13.5 -146t112.5 -15v-214h-163q-138 0 -197 11.5t-104 53t-56 95t-11 251.5v674h-87z" />
<glyph unicode="u" horiz-adv-x="1070" d="M66 432v895h404v-903q0 -155 9.5 -184t51.5 -29q45 0 53.5 30t8.5 193v893h404v-1327h-411l7 110q-42 -67 -103.5 -100.5t-141.5 -33.5q-91 0 -151 32t-88.5 85t-35.5 110.5t-7 228.5z" />
<glyph unicode="v" horiz-adv-x="895" d="M-12 1327h361l113 -968q13 106 44 520q18 231 40 448h361l-189 -1327h-527z" />
<glyph unicode="w" horiz-adv-x="1371" d="M-6 1327h348q4 -52 88 -759q6 72 90 759h335l82 -759q19 332 92 759h348l-161 -1327h-439q-36 243 -83 640q-16 -174 -45 -352l-45 -288h-439z" />
<glyph unicode="x" horiz-adv-x="888" d="M0 0l174 693l-174 634h338q81 -406 87 -461q58 339 88 461h359l-161 -634l195 -693h-393q-58 262 -88 451q-40 -236 -87 -451h-338z" />
<glyph unicode="y" horiz-adv-x="918" d="M-12 1327h367l132 -895l64 895h367l-116 -960q-27 -228 -45.5 -311t-61.5 -137t-119.5 -79.5t-244.5 -25.5h-245v212q94 0 121 9.5t27 42.5q0 16 -25 139z" />
<glyph unicode="z" horiz-adv-x="719" d="M12 0v278l305 783h-274v266h658v-294l-298 -767h298v-266h-689z" />
<glyph unicode="{" horiz-adv-x="757" d="M36 538v240q109 1 164 64.5t55 285.5q0 169 12.5 250.5t60.5 136.5t124 79.5t215 24.5h53v-239q-145 0 -173.5 -30t-30.5 -117q-6 -240 -15.5 -312t-44 -137.5t-128.5 -125.5q89 -54 129.5 -129t47.5 -216l15 -291q9 -42 43 -63.5t156 -21.5v-240h-52q-160 0 -247 36.5 t-126 119.5t-39 268q0 204 -14 261t-54 104.5t-151 51.5z" />
<glyph unicode="|" horiz-adv-x="555" d="M169 -265v1884h217v-1884h-217z" />
<glyph unicode="}" horiz-adv-x="757" d="M36 1380v239h53q160 0 247 -36.5t126 -119.5t39 -268q0 -212 15.5 -267t55 -100.5t148.5 -49.5v-240q-109 -1 -164 -65t-55 -284q0 -170 -12 -251.5t-60 -136.5t-124 -79.5t-215 -24.5h-53v240q139 0 170.5 29t33.5 118q6 256 18.5 328.5t50 135.5t118.5 110 q-86 56 -120 110t-46 117.5t-18 236t-14 197.5t-38.5 43t-155.5 18z" />
<glyph unicode="~" horiz-adv-x="1075" d="M57 623v277q147 128 289 128q85 0 232 -70q119 -57 169 -57q46 0 98 26.5t173 134.5v-275q-158 -131 -284 -131q-86 0 -256 82q-97 47 -142 47q-109 0 -279 -162z" />
<glyph unicode="&#xa1;" horiz-adv-x="553" d="M36 -195l66 1219h312l66 -1219h-444zM69 1100v324h378v-324h-378z" />
<glyph unicode="&#xa2;" horiz-adv-x="1059" d="M60 589v298q0 202 25.5 300t119.5 178.5t238 109.5v137h186v-137q98 -18 178.5 -67.5t126.5 -117.5t58 -136.5t12 -231.5h-404v135q0 116 -12.5 146.5t-55.5 30.5q-41 0 -54.5 -26t-13.5 -137v-621q0 -109 13 -139.5t53 -30.5q50 0 68.5 41t18.5 173v146h387q1 -45 1 -66 q0 -239 -89.5 -366t-286.5 -170v-165h-186v165q-132 18 -233 98.5t-125.5 168t-24.5 284.5z" />
<glyph unicode="&#xa3;" horiz-adv-x="1096" d="M72 -31v236q43 29 70.5 73.5t50.5 146t23 176.5q0 16 -1 44h-143v276h99q-84 160 -84 306q0 209 129 316t328 107q213 0 339 -112.5t126 -307.5q0 -53 -10 -132h-362v147q0 98 -3.5 124.5t-24 47t-51.5 20.5q-40 0 -66 -34t-26 -77q0 -55 44 -207q47 -166 48 -198h255 v-276h-231q-3 -272 -194 -409q18 2 45 6q30 5 54 5q33 0 92 -10q23 -4 41 -4q40 0 65 25q24 25 24 132q0 16 -1 64h340l-1 -129q0 -145 -21 -208.5t-94 -105.5t-184 -42q-70 0 -205 34q-131 34 -226 34q-150 0 -245 -68z" />
<glyph unicode="&#xa4;" horiz-adv-x="1123" d="M36 286l132 130q-74 119 -74 254q0 126 74 249l-132 133l140 142l133 -133q62 37 124.5 55.5t126.5 18.5t127.5 -18.5t126.5 -55.5l132 133l140 -142l-131 -133q73 -121 73 -249q0 -135 -73 -254l131 -130l-140 -141l-132 129q-59 -37 -123 -55.5t-132 -18.5 q-65 0 -127.5 18.5t-122.5 55.5l-130 -129zM293 674q0 -119 80 -196.5t188 -77.5q111 0 189.5 78.5t78.5 188.5q0 111 -78.5 189.5t-189.5 78.5q-115 0 -191.5 -81.5t-76.5 -179.5z" />
<glyph unicode="&#xa5;" horiz-adv-x="969" d="M-12 1619h387q91 -473 102 -637q35 259 117 637h387l-189 -637h174v-172h-225l-67 -224h292v-171h-292v-415h-390v415h-282v171h282l-64 224h-218v172h168z" />
<glyph unicode="&#xa6;" horiz-adv-x="555" d="M169 -265v815h217v-815h-217zM169 804v815h217v-815h-217z" />
<glyph unicode="&#xa7;" horiz-adv-x="991" d="M36 694q0 165 216 289q-84 76 -126.5 156t-42.5 164q0 131 102.5 240.5t306.5 109.5q162 0 273.5 -83.5t111.5 -296.5h-319v25q0 50 -20.5 75t-62.5 25q-30 0 -45 -14.5t-15 -44.5q0 -31 31 -67q30 -36 161 -131q235 -170 291.5 -247t56.5 -165q0 -184 -217 -285 q86 -89 129 -169.5t43 -153.5q0 -134 -110.5 -242t-306.5 -108q-167 0 -272 90.5t-108 284.5h320q0 -129 79 -129q32 0 47.5 16.5t15.5 49.5q0 36 -31 71q-31 34 -108 90q-228 163 -314 253.5t-86 196.5zM347 794q0 -29 25 -55.5t129 -100.5l108 -80q35 32 35 75 q0 30 -34.5 64t-140.5 109l-87 63q-35 -36 -35 -75z" />
<glyph unicode="&#xa8;" horiz-adv-x="683" d="M-7 1501v260h261v-260h-261zM430 1501v260h261v-260h-261z" />
<glyph unicode="&#xa9;" horiz-adv-x="1605" d="M36 766q0 218 113.5 401t291.5 274t341 91q348 0 567 -230t219 -536q0 -316 -225 -541t-541 -225q-318 0 -542 224.5t-224 541.5zM187 766q0 -253 180.5 -434t434.5 -181t434.5 181t180.5 434q0 264 -186.5 439.5t-412.5 175.5q-276 0 -453.5 -183t-177.5 -432zM426 762 q0 199 106 313.5t274 114.5q256 0 343 -243l-162 -38q-52 139 -178 139q-100 0 -153.5 -75.5t-53.5 -199.5q0 -139 51.5 -215.5t145.5 -76.5q135 0 189 172l161 -55q-81 -260 -339 -260q-175 0 -279.5 115.5t-104.5 308.5z" />
<glyph unicode="&#xaa;" horiz-adv-x="665" d="M36 1013v65q0 96 33.5 129.5t182.5 86.5q105 38 109.5 55.5t4.5 43.5q0 65 -9.5 82t-35.5 17q-27 0 -33 -13.5t-6 -78.5v-38h-246q0 99 22 150.5t91 92.5t181 41q132 0 199 -42t83 -106t16 -270v-394h-255v69q-25 -44 -63 -66t-89 -22q-92 0 -138.5 49.5t-46.5 148.5z M283 1062q0 -53 8 -69t35 -16q26 0 33 13t7 69v150q-56 -41 -69.5 -61.5t-13.5 -85.5z" />
<glyph unicode="&#xab;" horiz-adv-x="760" d="M36 695l84 543h237l-84 -543l84 -571h-237zM402 695l85 543h237l-85 -543l85 -571h-237z" />
<glyph unicode="&#xac;" horiz-adv-x="1092" d="M64 881v245h964v-634h-244v389h-720z" />
<glyph unicode="&#xad;" horiz-adv-x="603" d="M36 524v279h531v-279h-531z" />
<glyph unicode="&#xae;" horiz-adv-x="1605" d="M36 766q0 223 118.5 409.5t296.5 271.5t331 85q343 0 564.5 -228t221.5 -538q0 -316 -225 -541t-541 -225q-318 0 -542 224.5t-224 541.5zM188 766q0 -254 181 -435t435 -181q253 0 434 181t181 435q0 175 -91 322.5t-234 221t-274 73.5q-282 0 -457 -186t-175 -431z M465 357v813h385q143 0 208 -66.5t65 -163.5q0 -94 -54.5 -151t-164.5 -77q50 -19 79.5 -51.5t93.5 -140.5l95 -163h-203l-68 131q-61 117 -107.5 159.5t-121.5 42.5h-43v-333h-164zM629 819h134q101 0 143.5 26.5t42.5 86.5q0 54 -42 81t-127 27h-151v-221z" />
<glyph unicode="&#xaf;" horiz-adv-x="1131" d="M-12 1690v102h1155v-102h-1155z" />
<glyph unicode="&#xb0;" horiz-adv-x="711" d="M36 1314q0 142 95 234.5t224 92.5q133 0 226 -93.5t93 -225.5t-93.5 -225.5t-224.5 -93.5q-141 0 -230.5 97.5t-89.5 213.5zM202 1326q0 -68 45.5 -112.5t107.5 -44.5q63 0 108 45t45 108t-45 108t-108 45q-66 0 -109.5 -47t-43.5 -102z" />
<glyph unicode="&#xb1;" horiz-adv-x="1092" d="M64 179v244h964v-244h-964zM64 898v244h359v360h244v-360h361v-244h-361v-355h-244v355h-359z" />
<glyph unicode="&#xb2;" horiz-adv-x="651" d="M36 783v128q250 344 293.5 419t43.5 118q0 60 -53 60q-29 0 -42 -16.5t-13 -69.5v-86h-229v37q0 88 19 142.5t83 94.5t171 40q150 0 227.5 -63t77.5 -162q0 -75 -42.5 -153.5t-177.5 -245.5l-69 -88h267v-155h-556z" />
<glyph unicode="&#xb3;" horiz-adv-x="668" d="M36 1057v56h255v-127q0 -53 7 -65.5t33 -12.5q29 0 37.5 17t8.5 94v54q0 67 -27 84t-124 18v134q108 0 129.5 13t21.5 72v48q0 44 -11 55t-32 11q-25 0 -34 -12t-9 -60v-59h-255v62q0 125 65.5 168t211.5 43q177 0 243 -59t66 -170q0 -47 -16 -89.5t-74 -68.5 q45 -14 72.5 -53t27.5 -169q0 -170 -82.5 -222.5t-213.5 -52.5q-121 0 -189.5 35t-89.5 86t-21 170z" />
<glyph unicode="&#xb4;" horiz-adv-x="683" d="M151 1501l176 271h356l-329 -271h-203z" />
<glyph unicode="&#xb5;" horiz-adv-x="965" d="M72 -407v1734h324v-957q0 -141 78 -141q97 0 97 232v866h321v-1327h-306v123q-61 -142 -190 -144v-386h-324z" />
<glyph unicode="&#xb6;" horiz-adv-x="1180" d="M36 1200q0 117 45 206.5t121.5 139.5t147 61.5t220.5 11.5h597v-261h-113v-1579h-237v1579h-144v-1579h-243v1018q-394 44 -394 403z" />
<glyph unicode="&#xb7;" horiz-adv-x="683" d="M195 698q0 61 43 103.5t103 42.5q59 0 103 -42t44 -104q0 -61 -43 -104t-104 -43q-60 0 -103 43t-43 104z" />
<glyph unicode="&#xb8;" horiz-adv-x="683" d="M113 -274h148q14 -41 50 -41q30 0 44.5 15t14.5 45q0 33 -20.5 49.5t-62.5 16.5q-9 0 -26 -1v202h117v-124q52 0 98 -35t46 -97q0 -76 -62 -132t-148 -56q-156 0 -199 158z" />
<glyph unicode="&#xb9;" horiz-adv-x="501" d="M12 1391v110q183 33 278 135h150v-853h-255v457q0 98 -5 115t-30 26.5t-110 9.5h-28z" />
<glyph unicode="&#xba;" horiz-adv-x="675" d="M36 1131v197q0 184 80.5 251t211.5 67q114 0 185 -40t98 -99.5t27 -161.5v-188q0 -125 -22 -191t-92 -108.5t-188 -42.5q-125 0 -187.5 35.5t-87.5 98.5t-25 182zM299 1052q0 -55 7 -69.5t28 -14.5q28 0 34.5 13.5t6.5 62.5v361q0 60 -6 73.5t-32 13.5q-25 0 -31.5 -14 t-6.5 -73v-353z" />
<glyph unicode="&#xbb;" horiz-adv-x="760" d="M36 124l84 571l-84 543h237l84 -543l-84 -571h-237zM402 124l85 571l-85 543h237l85 -543l-85 -571h-237z" />
<glyph unicode="&#xbc;" horiz-adv-x="1277" d="M12 1391v110q183 33 278 135h150v-853h-255v457q0 98 -5 115t-30 26.5t-110 9.5h-28zM214 -31l635 1681h152l-633 -1681h-154zM629 148v151l218 555h335v-550h71v-156h-71v-148h-256v148h-297zM800 304h126v335z" />
<glyph unicode="&#xbd;" horiz-adv-x="1321" d="M12 1391v110q183 33 278 135h150v-853h-255v457q0 98 -5 115t-30 26.5t-110 9.5h-28zM214 -31l635 1681h152l-633 -1681h-154zM706 0v128q250 344 293.5 419t43.5 119q0 60 -54 60q-28 0 -41 -16.5t-13 -70.5v-85h-229v36q0 88 19 143t83 95t171 40q150 0 227.5 -63.5 t77.5 -162.5q0 -73 -43.5 -153.5t-176.5 -245.5l-69 -88h267v-155h-556z" />
<glyph unicode="&#xbe;" horiz-adv-x="1416" d="M36 1057v56h255v-127q0 -53 7 -65.5t33 -12.5q29 0 37.5 17t8.5 94v54q0 67 -27 84t-124 18v134q108 0 129.5 13t21.5 72v48q0 44 -11 55t-32 11q-25 0 -34 -12t-9 -60v-59h-255v62q0 125 65.5 168t211.5 43q177 0 243 -59t66 -170q0 -47 -16 -89.5t-74 -68.5 q45 -14 72.5 -53t27.5 -169q0 -170 -82.5 -222.5t-213.5 -52.5q-121 0 -189.5 35t-89.5 86t-21 170zM353 -31l634 1681h152l-632 -1681h-154zM767 148v151l218 555h335v-550h71v-156h-71v-148h-255v148h-298zM938 304h127v335z" />
<glyph unicode="&#xbf;" horiz-adv-x="1075" d="M36 336v198q0 136 25 217.5t109 143.5t197 62q153 0 219 -114v173h377v-445h-368q-1 93 -66 93q-50 0 -63.5 -40.5t-13.5 -198.5v-270q0 -88 12.5 -118.5t49.5 -30.5q46 0 59 40t13 183v98h404q-2 -213 -36 -311.5t-147.5 -171.5t-289.5 -73q-127 0 -222 40t-151 111.5 t-82 154.5t-26 259zM586 1100v324h377v-324h-377z" />
<glyph unicode="&#xc0;" horiz-adv-x="1040" d="M-12 0l214 1619h609l241 -1619h-431l-21 291h-151l-25 -291h-436zM444 578h144q-32 275 -64 679q-64 -464 -80 -679zM152 1941h356l176 -271h-203z" />
<glyph unicode="&#xc1;" horiz-adv-x="1040" d="M-12 0l214 1619h609l241 -1619h-431l-21 291h-151l-25 -291h-436zM444 578h144q-32 275 -64 679q-64 -464 -80 -679zM330 1670l176 271h356l-329 -271h-203z" />
<glyph unicode="&#xc2;" horiz-adv-x="1040" d="M-12 0l214 1619h609l241 -1619h-431l-21 291h-151l-25 -291h-436zM444 578h144q-32 275 -64 679q-64 -464 -80 -679zM112 1670l257 282h282l241 -282h-271l-111 131l-118 -131h-280z" />
<glyph unicode="&#xc3;" horiz-adv-x="1040" d="M-12 0l214 1619h609l241 -1619h-431l-21 291h-151l-25 -291h-436zM444 578h144q-32 275 -64 679q-64 -464 -80 -679zM85 1775q110 194 248 194q72 0 157 -32l62 -23q78 -29 106 -29q83 0 110 90l161 -115q-46 -101 -113 -141t-118 -40q-71 0 -153 33l-74 29 q-71 29 -106 29q-74 0 -122 -100z" />
<glyph unicode="&#xc4;" horiz-adv-x="1040" d="M-12 0l214 1619h609l241 -1619h-431l-21 291h-151l-25 -291h-436zM444 578h144q-32 275 -64 679q-64 -464 -80 -679zM158 1670v260h261v-260h-261zM595 1670v260h261v-260h-261z" />
<glyph unicode="&#xc5;" horiz-adv-x="1040" d="M-12 0l214 1619h609l241 -1619h-431l-21 291h-151l-25 -291h-436zM444 578h144q-32 275 -64 679q-64 -464 -80 -679zM296 1855q0 87 62 149t149 62q84 0 147 -60.5t63 -150.5q0 -87 -62 -148.5t-148 -61.5q-88 0 -149.5 61.5t-61.5 148.5zM423 1851q0 -34 24.5 -58 t57.5 -24q34 0 58.5 24t24.5 58q0 35 -24.5 59t-58.5 24q-33 0 -57.5 -24t-24.5 -59z" />
<glyph unicode="&#xc6;" horiz-adv-x="1461" d="M-12 0l426 1619h990v-324h-283v-307h266v-308h-266v-356h303v-324h-724v291h-242l-68 -291h-402zM521 578h179v738z" />
<glyph unicode="&#xc7;" horiz-adv-x="1134" d="M72 575v473q0 175 12 262.5t71.5 168.5t165 127.5t242.5 46.5q186 0 307 -72t159 -179.5t38 -334.5v-154h-421v282q0 123 -13.5 153.5t-59.5 30.5q-52 0 -66 -37t-14 -160v-752q0 -118 14 -154t63 -36q47 0 61.5 36t14.5 169v203h421v-63q0 -233 -28 -334.5t-138.5 -187 t-294.5 -96.5v-19q54 0 99 -35.5t45 -96.5q0 -76 -62 -131.5t-148 -55.5q-156 0 -199 158h148q14 -42 50 -42q30 0 44.5 15t14.5 45q0 33 -20.5 49.5t-62.5 16.5h-26v100q-171 16 -266.5 93.5t-123 189t-27.5 321.5z" />
<glyph unicode="&#xc8;" horiz-adv-x="851" d="M84 0v1619h702v-324h-281v-307h263v-308h-263v-356h309v-324h-730zM84 1941h356l176 -271h-203z" />
<glyph unicode="&#xc9;" horiz-adv-x="851" d="M84 0v1619h702v-324h-281v-307h263v-308h-263v-356h309v-324h-730zM234 1670l176 271h356l-329 -271h-203z" />
<glyph unicode="&#xca;" horiz-adv-x="851" d="M84 0v1619h702v-324h-281v-307h263v-308h-263v-356h309v-324h-730zM35 1670l257 282h282l241 -282h-271l-111 131l-118 -131h-280z" />
<glyph unicode="&#xcb;" horiz-adv-x="851" d="M84 0v1619h702v-324h-281v-307h263v-308h-263v-356h309v-324h-730zM76 1670v260h261v-260h-261zM513 1670v260h261v-260h-261z" />
<glyph unicode="&#xcc;" horiz-adv-x="590" d="M84 0v1619h421v-1619h-421zM-47 1941h356l176 -271h-203z" />
<glyph unicode="&#xcd;" horiz-adv-x="590" d="M84 0v1619h421v-1619h-421zM104 1670l176 271h356l-329 -271h-203z" />
<glyph unicode="&#xce;" horiz-adv-x="590" d="M84 0v1619h421v-1619h-421zM-95 1670l257 282h282l241 -282h-271l-111 131l-118 -131h-280z" />
<glyph unicode="&#xcf;" horiz-adv-x="590" d="M84 0v1619h421v-1619h-421zM-54 1670v260h261v-260h-261zM383 1670v260h261v-260h-261z" />
<glyph unicode="&#xd0;" horiz-adv-x="1144" d="M14 810v172h82v637h315q305 0 412.5 -28t163.5 -92t70 -142.5t14 -308.5v-567q0 -218 -20.5 -291.5t-71.5 -115t-126 -58t-226 -16.5h-531v810h-82zM517 277q91 0 112 36.5t21 198.5v629q0 110 -7 141t-31.5 45.5t-94.5 14.5v-360h66v-172h-66v-533z" />
<glyph unicode="&#x110;" horiz-adv-x="1144" d="M14 810v172h82v637h315q305 0 412.5 -28t163.5 -92t70 -142.5t14 -308.5v-567q0 -218 -20.5 -291.5t-71.5 -115t-126 -58t-226 -16.5h-531v810h-82zM517 277q91 0 112 36.5t21 198.5v629q0 110 -7 141t-31.5 45.5t-94.5 14.5v-360h66v-172h-66v-533z" />
<glyph unicode="&#xd1;" horiz-adv-x="1109" d="M84 0v1619h352l236 -729v729h352v-1619h-369l-219 736v-736h-352zM132 1775q110 194 248 194q72 0 157 -32l62 -23q78 -29 106 -29q83 0 110 90l161 -115q-46 -101 -113 -141t-118 -40q-71 0 -153 33l-74 29q-71 29 -106 29q-74 0 -122 -100z" />
<glyph unicode="&#xd2;" horiz-adv-x="1119" d="M72 671v277q0 244 11.5 345.5t72 185.5t163.5 129t240 45q130 0 233.5 -42.5t166.5 -127.5t75 -185t12 -350v-277q0 -244 -11.5 -345.5t-72 -185.5t-163.5 -129t-240 -45q-130 0 -233.5 42.5t-166.5 127.5t-75 185t-12 350zM493 447q0 -141 11.5 -174t53.5 -33 q43 0 55 38t12 181v744q0 113 -12.5 144.5t-51.5 31.5q-33 0 -50.5 -25.5t-17.5 -150.5v-756zM218 1941h356l176 -271h-203z" />
<glyph unicode="&#xd3;" horiz-adv-x="1119" d="M72 671v277q0 244 11.5 345.5t72 185.5t163.5 129t240 45q130 0 233.5 -42.5t166.5 -127.5t75 -185t12 -350v-277q0 -244 -11.5 -345.5t-72 -185.5t-163.5 -129t-240 -45q-130 0 -233.5 42.5t-166.5 127.5t-75 185t-12 350zM493 447q0 -141 11.5 -174t53.5 -33 q43 0 55 38t12 181v744q0 113 -12.5 144.5t-51.5 31.5q-33 0 -50.5 -25.5t-17.5 -150.5v-756zM368 1670l176 271h356l-329 -271h-203z" />
<glyph unicode="&#xd4;" horiz-adv-x="1119" d="M72 671v277q0 244 11.5 345.5t72 185.5t163.5 129t240 45q130 0 233.5 -42.5t166.5 -127.5t75 -185t12 -350v-277q0 -244 -11.5 -345.5t-72 -185.5t-163.5 -129t-240 -45q-130 0 -233.5 42.5t-166.5 127.5t-75 185t-12 350zM493 447q0 -141 11.5 -174t53.5 -33 q43 0 55 38t12 181v744q0 113 -12.5 144.5t-51.5 31.5q-33 0 -50.5 -25.5t-17.5 -150.5v-756zM169 1670l257 282h282l241 -282h-271l-111 131l-118 -131h-280z" />
<glyph unicode="&#xd5;" horiz-adv-x="1119" d="M72 671v277q0 244 11.5 345.5t72 185.5t163.5 129t240 45q130 0 233.5 -42.5t166.5 -127.5t75 -185t12 -350v-277q0 -244 -11.5 -345.5t-72 -185.5t-163.5 -129t-240 -45q-130 0 -233.5 42.5t-166.5 127.5t-75 185t-12 350zM493 447q0 -141 11.5 -174t53.5 -33 q43 0 55 38t12 181v744q0 113 -12.5 144.5t-51.5 31.5q-33 0 -50.5 -25.5t-17.5 -150.5v-756zM137 1775q110 194 248 194q72 0 157 -32l62 -23q78 -29 106 -29q83 0 110 90l161 -115q-46 -101 -113 -141t-118 -40q-71 0 -153 33l-74 29q-71 29 -106 29q-74 0 -122 -100z" />
<glyph unicode="&#xd6;" horiz-adv-x="1119" d="M72 671v277q0 244 11.5 345.5t72 185.5t163.5 129t240 45q130 0 233.5 -42.5t166.5 -127.5t75 -185t12 -350v-277q0 -244 -11.5 -345.5t-72 -185.5t-163.5 -129t-240 -45q-130 0 -233.5 42.5t-166.5 127.5t-75 185t-12 350zM493 447q0 -141 11.5 -174t53.5 -33 q43 0 55 38t12 181v744q0 113 -12.5 144.5t-51.5 31.5q-33 0 -50.5 -25.5t-17.5 -150.5v-756zM210 1670v260h261v-260h-261zM647 1670v260h261v-260h-261z" />
<glyph unicode="&#xd7;" horiz-adv-x="1092" d="M74 1122l172 172l300 -299l299 299l173 -172l-299 -300l297 -296l-172 -173l-297 297l-298 -296l-172 172l297 296z" />
<glyph unicode="&#xd8;" horiz-adv-x="1119" d="M-55 87l147 192q-20 72 -20 392v277q0 244 11.5 345.5t72 185.5t163.5 129t240 45q145 0 249 -47.5t166 -143.5l107 140l92 -69l-147 -193q20 -76 20 -392v-277q0 -244 -11.5 -345.5t-72 -185.5t-163.5 -129t-240 -45q-146 0 -249.5 48t-165.5 143l-107 -140zM493 447 q0 -141 11.5 -174t53.5 -33q43 0 55 38t12 181v340l-132 -175v-177zM493 813l132 174v216q0 113 -12.5 144.5t-51.5 31.5q-41 0 -54.5 -33.5t-13.5 -142.5v-390z" />
<glyph unicode="&#xd9;" horiz-adv-x="1120" d="M78 661v958h421v-1214q0 -106 11.5 -135.5t46.5 -29.5q40 0 51.5 32.5t11.5 153.5v1193h421v-1082q0 -184 -12 -258.5t-71 -153t-155.5 -119t-227.5 -40.5q-145 0 -256 48t-166 125t-65 162.5t-10 359.5zM218 1941h356l176 -271h-203z" />
<glyph unicode="&#xda;" horiz-adv-x="1120" d="M78 661v958h421v-1214q0 -106 11.5 -135.5t46.5 -29.5q40 0 51.5 32.5t11.5 153.5v1193h421v-1082q0 -184 -12 -258.5t-71 -153t-155.5 -119t-227.5 -40.5q-145 0 -256 48t-166 125t-65 162.5t-10 359.5zM369 1670l176 271h356l-329 -271h-203z" />
<glyph unicode="&#xdb;" horiz-adv-x="1120" d="M78 661v958h421v-1214q0 -106 11.5 -135.5t46.5 -29.5q40 0 51.5 32.5t11.5 153.5v1193h421v-1082q0 -184 -12 -258.5t-71 -153t-155.5 -119t-227.5 -40.5q-145 0 -256 48t-166 125t-65 162.5t-10 359.5zM170 1670l257 282h282l241 -282h-271l-111 131l-118 -131h-280z " />
<glyph unicode="&#xdc;" horiz-adv-x="1120" d="M78 661v958h421v-1214q0 -106 11.5 -135.5t46.5 -29.5q40 0 51.5 32.5t11.5 153.5v1193h421v-1082q0 -184 -12 -258.5t-71 -153t-155.5 -119t-227.5 -40.5q-145 0 -256 48t-166 125t-65 162.5t-10 359.5zM211 1670v260h261v-260h-261zM648 1670v260h261v-260h-261z" />
<glyph unicode="&#xdd;" horiz-adv-x="969" d="M-12 1619h387q91 -473 102 -637q35 259 117 637h387l-307 -1033v-586h-390v586zM294 1670l176 271h356l-329 -271h-203z" />
<glyph unicode="&#xde;" horiz-adv-x="1028" d="M84 0v1619h421v-302q176 0 263.5 -25t140 -79.5t67.5 -123t15 -225.5v-140q0 -144 -28 -217t-111.5 -115t-233.5 -42h-113v-350h-421zM505 628h31q58 0 80.5 28.5t22.5 118.5v132q0 81 -26 107t-108 26v-412z" />
<glyph unicode="&#xdf;" horiz-adv-x="1127" d="M72 0v1081q0 235 26.5 333.5t135 168.5t301.5 70q239 0 371.5 -97t132.5 -270q0 -157 -137 -263q72 -33 115 -105t43 -286v-149q0 -148 -21 -224t-84 -141.5t-145 -91.5t-202 -26h-77v245h46q55 0 67 18t12 141v396q-1 69 -15 93t-64 31v246q22 0 42 12.5t20 81.5 q0 77 -20.5 115.5t-61.5 38.5q-47 0 -64 -34t-17 -135v-1249h-404z" />
<glyph unicode="&#xe0;" horiz-adv-x="1032" d="M54 296v109q0 149 47 203t233 126q199 78 213 105t14 110q0 104 -15.5 135.5t-51.5 31.5q-41 0 -51 -26.5t-10 -137.5v-139h-379v89q0 154 35.5 237.5t142.5 147.5t278 64q205 0 309 -72.5t125 -178t21 -434.5v-666h-393v118q-37 -71 -95.5 -106.5t-139.5 -35.5 q-106 0 -194.5 59.5t-88.5 260.5zM433 374q0 -103 13.5 -133t53.5 -30q38 0 49.5 23.5t11.5 123.5v273q-97 -71 -112.5 -119t-15.5 -138zM174 1687h356l176 -271h-203z" />
<glyph unicode="&#xe1;" horiz-adv-x="1032" d="M54 296v109q0 149 47 203t233 126q199 78 213 105t14 110q0 104 -15.5 135.5t-51.5 31.5q-41 0 -51 -26.5t-10 -137.5v-139h-379v89q0 154 35.5 237.5t142.5 147.5t278 64q205 0 309 -72.5t125 -178t21 -434.5v-666h-393v118q-37 -71 -95.5 -106.5t-139.5 -35.5 q-106 0 -194.5 59.5t-88.5 260.5zM433 374q0 -103 13.5 -133t53.5 -30q38 0 49.5 23.5t11.5 123.5v273q-97 -71 -112.5 -119t-15.5 -138zM325 1416l176 271h356l-329 -271h-203z" />
<glyph unicode="&#xe2;" horiz-adv-x="1032" d="M54 296v109q0 149 47 203t233 126q199 78 213 105t14 110q0 104 -15.5 135.5t-51.5 31.5q-41 0 -51 -26.5t-10 -137.5v-139h-379v89q0 154 35.5 237.5t142.5 147.5t278 64q205 0 309 -72.5t125 -178t21 -434.5v-666h-393v118q-37 -71 -95.5 -106.5t-139.5 -35.5 q-106 0 -194.5 59.5t-88.5 260.5zM433 374q0 -103 13.5 -133t53.5 -30q38 0 49.5 23.5t11.5 123.5v273q-97 -71 -112.5 -119t-15.5 -138zM126 1416l257 282h282l241 -282h-271l-111 131l-118 -131h-280z" />
<glyph unicode="&#xe3;" horiz-adv-x="1032" d="M54 296v109q0 149 47 203t233 126q199 78 213 105t14 110q0 104 -15.5 135.5t-51.5 31.5q-41 0 -51 -26.5t-10 -137.5v-139h-379v89q0 154 35.5 237.5t142.5 147.5t278 64q205 0 309 -72.5t125 -178t21 -434.5v-666h-393v118q-37 -71 -95.5 -106.5t-139.5 -35.5 q-106 0 -194.5 59.5t-88.5 260.5zM433 374q0 -103 13.5 -133t53.5 -30q38 0 49.5 23.5t11.5 123.5v273q-97 -71 -112.5 -119t-15.5 -138zM94 1521q110 194 248 194q72 0 157 -32l62 -23q78 -29 106 -29q83 0 110 90l161 -115q-46 -101 -113 -141t-118 -40q-71 0 -153 33 l-74 29q-71 29 -106 29q-74 0 -122 -100z" />
<glyph unicode="&#xe4;" horiz-adv-x="1032" d="M54 296v109q0 149 47 203t233 126q199 78 213 105t14 110q0 104 -15.5 135.5t-51.5 31.5q-41 0 -51 -26.5t-10 -137.5v-139h-379v89q0 154 35.5 237.5t142.5 147.5t278 64q205 0 309 -72.5t125 -178t21 -434.5v-666h-393v118q-37 -71 -95.5 -106.5t-139.5 -35.5 q-106 0 -194.5 59.5t-88.5 260.5zM433 374q0 -103 13.5 -133t53.5 -30q38 0 49.5 23.5t11.5 123.5v273q-97 -71 -112.5 -119t-15.5 -138zM167 1416v260h261v-260h-261zM604 1416v260h261v-260h-261z" />
<glyph unicode="&#xe5;" horiz-adv-x="1032" d="M54 296v109q0 149 47 203t233 126q199 78 213 105t14 110q0 104 -15.5 135.5t-51.5 31.5q-41 0 -51 -26.5t-10 -137.5v-139h-379v89q0 154 35.5 237.5t142.5 147.5t278 64q205 0 309 -72.5t125 -178t21 -434.5v-666h-393v118q-37 -71 -95.5 -106.5t-139.5 -35.5 q-106 0 -194.5 59.5t-88.5 260.5zM433 374q0 -103 13.5 -133t53.5 -30q38 0 49.5 23.5t11.5 123.5v273q-97 -71 -112.5 -119t-15.5 -138zM305 1626q0 87 62 149t149 62q84 0 147 -60.5t63 -150.5q0 -87 -62 -148.5t-148 -61.5q-88 0 -149.5 61.5t-61.5 148.5zM432 1622 q0 -34 24.5 -58t57.5 -24q34 0 58.5 24t24.5 58q0 35 -24.5 59t-58.5 24q-33 0 -57.5 -24t-24.5 -59z" />
<glyph unicode="&#xe6;" horiz-adv-x="1543" d="M54 361q0 140 20.5 191.5t84.5 92t221 95.5q83 28 112 47t40 47.5t11 122.5q0 89 -12 124t-45 35q-32 0 -41.5 -29t-9.5 -147v-127h-379v99q0 110 15.5 173t71 126.5t141 101.5t218.5 38q74 0 143 -18t132 -54q46 36 107 54t137 18q152 0 261.5 -66t154.5 -169t45 -305 v-171h-527v-268q0 -102 13 -131.5t55 -29.5q45 0 61 30t16 124v189h382v-134q0 -131 -39.5 -221t-143.5 -156.5t-255 -66.5q-140 0 -238 38t-155 114q-55 -76 -130 -114t-169 -38q-110 0 -181.5 45t-94 114t-22.5 226zM421 352q0 -77 15.5 -109t56.5 -32q29 0 43 20t14 59 l1 119v214q-77 -56 -103.5 -101.5t-26.5 -169.5zM955 856h123v120q0 93 -17 116.5t-44 23.5q-33 0 -47.5 -27t-14.5 -113v-120z" />
<glyph unicode="&#xe7;" horiz-adv-x="1013" d="M60 498v377q0 169 34 255t145 153.5t270 67.5q158 0 270 -67t149 -169t37 -289h-381v153q0 80 -13 108.5t-48 28.5t-47 -25t-12 -112v-626q0 -71 18 -106.5t53 -35.5q41 0 55.5 37t14.5 140v158h360q-1 -148 -9.5 -226.5t-59.5 -160.5t-133.5 -128t-216.5 -54v-29 q52 0 98 -35t46 -97q0 -76 -62 -131.5t-148 -55.5q-156 0 -199 158h148q14 -42 50 -42q30 0 44.5 15t14.5 45q0 33 -20.5 49.5t-62.5 16.5h-26v110q-151 18 -225.5 79.5t-109 155.5t-34.5 282z" />
<glyph unicode="&#xe8;" horiz-adv-x="1047" d="M60 482v387q0 174 47 274.5t154 154t246 53.5q170 0 280.5 -64.5t155 -171t44.5 -299.5v-176h-523v-287q0 -90 13 -116t50 -26q46 0 61.5 34.5t15.5 133.5v175h383v-98q0 -123 -15.5 -189t-72.5 -141t-144.5 -112.5t-219.5 -37.5q-128 0 -226 37t-152.5 101.5t-75.5 142 t-21 225.5zM464 856h118v97q0 103 -11 133t-45 30q-42 0 -52 -25.5t-10 -137.5v-97zM182 1687h356l176 -271h-203z" />
<glyph unicode="&#xe9;" horiz-adv-x="1047" d="M60 482v387q0 174 47 274.5t154 154t246 53.5q170 0 280.5 -64.5t155 -171t44.5 -299.5v-176h-523v-287q0 -90 13 -116t50 -26q46 0 61.5 34.5t15.5 133.5v175h383v-98q0 -123 -15.5 -189t-72.5 -141t-144.5 -112.5t-219.5 -37.5q-128 0 -226 37t-152.5 101.5t-75.5 142 t-21 225.5zM464 856h118v97q0 103 -11 133t-45 30q-42 0 -52 -25.5t-10 -137.5v-97zM333 1416l176 271h356l-329 -271h-203z" />
<glyph unicode="&#xea;" horiz-adv-x="1047" d="M60 482v387q0 174 47 274.5t154 154t246 53.5q170 0 280.5 -64.5t155 -171t44.5 -299.5v-176h-523v-287q0 -90 13 -116t50 -26q46 0 61.5 34.5t15.5 133.5v175h383v-98q0 -123 -15.5 -189t-72.5 -141t-144.5 -112.5t-219.5 -37.5q-128 0 -226 37t-152.5 101.5t-75.5 142 t-21 225.5zM464 856h118v97q0 103 -11 133t-45 30q-42 0 -52 -25.5t-10 -137.5v-97zM133 1416l257 282h282l241 -282h-271l-111 131l-118 -131h-280z" />
<glyph unicode="&#xeb;" horiz-adv-x="1047" d="M60 482v387q0 174 47 274.5t154 154t246 53.5q170 0 280.5 -64.5t155 -171t44.5 -299.5v-176h-523v-287q0 -90 13 -116t50 -26q46 0 61.5 34.5t15.5 133.5v175h383v-98q0 -123 -15.5 -189t-72.5 -141t-144.5 -112.5t-219.5 -37.5q-128 0 -226 37t-152.5 101.5t-75.5 142 t-21 225.5zM464 856h118v97q0 103 -11 133t-45 30q-42 0 -52 -25.5t-10 -137.5v-97zM174 1416v260h261v-260h-261zM611 1416v260h261v-260h-261z" />
<glyph unicode="&#xec;" horiz-adv-x="561" d="M72 0v1327h416v-1327h-416zM-58 1687h356l176 -271h-203z" />
<glyph unicode="&#xed;" horiz-adv-x="561" d="M72 0v1327h416v-1327h-416zM93 1416l176 271h356l-329 -271h-203z" />
<glyph unicode="&#xee;" horiz-adv-x="561" d="M72 0v1327h416v-1327h-416zM-106 1416l257 282h282l241 -282h-271l-111 131l-118 -131h-280z" />
<glyph unicode="&#xef;" horiz-adv-x="561" d="M72 0v1327h416v-1327h-416zM-65 1416v260h261v-260h-261zM372 1416v260h261v-260h-261z" />
<glyph unicode="&#xf0;" horiz-adv-x="1047" d="M60 494v292q0 175 34.5 270t122 165t198.5 70q98 0 168 -56q-19 107 -74 202l-192 -52l-30 91l167 46q-50 67 -84 97h245q27 -19 51 -40l161 40l30 -89l-114 -32q68 -79 129 -190t88 -224.5t27 -308.5v-302q0 -167 -43.5 -272t-152.5 -165t-275 -60q-167 0 -273.5 56.5 t-144.5 153t-38 308.5zM464 351q0 -83 14.5 -111.5t46.5 -28.5q31 0 44.5 27.5t13.5 123.5v545q0 99 -11.5 124t-47.5 25q-34 0 -47 -30t-13 -106v-569z" />
<glyph unicode="&#xf1;" horiz-adv-x="1071" d="M72 0v1327h411l-7 -122q44 73 107.5 109.5t146.5 36.5q104 0 170 -49t85 -123.5t19 -248.5v-930h-404v919q0 137 -9 167t-50 30q-43 0 -54 -34.5t-11 -184.5v-897h-404zM113 1521q110 194 248 194q72 0 157 -32l62 -23q78 -29 106 -29q83 0 110 90l161 -115 q-46 -101 -113 -141t-118 -40q-71 0 -153 33l-74 29q-71 29 -106 29q-74 0 -122 -100z" />
<glyph unicode="&#xf2;" horiz-adv-x="1047" d="M60 492v340q0 185 40 289t144 167t266 63q136 0 233.5 -40.5t150.5 -105.5t72.5 -134t19.5 -210v-325q0 -179 -18 -262.5t-77 -156t-151.5 -107t-212.5 -34.5q-134 0 -227 29.5t-144.5 89t-73.5 144t-22 253.5zM464 362q0 -94 12 -122.5t47 -28.5q36 0 47.5 26t11.5 112 v612q0 102 -11 128.5t-47 26.5t-48 -26.5t-12 -128.5v-599zM182 1687h356l176 -271h-203z" />
<glyph unicode="&#xf3;" horiz-adv-x="1047" d="M60 492v340q0 185 40 289t144 167t266 63q136 0 233.5 -40.5t150.5 -105.5t72.5 -134t19.5 -210v-325q0 -179 -18 -262.5t-77 -156t-151.5 -107t-212.5 -34.5q-134 0 -227 29.5t-144.5 89t-73.5 144t-22 253.5zM464 362q0 -94 12 -122.5t47 -28.5q36 0 47.5 26t11.5 112 v612q0 102 -11 128.5t-47 26.5t-48 -26.5t-12 -128.5v-599zM333 1416l176 271h356l-329 -271h-203z" />
<glyph unicode="&#xf4;" horiz-adv-x="1047" d="M60 492v340q0 185 40 289t144 167t266 63q136 0 233.5 -40.5t150.5 -105.5t72.5 -134t19.5 -210v-325q0 -179 -18 -262.5t-77 -156t-151.5 -107t-212.5 -34.5q-134 0 -227 29.5t-144.5 89t-73.5 144t-22 253.5zM464 362q0 -94 12 -122.5t47 -28.5q36 0 47.5 26t11.5 112 v612q0 102 -11 128.5t-47 26.5t-48 -26.5t-12 -128.5v-599zM133 1416l257 282h282l241 -282h-271l-111 131l-118 -131h-280z" />
<glyph unicode="&#xf5;" horiz-adv-x="1047" d="M60 492v340q0 185 40 289t144 167t266 63q136 0 233.5 -40.5t150.5 -105.5t72.5 -134t19.5 -210v-325q0 -179 -18 -262.5t-77 -156t-151.5 -107t-212.5 -34.5q-134 0 -227 29.5t-144.5 89t-73.5 144t-22 253.5zM464 362q0 -94 12 -122.5t47 -28.5q36 0 47.5 26t11.5 112 v612q0 102 -11 128.5t-47 26.5t-48 -26.5t-12 -128.5v-599zM101 1521q110 194 248 194q72 0 157 -32l62 -23q78 -29 106 -29q83 0 110 90l161 -115q-46 -101 -113 -141t-118 -40q-71 0 -153 33l-74 29q-71 29 -106 29q-74 0 -122 -100z" />
<glyph unicode="&#xf6;" horiz-adv-x="1047" d="M60 492v340q0 185 40 289t144 167t266 63q136 0 233.5 -40.5t150.5 -105.5t72.5 -134t19.5 -210v-325q0 -179 -18 -262.5t-77 -156t-151.5 -107t-212.5 -34.5q-134 0 -227 29.5t-144.5 89t-73.5 144t-22 253.5zM464 362q0 -94 12 -122.5t47 -28.5q36 0 47.5 26t11.5 112 v612q0 102 -11 128.5t-47 26.5t-48 -26.5t-12 -128.5v-599zM174 1416v260h261v-260h-261zM611 1416v260h261v-260h-261z" />
<glyph unicode="&#xf7;" horiz-adv-x="1092" d="M64 691v236h964v-236h-964zM404 476q0 63 42 103t98 40q57 0 98.5 -40.5t41.5 -99.5q0 -57 -41 -98t-99 -41q-59 0 -99.5 42t-40.5 94zM404 1144q0 59 41.5 99t97.5 40q57 0 98 -41t41 -97q0 -57 -41 -98t-98 -41q-59 0 -99 42t-40 96z" />
<glyph unicode="&#xf8;" horiz-adv-x="1047" d="M60 492v340q0 185 40 289t144 167t266 63q105 0 189 -25t146 -75l41 62l78 -51l-52 -81q39 -53 56.5 -115.5t17.5 -204.5v-325q0 -179 -18 -262.5t-77 -156t-151 -107t-213 -34.5q-114 0 -198 21.5t-137 63.5l-31 -47l-79 51l45 69q-34 56 -50.5 126t-16.5 232zM464 362 q0 -94 12 -122.5t47 -28.5q36 0 47.5 26t11.5 112v313l-118 -181v-119zM464 655l118 180v126q0 102 -11 128.5t-47 26.5t-48 -26.5t-12 -128.5v-306z" />
<glyph unicode="&#xf9;" horiz-adv-x="1070" d="M66 432v895h404v-903q0 -155 9.5 -184t51.5 -29q45 0 53.5 30t8.5 193v893h404v-1327h-411l7 110q-42 -67 -103.5 -100.5t-141.5 -33.5q-91 0 -151 32t-88.5 85t-35.5 110.5t-7 228.5zM193 1687h356l176 -271h-203z" />
<glyph unicode="&#xfa;" horiz-adv-x="1070" d="M66 432v895h404v-903q0 -155 9.5 -184t51.5 -29q45 0 53.5 30t8.5 193v893h404v-1327h-411l7 110q-42 -67 -103.5 -100.5t-141.5 -33.5q-91 0 -151 32t-88.5 85t-35.5 110.5t-7 228.5zM344 1416l176 271h356l-329 -271h-203z" />
<glyph unicode="&#xfb;" horiz-adv-x="1070" d="M66 432v895h404v-903q0 -155 9.5 -184t51.5 -29q45 0 53.5 30t8.5 193v893h404v-1327h-411l7 110q-42 -67 -103.5 -100.5t-141.5 -33.5q-91 0 -151 32t-88.5 85t-35.5 110.5t-7 228.5zM145 1416l257 282h282l241 -282h-271l-111 131l-118 -131h-280z" />
<glyph unicode="&#xfc;" horiz-adv-x="1070" d="M66 432v895h404v-903q0 -155 9.5 -184t51.5 -29q45 0 53.5 30t8.5 193v893h404v-1327h-411l7 110q-42 -67 -103.5 -100.5t-141.5 -33.5q-91 0 -151 32t-88.5 85t-35.5 110.5t-7 228.5zM186 1416v260h261v-260h-261zM623 1416v260h261v-260h-261z" />
<glyph unicode="&#xfd;" horiz-adv-x="918" d="M-12 1327h367l132 -895l64 895h367l-116 -960q-27 -228 -45.5 -311t-61.5 -137t-119.5 -79.5t-244.5 -25.5h-245v212q94 0 121 9.5t27 42.5q0 16 -25 139zM282 1416l176 271h356l-329 -271h-203z" />
<glyph unicode="&#xfe;" horiz-adv-x="1063" d="M72 -189v1808h404v-409q107 141 261 141q94 0 162.5 -50.5t85.5 -116.5t17 -224v-559q0 -181 -21.5 -257.5t-88 -122t-160.5 -45.5q-150 0 -256 139v-304h-404zM476 391q0 -120 12 -150t52 -30q39 0 48.5 27.5t9.5 133.5v569q0 123 -9 149t-50 26q-40 0 -51.5 -30 t-11.5 -145v-550z" />
<glyph unicode="&#xff;" horiz-adv-x="918" d="M-12 1327h367l132 -895l64 895h367l-116 -960q-27 -228 -45.5 -311t-61.5 -137t-119.5 -79.5t-244.5 -25.5h-245v212q94 0 121 9.5t27 42.5q0 16 -25 139zM124 1416v260h261v-260h-261zM561 1416v260h261v-260h-261z" />
<glyph unicode="&#x100;" horiz-adv-x="1040" d="M-12 0l214 1619h609l241 -1619h-431l-21 291h-151l-25 -291h-436zM444 578h144q-32 275 -64 679q-64 -464 -80 -679zM109 1670v173h796v-173h-796z" />
<glyph unicode="&#x101;" horiz-adv-x="1032" d="M54 296v109q0 149 47 203t233 126q199 78 213 105t14 110q0 104 -15.5 135.5t-51.5 31.5q-41 0 -51 -26.5t-10 -137.5v-139h-379v89q0 154 35.5 237.5t142.5 147.5t278 64q205 0 309 -72.5t125 -178t21 -434.5v-666h-393v118q-37 -71 -95.5 -106.5t-139.5 -35.5 q-106 0 -194.5 59.5t-88.5 260.5zM433 374q0 -103 13.5 -133t53.5 -30q38 0 49.5 23.5t11.5 123.5v273q-97 -71 -112.5 -119t-15.5 -138zM131 1416v173h796v-173h-796z" />
<glyph unicode="&#x102;" horiz-adv-x="1040" d="M-12 0l214 1619h609l241 -1619h-431l-21 291h-151l-25 -291h-436zM444 578h144q-32 275 -64 679q-64 -464 -80 -679zM223 1972h170q12 -137 113 -137q102 0 114 137h170q-6 -136 -79.5 -219t-204.5 -83q-132 0 -204.5 83.5t-78.5 218.5z" />
<glyph unicode="&#x103;" horiz-adv-x="1032" d="M54 296v109q0 149 47 203t233 126q199 78 213 105t14 110q0 104 -15.5 135.5t-51.5 31.5q-41 0 -51 -26.5t-10 -137.5v-139h-379v89q0 154 35.5 237.5t142.5 147.5t278 64q205 0 309 -72.5t125 -178t21 -434.5v-666h-393v118q-37 -71 -95.5 -106.5t-139.5 -35.5 q-106 0 -194.5 59.5t-88.5 260.5zM433 374q0 -103 13.5 -133t53.5 -30q38 0 49.5 23.5t11.5 123.5v273q-97 -71 -112.5 -119t-15.5 -138zM221 1718h170q12 -137 113 -137q102 0 114 137h170q-6 -136 -79.5 -219t-204.5 -83q-132 0 -204.5 83.5t-78.5 218.5z" />
<glyph unicode="&#x104;" horiz-adv-x="1040" d="M-12 0l215 1620h608l242 -1620h-174q-86 -85 -86 -135q0 -64 71 -64q50 0 115 27l41 -100q-96 -45 -174 -45q-91 0 -145 43t-54 112q0 83 84 162h-110l-21 291h-151l-25 -291h-436zM444 580h144q-41 362 -64 677q-53 -391 -80 -677z" />
<glyph unicode="&#x105;" horiz-adv-x="1032" d="M55 297v109q0 143 40 196t186 111q193 76 237.5 101t44.5 134q0 87 -13.5 127.5t-49.5 40.5q-32 0 -49 -17.5t-17 -86.5v-199h-379v88q0 128 22.5 204.5t89.5 132.5t134.5 67.5t210.5 11.5q129 0 215 -16.5t136 -58t73 -117.5t27 -162t4 -297v-666h-129q-86 -85 -86 -135 q0 -64 71 -64q50 0 115 27l41 -100q-96 -45 -174 -45q-91 0 -145 43t-54 112q0 83 84 162h-117v119q-35 -65 -86.5 -93t-148.5 -28q-150 0 -216.5 62.5t-66.5 236.5zM434 350q0 -88 17.5 -113.5t50.5 -25.5q61 0 61 82v338q-83 -63 -106 -106t-23 -175z" />
<glyph unicode="&#x106;" horiz-adv-x="1134" d="M72 575v473q0 175 12 262.5t71.5 168.5t165 127.5t242.5 46.5q186 0 307 -72t159 -179.5t38 -334.5v-154h-421v282q0 123 -13.5 153.5t-59.5 30.5q-52 0 -66 -37t-14 -160v-752q0 -118 14 -154t63 -36q47 0 61.5 36t14.5 169v203h421v-63q0 -251 -35.5 -356t-157 -184 t-299.5 -79q-185 0 -305 67t-159 185.5t-39 356.5zM379 1670l176 271h356l-329 -271h-203z" />
<glyph unicode="&#x107;" horiz-adv-x="1013" d="M60 498v377q0 169 34 255t145 153.5t270 67.5q158 0 270 -67t149 -169t37 -289h-381v153q0 80 -13 108.5t-48 28.5t-47 -25t-12 -112v-626q0 -71 18 -106.5t53 -35.5q41 0 55.5 37t14.5 140v158h360q-1 -159 -11.5 -238.5t-67 -163t-147.5 -126t-225 -42.5 q-171 0 -271 58.5t-141.5 164t-41.5 299.5zM319 1416l176 271h356l-329 -271h-203z" />
<glyph unicode="&#x108;" horiz-adv-x="1134" d="M72 575v473q0 175 12 262.5t71.5 168.5t165 127.5t242.5 46.5q186 0 307 -72t159 -179.5t38 -334.5v-154h-421v282q0 123 -13.5 153.5t-59.5 30.5q-52 0 -66 -37t-14 -160v-752q0 -118 14 -154t63 -36q47 0 61.5 36t14.5 169v203h421v-63q0 -251 -35.5 -356t-157 -184 t-299.5 -79q-185 0 -305 67t-159 185.5t-39 356.5zM166 1670l257 282h282l241 -282h-271l-111 131l-118 -131h-280z" />
<glyph unicode="&#x109;" horiz-adv-x="1013" d="M60 498v377q0 169 34 255t145 153.5t270 67.5q158 0 270 -67t149 -169t37 -289h-381v153q0 80 -13 108.5t-48 28.5t-47 -25t-12 -112v-626q0 -71 18 -106.5t53 -35.5q41 0 55.5 37t14.5 140v158h360q-1 -159 -11.5 -238.5t-67 -163t-147.5 -126t-225 -42.5 q-171 0 -271 58.5t-141.5 164t-41.5 299.5zM106 1416l257 282h282l241 -282h-271l-111 131l-118 -131h-280z" />
<glyph unicode="&#x10a;" horiz-adv-x="1134" d="M72 575v473q0 175 12 262.5t71.5 168.5t165 127.5t242.5 46.5q186 0 307 -72t159 -179.5t38 -334.5v-154h-421v282q0 123 -13.5 153.5t-59.5 30.5q-52 0 -66 -37t-14 -160v-752q0 -118 14 -154t63 -36q47 0 61.5 36t14.5 169v203h421v-63q0 -251 -35.5 -356t-157 -184 t-299.5 -79q-185 0 -305 67t-159 185.5t-39 356.5zM420 1670v260h261v-260h-261z" />
<glyph unicode="&#x10b;" horiz-adv-x="1013" d="M60 498v377q0 169 34 255t145 153.5t270 67.5q158 0 270 -67t149 -169t37 -289h-381v153q0 80 -13 108.5t-48 28.5t-47 -25t-12 -112v-626q0 -71 18 -106.5t53 -35.5q41 0 55.5 37t14.5 140v158h360q-1 -159 -11.5 -238.5t-67 -163t-147.5 -126t-225 -42.5 q-171 0 -271 58.5t-141.5 164t-41.5 299.5zM371 1416v260h261v-260h-261z" />
<glyph unicode="&#x10c;" horiz-adv-x="1134" d="M72 575v473q0 175 12 262.5t71.5 168.5t165 127.5t242.5 46.5q186 0 307 -72t159 -179.5t38 -334.5v-154h-421v282q0 123 -13.5 153.5t-59.5 30.5q-52 0 -66 -37t-14 -160v-752q0 -118 14 -154t63 -36q47 0 61.5 36t14.5 169v203h421v-63q0 -251 -35.5 -356t-157 -184 t-299.5 -79q-185 0 -305 67t-159 185.5t-39 356.5zM180 1952h280l118 -131l111 131h271l-241 -282h-282z" />
<glyph unicode="&#x10d;" horiz-adv-x="1013" d="M60 498v377q0 169 34 255t145 153.5t270 67.5q158 0 270 -67t149 -169t37 -289h-381v153q0 80 -13 108.5t-48 28.5t-47 -25t-12 -112v-626q0 -71 18 -106.5t53 -35.5q41 0 55.5 37t14.5 140v158h360q-1 -159 -11.5 -238.5t-67 -163t-147.5 -126t-225 -42.5 q-171 0 -271 58.5t-141.5 164t-41.5 299.5zM120 1698h280l118 -131l111 131h271l-241 -282h-282z" />
<glyph unicode="&#x10e;" horiz-adv-x="1132" d="M84 0v1619h315q305 0 412.5 -28t163.5 -92t70 -142.5t14 -308.5v-567q0 -218 -20.5 -291.5t-71.5 -115t-126 -58t-226 -16.5h-531zM505 277q91 0 112 36.5t21 198.5v629q0 110 -7 141t-32 45.5t-94 14.5v-1065zM155 1952h280l118 -131l111 131h271l-241 -282h-282z" />
<glyph unicode="&#x10f;" horiz-adv-x="1352" d="M60 352v621q0 153 19.5 217t89.5 112.5t167 48.5q75 0 137.5 -27t113.5 -81v376h404v-1619h-404v96q-58 -60 -122 -90t-134 -30q-94 0 -163 49.5t-88.5 114.5t-19.5 212zM464 343q0 -81 12 -106.5t46 -25.5q39 0 52 28.5t13 139.5v614q0 73 -12.5 98t-49.5 25 q-36 0 -48.5 -22.5t-12.5 -100.5v-650zM1080 1156v117q58 35 67 90h-67v256h272v-84q0 -322 -272 -379z" />
<glyph unicode="&#x111;" horiz-adv-x="1064" d="M60 352v621q0 153 19.5 217t89.5 112.5t167 48.5q149 0 251 -108v156h-251v172h251v48h404v-48h70v-172h-70v-1399h-404v96q-117 -120 -256 -120q-94 0 -163 49.5t-88.5 114.5t-19.5 212zM464 343q0 -81 12 -106.5t46 -25.5q39 0 52 28.5t13 139.5v614q0 73 -12.5 98 t-49.5 25q-36 0 -48.5 -22.5t-12.5 -100.5v-650z" />
<glyph unicode="&#x112;" horiz-adv-x="851" d="M84 0v1619h702v-324h-281v-307h263v-308h-263v-356h309v-324h-730zM43 1670v173h796v-173h-796z" />
<glyph unicode="&#x113;" horiz-adv-x="1047" d="M60 482v387q0 174 47 274.5t154 154t246 53.5q170 0 280.5 -64.5t155 -171t44.5 -299.5v-176h-523v-287q0 -90 13 -116t50 -26q46 0 61.5 34.5t15.5 133.5v175h383v-98q0 -123 -15.5 -189t-72.5 -141t-144.5 -112.5t-219.5 -37.5q-128 0 -226 37t-152.5 101.5t-75.5 142 t-21 225.5zM464 856h118v97q0 103 -11 133t-45 30q-42 0 -52 -25.5t-10 -137.5v-97zM127 1416v173h796v-173h-796z" />
<glyph unicode="&#x114;" horiz-adv-x="851" d="M84 0v1619h702v-324h-281v-307h263v-308h-263v-356h309v-324h-730zM164 1972h170q12 -137 113 -137q102 0 114 137h170q-6 -136 -79.5 -219t-204.5 -83q-132 0 -204.5 83.5t-78.5 218.5z" />
<glyph unicode="&#x115;" horiz-adv-x="1047" d="M60 482v387q0 174 47 274.5t154 154t246 53.5q170 0 280.5 -64.5t155 -171t44.5 -299.5v-176h-523v-287q0 -90 13 -116t50 -26q46 0 61.5 34.5t15.5 133.5v175h383v-98q0 -123 -15.5 -189t-72.5 -141t-144.5 -112.5t-219.5 -37.5q-128 0 -226 37t-152.5 101.5t-75.5 142 t-21 225.5zM464 856h118v97q0 103 -11 133t-45 30q-42 0 -52 -25.5t-10 -137.5v-97zM225 1718h170q12 -137 113 -137q102 0 114 137h170q-6 -136 -79.5 -219t-204.5 -83q-132 0 -204.5 83.5t-78.5 218.5z" />
<glyph unicode="&#x116;" horiz-adv-x="851" d="M84 0v1619h702v-324h-281v-307h263v-308h-263v-356h309v-324h-730zM322 1670v260h261v-260h-261z" />
<glyph unicode="&#x117;" horiz-adv-x="1047" d="M60 482v387q0 174 47 274.5t154 154t246 53.5q170 0 280.5 -64.5t155 -171t44.5 -299.5v-176h-523v-287q0 -90 13 -116t50 -26q46 0 61.5 34.5t15.5 133.5v175h383v-98q0 -123 -15.5 -189t-72.5 -141t-144.5 -112.5t-219.5 -37.5q-128 0 -226 37t-152.5 101.5t-75.5 142 t-21 225.5zM464 856h118v97q0 103 -11 133t-45 30q-42 0 -52 -25.5t-10 -137.5v-97zM371 1416v260h261v-260h-261z" />
<glyph unicode="&#x118;" horiz-adv-x="850" d="M84 0v1620h702v-324h-280v-309h262v-307h-262v-356h307v-324h-94q-86 -85 -86 -135q0 -64 72 -64q49 0 114 27l41 -100q-96 -45 -174 -45q-91 0 -145 43t-54 112q0 83 84 162h-487z" />
<glyph unicode="&#x119;" horiz-adv-x="1047" d="M59 481v387q0 108 17 190t70.5 145.5t144.5 93.5t215 30q188 0 298.5 -59.5t145.5 -168.5t35 -284v-176h-522v-287q0 -95 16 -118t47 -23q41 0 59.5 30.5t18.5 108.5v205h381v-98q0 -110 -12.5 -177t-63 -138t-121.5 -103.5t-174 -38.5q-86 -82 -86 -135q0 -64 72 -64 q50 0 115 27l41 -100q-96 -45 -174 -45q-91 0 -145 43t-54 112q0 83 84 162q-118 8 -203 45.5t-133 105.5t-60 141t-12 189zM463 856h119v96q0 94 -9.5 128t-48.5 34q-31 0 -46 -19t-15 -77v-162z" />
<glyph unicode="&#x11a;" horiz-adv-x="851" d="M84 0v1619h702v-324h-281v-307h263v-308h-263v-356h309v-324h-730zM49 1952h280l118 -131l111 131h271l-241 -282h-282z" />
<glyph unicode="&#x11b;" horiz-adv-x="1047" d="M60 482v387q0 174 47 274.5t154 154t246 53.5q170 0 280.5 -64.5t155 -171t44.5 -299.5v-176h-523v-287q0 -90 13 -116t50 -26q46 0 61.5 34.5t15.5 133.5v175h383v-98q0 -123 -15.5 -189t-72.5 -141t-144.5 -112.5t-219.5 -37.5q-128 0 -226 37t-152.5 101.5t-75.5 142 t-21 225.5zM464 856h118v97q0 103 -11 133t-45 30q-42 0 -52 -25.5t-10 -137.5v-97zM111 1698h280l118 -131l111 131h271l-241 -282h-282z" />
<glyph unicode="&#x11c;" horiz-adv-x="1129" d="M72 553v481q0 232 25 337t143.5 192.5t306.5 87.5q185 0 307 -76t159 -180.5t37 -303.5v-70h-421v147q0 139 -12 174t-57 35q-39 0 -53 -30t-14 -154v-777q0 -109 14 -143.5t56 -34.5q46 0 62.5 39t16.5 152v192h-85v246h493v-869h-265l-39 116q-43 -75 -108.5 -112.5 t-154.5 -37.5q-106 0 -198.5 51.5t-140.5 127.5t-60 159.5t-12 250.5zM170 1670l257 282h282l241 -282h-271l-111 131l-118 -131h-280z" />
<glyph unicode="&#x11d;" horiz-adv-x="1062" d="M60 94h392q0 -88 64 -88q46 0 61 27t15 113v100q-52 -47 -109.5 -71t-120.5 -24q-109 0 -179.5 44t-96.5 115.5t-26 203.5v482q0 189 68 272t207 83q76 0 138.5 -31t111.5 -93l29 100h376v-1022q0 -207 -9.5 -267.5t-67.5 -128t-161.5 -103t-260.5 -35.5 q-193 0 -310 65.5t-121 257.5zM464 529q0 -89 11 -115.5t46 -26.5q40 0 52 32t12 145v411q0 91 -10.5 116t-46.5 25q-35 0 -49.5 -28.5t-14.5 -112.5v-446zM156 1416l257 282h282l241 -282h-271l-111 131l-118 -131h-280z" />
<glyph unicode="&#x11e;" horiz-adv-x="1129" d="M72 555v481q0 232 25 337t143.5 192.5t306.5 87.5q185 0 307 -76t159 -180.5t37 -303.5v-70h-421v147q0 139 -12 174t-57 35q-39 0 -53 -30t-14 -154v-777q0 -109 14 -143.5t56 -34.5q46 0 62.5 39t16.5 152v192h-85v246h493v-869h-265l-39 116q-43 -75 -108.5 -112.5 t-154.5 -37.5q-106 0 -198.5 51.5t-140.5 127.5t-60 159.5t-12 250.5zM281 1972h170q12 -137 113 -137q102 0 114 137h170q-6 -136 -79.5 -219t-204.5 -83q-132 0 -204.5 83.5t-78.5 218.5z" />
<glyph unicode="&#x11f;" horiz-adv-x="1062" d="M60 94h392q0 -88 64 -88q46 0 61 27t15 113v100q-52 -47 -109.5 -71t-120.5 -24q-109 0 -179.5 44t-96.5 115.5t-26 203.5v482q0 189 68 272t207 83q76 0 138.5 -31t111.5 -93l29 100h376v-1022q0 -207 -9.5 -267.5t-67.5 -128t-161.5 -103t-260.5 -35.5 q-193 0 -310 65.5t-121 257.5zM464 529q0 -89 11 -115.5t46 -26.5q40 0 52 32t12 145v411q0 91 -10.5 116t-46.5 25q-35 0 -49.5 -28.5t-14.5 -112.5v-446zM247 1718h170q12 -137 113 -137q102 0 114 137h170q-6 -136 -79.5 -219t-204.5 -83q-132 0 -204.5 83.5t-78.5 218.5 z" />
<glyph unicode="&#x120;" horiz-adv-x="1129" d="M72 553v481q0 232 25 337t143.5 192.5t306.5 87.5q185 0 307 -76t159 -180.5t37 -303.5v-70h-421v147q0 139 -12 174t-57 35q-39 0 -53 -30t-14 -154v-777q0 -109 14 -143.5t56 -34.5q46 0 62.5 39t16.5 152v192h-85v246h493v-869h-265l-39 116q-43 -75 -108.5 -112.5 t-154.5 -37.5q-106 0 -198.5 51.5t-140.5 127.5t-60 159.5t-12 250.5zM434 1670v260h261v-260h-261z" />
<glyph unicode="&#x121;" horiz-adv-x="1062" d="M60 94h392q0 -88 64 -88q46 0 61 27t15 113v100q-52 -47 -109.5 -71t-120.5 -24q-109 0 -179.5 44t-96.5 115.5t-26 203.5v482q0 189 68 272t207 83q76 0 138.5 -31t111.5 -93l29 100h376v-1022q0 -207 -9.5 -267.5t-67.5 -128t-161.5 -103t-260.5 -35.5 q-193 0 -310 65.5t-121 257.5zM464 529q0 -89 11 -115.5t46 -26.5q40 0 52 32t12 145v411q0 91 -10.5 116t-46.5 25q-35 0 -49.5 -28.5t-14.5 -112.5v-446zM422 1416v260h261v-260h-261z" />
<glyph unicode="&#x122;" horiz-adv-x="1129" d="M72 555v481q0 232 25 337t143.5 192.5t306.5 87.5q185 0 307 -76t159 -180.5t37 -303.5v-70h-421v147q0 139 -12 174t-57 35q-39 0 -53 -30t-14 -154v-777q0 -109 14 -143.5t56 -34.5q46 0 62.5 39t16.5 152v192h-85v246h493v-869h-265l-39 116q-43 -75 -108.5 -112.5 t-154.5 -37.5q-106 0 -198.5 51.5t-140.5 127.5t-60 159.5t-12 250.5zM428 -80h272v-84q0 -322 -272 -379v117q58 35 67 90h-67v256z" />
<glyph unicode="&#x123;" horiz-adv-x="1062" d="M60 94h392q0 -88 64 -88q46 0 61 27t15 113v100q-52 -47 -109.5 -71t-120.5 -24q-109 0 -179.5 44t-96.5 115.5t-26 203.5v482q0 189 68 272t207 83q76 0 138.5 -31t111.5 -93l29 100h376v-1022q0 -207 -9.5 -267.5t-67.5 -128t-161.5 -103t-260.5 -35.5 q-193 0 -310 65.5t-121 257.5zM464 529q0 -89 11 -115.5t46 -26.5q40 0 52 32t12 145v411q0 91 -10.5 116t-46.5 25q-35 0 -49.5 -28.5t-14.5 -112.5v-446zM402 1416v145q0 114 27.5 187t94 124t149.5 68v-116q-59 -34 -67 -91h67v-317h-271z" />
<glyph unicode="&#x124;" horiz-adv-x="1137" d="M84 0v1619h421v-579h126v579h421v-1619h-421v680h-126v-680h-421zM172 1670l257 282h282l241 -282h-271l-111 131l-118 -131h-280z" />
<glyph unicode="&#x125;" horiz-adv-x="1073" d="M72 0v1619h404v-364q52 48 112.5 72t129.5 24q106 0 180.5 -54t91 -124.5t16.5 -257.5v-915h-404v934q0 116 -11.5 149t-51.5 33q-37 0 -50 -34t-13 -135v-947h-404zM152 1670l257 282h282l241 -282h-271l-111 131l-118 -131h-280z" />
<glyph unicode="&#x126;" horiz-adv-x="1137" d="M14 1231v172h70v217h422v-217h125v217h422v-217h67v-172h-67v-1231h-422v680h-125v-680h-422v1231h-70zM506 1040h125v191h-125v-191z" />
<glyph unicode="&#x127;" horiz-adv-x="1073" d="M0 1386v173h72v61h403v-61h94v-173h-94v-131q76 72 242 72q115 0 186 -41t87 -119t16 -252v-915h-404v934q0 106 -10 143t-53 37q-36 0 -50 -33t-14 -133v-948h-403v1386h-72z" />
<glyph unicode="&#x128;" horiz-adv-x="590" d="M84 0v1619h421v-1619h-421zM-125 1775q110 194 248 194q72 0 157 -32l62 -23q78 -29 106 -29q83 0 110 90l161 -115q-46 -101 -113 -141t-118 -40q-71 0 -153 33l-74 29q-71 29 -106 29q-74 0 -122 -100z" />
<glyph unicode="&#x129;" horiz-adv-x="561" d="M72 0v1327h416v-1327h-416zM-141 1521q110 194 248 194q72 0 157 -32l62 -23q78 -29 106 -29q83 0 110 90l161 -115q-46 -101 -113 -141t-118 -40q-71 0 -153 33l-74 29q-71 29 -106 29q-74 0 -122 -100z" />
<glyph unicode="&#x12a;" horiz-adv-x="590" d="M84 0v1619h421v-1619h-421zM-102 1670v173h796v-173h-796z" />
<glyph unicode="&#x12b;" horiz-adv-x="561" d="M72 0v1327h416v-1327h-416zM-117 1416v173h796v-173h-796z" />
<glyph unicode="&#x12c;" horiz-adv-x="590" d="M84 0v1619h421v-1619h-421zM6 1972h170q12 -137 113 -137q102 0 114 137h170q-6 -136 -79.5 -219t-204.5 -83q-132 0 -204.5 83.5t-78.5 218.5z" />
<glyph unicode="&#x12d;" horiz-adv-x="561" d="M72 0v1327h416v-1327h-416zM-2 1718h170q12 -137 113 -137q102 0 114 137h170q-6 -136 -79.5 -219t-204.5 -83q-132 0 -204.5 83.5t-78.5 218.5z" />
<glyph unicode="&#x12e;" horiz-adv-x="590" d="M84 0v1620h422v-1620h-119q-86 -85 -86 -135q0 -64 72 -64q50 0 114 27l41 -100q-96 -45 -174 -45q-91 0 -144.5 43t-53.5 112q0 83 84 162h-156z" />
<glyph unicode="&#x12f;" horiz-adv-x="561" d="M72 0v1327h415v-1327h-120q-86 -85 -86 -135q0 -64 71 -64q50 0 115 27l41 -100q-96 -45 -174 -45q-91 0 -145 43t-54 112q0 83 84 162h-147z" />
<glyph unicode="&#x130;" horiz-adv-x="590" d="M84 0v1619h421v-1619h-421zM164 1670v260h261v-260h-261z" />
<glyph unicode="&#x131;" horiz-adv-x="561" d="M72 0v1327h416v-1327h-416z" />
<glyph unicode="&#x132;" horiz-adv-x="1282" d="M84 0v1620h422v-1620h-422zM616 0v283l56 -2q54 0 79 29t25 102v1208h422v-1260q0 -222 -73.5 -291t-297.5 -69h-211z" />
<glyph unicode="&#x133;" horiz-adv-x="1133" d="M72 0v1327h415v-1327h-415zM72 1411v209h415v-209h-415zM555 27q56 0 69.5 5t17 28t3.5 96v1171h416v-1175q0 -198 -78.5 -268t-271.5 -70h-156v213zM645 1411v209h416v-209h-416z" />
<glyph unicode="&#x134;" horiz-adv-x="678" d="M18 0v283q38 -3 55 -3q45 0 71 22t30 54t4 124v1139h421v-1082q0 -243 -5 -312.5t-45.5 -125.5t-110 -77.5t-209.5 -21.5h-211zM-16 1670l257 282h282l241 -282h-271l-111 131l-118 -131h-280z" />
<glyph unicode="&#x135;" horiz-adv-x="573" d="M-111 1501l258 283h281l242 -283h-273l-110 131l-117 -131h-281zM-6 27q56 0 69.5 5t17 28t3.5 96v1171h416v-1175q0 -198 -78.5 -268t-271.5 -70h-156v213z" />
<glyph unicode="&#x136;" horiz-adv-x="1099" d="M84 0v1619h421v-629l187 629h395l-241 -731l264 -888h-435l-170 694v-694h-421zM459 -80h272v-84q0 -322 -272 -379v117q58 35 67 90h-67v256z" />
<glyph unicode="&#x137;" horiz-adv-x="979" d="M72 0v1619h404v-680l126 388h340l-164 -529l213 -798h-389l-126 578v-578h-404zM397 -80h272v-84q0 -322 -272 -379v117q58 35 67 90h-67v256z" />
<glyph unicode="&#x138;" horiz-adv-x="1059" d="M72 0v1327h403v-510l217 510h350l-249 -579l270 -748h-393l-195 586v-586h-403z" />
<glyph unicode="&#x139;" horiz-adv-x="779" d="M84 0v1619h421v-1295h256v-324h-677zM160 1670l176 271h356l-329 -271h-203z" />
<glyph unicode="&#x13a;" horiz-adv-x="561" d="M72 0v1619h416v-1619h-416zM94 1670l176 271h356l-329 -271h-203z" />
<glyph unicode="&#x13b;" horiz-adv-x="779" d="M84 0v1619h421v-1295h256v-324h-677zM317 -80h272v-84q0 -322 -272 -379v117q58 35 67 90h-67v256z" />
<glyph unicode="&#x13c;" horiz-adv-x="561" d="M72 0v1619h416v-1619h-416zM144 -80h272v-84q0 -322 -272 -379v117q58 35 67 90h-67v256z" />
<glyph unicode="&#x13d;" horiz-adv-x="885" d="M84 0v1619h421v-1295h256v-324h-677zM596 1157v117q58 35 67 90h-67v256h272v-84q0 -322 -272 -379z" />
<glyph unicode="&#x13e;" horiz-adv-x="879" d="M72 0v1619h416v-1619h-416zM586 1157v117q58 35 67 90h-67v256h272v-84q0 -322 -272 -379z" />
<glyph unicode="&#x13f;" horiz-adv-x="872" d="M84 0v1619h421v-1295h256v-324h-677zM574 968v260h261v-260h-261z" />
<glyph unicode="&#x140;" horiz-adv-x="872" d="M72 0v1619h416v-1619h-416zM574 968v260h261v-260h-261z" />
<glyph unicode="&#x141;" horiz-adv-x="785" d="M14 725v172l82 19v703h421v-608l244 55v-172l-244 -55v-515h256v-324h-677v744z" />
<glyph unicode="&#x142;" horiz-adv-x="585" d="M14 725v172l70 21v701h416v-574l70 21v-172l-70 -21v-873h-416v747z" />
<glyph unicode="&#x143;" horiz-adv-x="1109" d="M84 0v1619h352l236 -729v729h352v-1619h-369l-219 736v-736h-352zM344 1670l176 271h356l-329 -271h-203z" />
<glyph unicode="&#x144;" horiz-adv-x="1071" d="M72 0v1327h411l-7 -122q44 73 107.5 109.5t146.5 36.5q104 0 170 -49t85 -123.5t19 -248.5v-930h-404v919q0 137 -9 167t-50 30q-43 0 -54 -34.5t-11 -184.5v-897h-404zM295 1416l176 271h356l-329 -271h-203z" />
<glyph unicode="&#x145;" horiz-adv-x="1109" d="M84 0v1619h352l236 -729v729h352v-1619h-369l-219 736v-736h-352zM418 -80h272v-84q0 -322 -272 -379v117q58 35 67 90h-67v256z" />
<glyph unicode="&#x146;" horiz-adv-x="1071" d="M72 0v1327h411l-7 -122q44 73 107.5 109.5t146.5 36.5q104 0 170 -49t85 -123.5t19 -248.5v-930h-404v919q0 137 -9 167t-50 30q-43 0 -54 -34.5t-11 -184.5v-897h-404zM399 -80h272v-84q0 -322 -272 -379v117q58 35 67 90h-67v256z" />
<glyph unicode="&#x147;" horiz-adv-x="1109" d="M84 0v1619h352l236 -729v729h352v-1619h-369l-219 736v-736h-352zM141 1952h280l118 -131l111 131h271l-241 -282h-282z" />
<glyph unicode="&#x148;" horiz-adv-x="1071" d="M72 0v1327h411l-7 -122q44 73 107.5 109.5t146.5 36.5q104 0 170 -49t85 -123.5t19 -248.5v-930h-404v919q0 137 -9 167t-50 30q-43 0 -54 -34.5t-11 -184.5v-897h-404zM131 1698h280l118 -131l111 131h271l-241 -282h-282z" />
<glyph unicode="&#x149;" horiz-adv-x="1341" d="M338 -6v1327h411l-7 -122q44 73 107.5 109.5t146.5 36.5q104 0 170 -49t85 -123.5t19 -248.5v-930h-404v919q0 137 -9 167t-50 30q-43 0 -54 -34.5t-11 -184.5v-897h-404zM10 1157v117q58 35 67 90h-67v256h272v-84q0 -322 -272 -379z" />
<glyph unicode="&#x14a;" horiz-adv-x="1133" d="M84 0v1620h422v-84q21 28 79.5 54t112.5 26q152 0 218.5 -66t102.5 -157.5t36 -444.5v-276q0 -223 -11 -329t-61 -186t-128 -118.5t-171 -38.5h-100v213q29 1 39 25.5t10 103.5v860q0 102 -10.5 140t-55.5 38q-26 0 -43.5 -23.5t-17.5 -45.5v-1311h-422z" />
<glyph unicode="&#x14b;" horiz-adv-x="1071" d="M72 0v1327h411l-8 -123q86 135 254 135q79 0 131.5 -18t89.5 -70t45.5 -119t8.5 -202v-838q0 -344 -336 -344h-156v213q62 0 75 8t13 121v830q0 130 -8 163t-51 33q-47 0 -56.5 -41.5t-9.5 -177.5v-897h-403z" />
<glyph unicode="&#x14c;" horiz-adv-x="1119" d="M72 668v277q0 244 11.5 345.5t72 185.5t163.5 129t240 45q130 0 233.5 -42.5t166.5 -127.5t75 -185t12 -350v-277q0 -244 -11.5 -345.5t-72 -185.5t-163.5 -129t-240 -45q-130 0 -233.5 42.5t-166.5 127.5t-75 185t-12 350zM493 444q0 -141 11.5 -174t53.5 -33 q43 0 55 38t12 181v744q0 113 -12.5 144.5t-51.5 31.5q-33 0 -50.5 -25.5t-17.5 -150.5v-756zM156 1670v173h796v-173h-796z" />
<glyph unicode="&#x14d;" horiz-adv-x="1047" d="M60 492v340q0 185 40 289t144 167t266 63q136 0 233.5 -40.5t150.5 -105.5t72.5 -134t19.5 -210v-325q0 -179 -18 -262.5t-77 -156t-151.5 -107t-212.5 -34.5q-134 0 -227 29.5t-144.5 89t-73.5 144t-22 253.5zM464 362q0 -94 12 -122.5t47 -28.5q36 0 47.5 26t11.5 112 v612q0 102 -11 128.5t-47 26.5t-48 -26.5t-12 -128.5v-599zM123 1416v173h796v-173h-796z" />
<glyph unicode="&#x14e;" horiz-adv-x="1119" d="M72 668v277q0 244 11.5 345.5t72 185.5t163.5 129t240 45q130 0 233.5 -42.5t166.5 -127.5t75 -185t12 -350v-277q0 -244 -11.5 -345.5t-72 -185.5t-163.5 -129t-240 -45q-130 0 -233.5 42.5t-166.5 127.5t-75 185t-12 350zM493 444q0 -141 11.5 -174t53.5 -33 q43 0 55 38t12 181v744q0 113 -12.5 144.5t-51.5 31.5q-33 0 -50.5 -25.5t-17.5 -150.5v-756zM270 1972h170q12 -137 113 -137q102 0 114 137h170q-6 -136 -79.5 -219t-204.5 -83q-132 0 -204.5 83.5t-78.5 218.5z" />
<glyph unicode="&#x14f;" horiz-adv-x="1047" d="M60 492v340q0 185 40 289t144 167t266 63q136 0 233.5 -40.5t150.5 -105.5t72.5 -134t19.5 -210v-325q0 -179 -18 -262.5t-77 -156t-151.5 -107t-212.5 -34.5q-134 0 -227 29.5t-144.5 89t-73.5 144t-22 253.5zM464 362q0 -94 12 -122.5t47 -28.5q36 0 47.5 26t11.5 112 v612q0 102 -11 128.5t-47 26.5t-48 -26.5t-12 -128.5v-599zM229 1718h170q12 -137 113 -137q102 0 114 137h170q-6 -136 -79.5 -219t-204.5 -83q-132 0 -204.5 83.5t-78.5 218.5z" />
<glyph unicode="&#x150;" horiz-adv-x="1119" d="M72 668v277q0 244 11.5 345.5t72 185.5t163.5 129t240 45q130 0 233.5 -42.5t166.5 -127.5t75 -185t12 -350v-277q0 -244 -11.5 -345.5t-72 -185.5t-163.5 -129t-240 -45q-130 0 -233.5 42.5t-166.5 127.5t-75 185t-12 350zM493 444q0 -141 11.5 -174t53.5 -33 q43 0 55 38t12 181v744q0 113 -12.5 144.5t-51.5 31.5q-33 0 -50.5 -25.5t-17.5 -150.5v-756zM229 1670l118 310h272l-241 -310h-149zM619 1670l118 310h271l-240 -310h-149z" />
<glyph unicode="&#x151;" horiz-adv-x="1047" d="M60 492v340q0 185 40 289t144 167t266 63q136 0 233.5 -40.5t150.5 -105.5t72.5 -134t19.5 -210v-325q0 -179 -18 -262.5t-77 -156t-151.5 -107t-212.5 -34.5q-134 0 -227 29.5t-144.5 89t-73.5 144t-22 253.5zM464 362q0 -94 12 -122.5t47 -28.5q36 0 47.5 26t11.5 112 v612q0 102 -11 128.5t-47 26.5t-48 -26.5t-12 -128.5v-599zM188 1416l118 310h272l-241 -310h-149zM578 1416l118 310h271l-240 -310h-149z" />
<glyph unicode="&#x152;" horiz-adv-x="1410" d="M72 528v529q0 180 14 264t72 156.5t157 115.5t243 43q83 0 185 -17h596v-324h-284v-307h271v-308h-271v-356h318v-324h-633q-137 -17 -189 -17q-128 0 -235 45.5t-159 114.5t-68.5 144.5t-16.5 240.5zM493 521q0 -188 10.5 -226t56.5 -38t60 43t14 202v608q0 50 -1 74 q-2 44 -2 61q0 117 -70 117q-41 0 -54 -26.5t-13 -92.5l-1 -73v-649z" />
<glyph unicode="&#x153;" horiz-adv-x="1567" d="M60 495v290q0 214 27.5 309.5t139 176t282.5 80.5q76 0 144.5 -20t128.5 -60q52 40 117.5 60t143.5 20q141 0 264 -67.5t161 -175.5t38 -277v-191h-520v-297q0 -82 12.5 -107t48.5 -25q43 0 60 42t17 137v164h382v-131q0 -135 -42 -225t-151 -156t-258 -66 q-79 0 -147 15.5t-126 46.5q-55 -31 -119 -46.5t-138 -15.5q-136 0 -234 43t-150.5 108.5t-66.5 134.5t-14 233zM464 387q0 -125 9 -150.5t48 -25.5q37 0 49 28.5t12 133.5v552q0 129 -11 160t-50 31q-34 0 -45.5 -29t-11.5 -122v-578zM986 855h116v142q0 85 -18.5 102 t-40.5 17q-33 0 -45 -22.5t-12 -96.5v-142z" />
<glyph unicode="&#x154;" horiz-adv-x="1103" d="M84 0v1619h298q298 0 403.5 -23t172 -117.5t66.5 -301.5q0 -189 -47 -254t-185 -78q125 -31 168 -83t53.5 -95.5t10.5 -239.5v-427h-391v538q0 130 -20.5 161t-107.5 31v-730h-421zM505 982q71 0 99.5 19.5t28.5 126.5v89q0 77 -27.5 101t-100.5 24v-360zM315 1802 l176 271h356l-329 -271h-203z" />
<glyph unicode="&#x155;" horiz-adv-x="733" d="M72 0v1327h404l-16 -174q88 187 255 198v-467q-111 0 -163 -30t-64 -83.5t-12 -246.5v-524h-404zM152 1501l176 271h356l-329 -271h-203z" />
<glyph unicode="&#x156;" horiz-adv-x="1103" d="M84 0v1619h298q298 0 403.5 -23t172 -117.5t66.5 -301.5q0 -189 -47 -254t-185 -78q125 -31 168 -83t53.5 -95.5t10.5 -239.5v-427h-391v538q0 130 -20.5 161t-107.5 31v-730h-421zM505 982q71 0 99.5 19.5t28.5 126.5v89q0 77 -27.5 101t-100.5 24v-360zM415 -80h272 v-84q0 -322 -272 -379v117q58 35 67 90h-67v256z" />
<glyph unicode="&#x157;" horiz-adv-x="733" d="M72 0v1327h404l-16 -174q88 187 255 198v-467q-111 0 -163 -30t-64 -83.5t-12 -246.5v-524h-404zM139 -80h272v-84q0 -322 -272 -379v117q58 35 67 90h-67v256z" />
<glyph unicode="&#x158;" horiz-adv-x="1103" d="M84 0v1619h298q298 0 403.5 -23t172 -117.5t66.5 -301.5q0 -189 -47 -254t-185 -78q125 -31 168 -83t53.5 -95.5t10.5 -239.5v-427h-391v538q0 130 -20.5 161t-107.5 31v-730h-421zM505 982q71 0 99.5 19.5t28.5 126.5v89q0 77 -27.5 101t-100.5 24v-360zM127 1952h280 l118 -131l111 131h271l-241 -282h-282z" />
<glyph unicode="&#x159;" horiz-adv-x="733" d="M72 0v1327h404l-16 -174q88 187 255 198v-467q-111 0 -163 -30t-64 -83.5t-12 -246.5v-524h-404zM-29 1698h280l118 -131l111 131h271l-241 -282h-282z" />
<glyph unicode="&#x15a;" horiz-adv-x="1059" d="M49 1195q0 186 47.5 272t153.5 134.5t256 48.5q164 0 279.5 -53t153 -133.5t37.5 -273.5v-64h-391v120q0 84 -15 107t-50 23q-38 0 -57.5 -31t-19.5 -94q0 -81 22 -122q21 -41 119 -99q281 -167 354 -274t73 -345q0 -173 -40.5 -255t-156.5 -137.5t-270 -55.5 q-169 0 -288.5 64t-156.5 163t-37 281v106h391v-197q0 -91 16.5 -117t58.5 -26t62.5 33t20.5 98q0 143 -39 187q-40 44 -197 147q-157 104 -208 151t-84.5 130t-33.5 212zM319 1670l176 271h356l-329 -271h-203z" />
<glyph unicode="&#x15b;" horiz-adv-x="964" d="M42 959q0 159 42 234.5t142.5 116.5t233.5 41q132 0 224.5 -33.5t142 -88.5t60 -102t10.5 -147v-77h-358v72q0 92 -10.5 116.5t-52.5 24.5q-34 0 -51 -22.5t-17 -67.5q0 -61 8.5 -89.5t51 -62.5t174.5 -99q176 -86 231 -162t55 -221q0 -162 -42 -244.5t-140.5 -127 t-237.5 -44.5q-154 0 -263.5 48t-150.5 130t-41 248v64h358v-84q0 -107 13.5 -139t53.5 -32q43 0 60 21.5t17 90.5q0 95 -22 119q-23 24 -235 142q-178 100 -217 181.5t-39 193.5zM279 1416l176 271h356l-329 -271h-203z" />
<glyph unicode="&#x15c;" horiz-adv-x="1059" d="M49 1195q0 186 47.5 272t153.5 134.5t256 48.5q164 0 279.5 -53t153 -133.5t37.5 -273.5v-64h-391v120q0 84 -15 107t-50 23q-38 0 -57.5 -31t-19.5 -94q0 -81 22 -122q21 -41 119 -99q281 -167 354 -274t73 -345q0 -173 -40.5 -255t-156.5 -137.5t-270 -55.5 q-169 0 -288.5 64t-156.5 163t-37 281v106h391v-197q0 -91 16.5 -117t58.5 -26t62.5 33t20.5 98q0 143 -39 187q-40 44 -197 147q-157 104 -208 151t-84.5 130t-33.5 212zM109 1670l257 282h282l241 -282h-271l-111 131l-118 -131h-280z" />
<glyph unicode="&#x15d;" horiz-adv-x="964" d="M42 959q0 159 42 234.5t142.5 116.5t233.5 41q132 0 224.5 -33.5t142 -88.5t60 -102t10.5 -147v-77h-358v72q0 92 -10.5 116.5t-52.5 24.5q-34 0 -51 -22.5t-17 -67.5q0 -61 8.5 -89.5t51 -62.5t174.5 -99q176 -86 231 -162t55 -221q0 -162 -42 -244.5t-140.5 -127 t-237.5 -44.5q-154 0 -263.5 48t-150.5 130t-41 248v64h358v-84q0 -107 13.5 -139t53.5 -32q43 0 60 21.5t17 90.5q0 95 -22 119q-23 24 -235 142q-178 100 -217 181.5t-39 193.5zM66 1416l257 282h282l241 -282h-271l-111 131l-118 -131h-280z" />
<glyph unicode="&#x15e;" horiz-adv-x="1059" d="M49 1198q0 186 47.5 272t153.5 134.5t256 48.5q164 0 279.5 -53t153 -133.5t37.5 -273.5v-64h-391v120q0 84 -15 107t-50 23q-77 0 -77 -125q0 -81 21.5 -122t119.5 -99q281 -167 354 -274t73 -345q0 -163 -34 -242.5t-146.5 -141t-265.5 -63.5v-19q53 0 98.5 -35 t45.5 -97q0 -76 -61.5 -131.5t-147.5 -55.5q-157 0 -199 158h147q14 -42 51 -42q59 0 59 60q0 66 -83 66h-27v102q-161 22 -250.5 94t-112.5 167t-23 240v106h391v-197q0 -91 16.5 -117t58.5 -26q83 0 83 131q0 143 -39.5 187t-196.5 147q-157 104 -208 151t-84.5 130 t-33.5 212z" />
<glyph unicode="&#x15f;" horiz-adv-x="964" d="M42 959q0 159 42 234.5t142.5 116.5t233.5 41q132 0 224.5 -33.5t142 -88.5t60 -102t10.5 -147v-77h-358v72q0 92 -10.5 116.5t-52.5 24.5q-68 0 -68 -90q0 -61 8.5 -89.5t51 -62.5t174.5 -99q176 -86 231 -162t55 -221q0 -154 -37 -234.5t-129.5 -129.5t-243.5 -52v-28 q52 0 98 -35t46 -97q0 -76 -61.5 -131.5t-147.5 -55.5q-157 0 -200 158h148q14 -42 51 -42q59 0 59 60q0 66 -83 66h-27v112q-115 15 -193.5 59.5t-116.5 117.5t-38 242v64h358v-84q0 -107 13.5 -139t53.5 -32q43 0 60 21.5t17 90.5q0 95 -22.5 119t-234.5 142 q-178 100 -217 181.5t-39 193.5z" />
<glyph unicode="&#x160;" horiz-adv-x="1059" d="M49 1198q0 186 47.5 272t153.5 134.5t256 48.5q164 0 279.5 -53t153 -133.5t37.5 -273.5v-64h-391v120q0 84 -15 107t-50 23q-38 0 -57.5 -31t-19.5 -94q0 -81 22 -122q21 -41 119 -99q281 -167 354 -274t73 -345q0 -173 -40.5 -255t-156.5 -137.5t-270 -55.5 q-169 0 -288.5 64t-156.5 163t-37 281v106h391v-197q0 -91 16.5 -117t58.5 -26t62.5 33t20.5 98q0 143 -39 187q-40 44 -197 147q-157 104 -208 151t-84.5 130t-33.5 212zM139 1952h280l118 -131l111 131h271l-241 -282h-282z" />
<glyph unicode="&#x161;" horiz-adv-x="964" d="M42 959q0 159 42 234.5t142.5 116.5t233.5 41q132 0 224.5 -33.5t142 -88.5t60 -102t10.5 -147v-77h-358v72q0 92 -10.5 116.5t-52.5 24.5q-34 0 -51 -22.5t-17 -67.5q0 -61 8.5 -89.5t51 -62.5t174.5 -99q176 -86 231 -162t55 -221q0 -162 -42 -244.5t-140.5 -127 t-237.5 -44.5q-154 0 -263.5 48t-150.5 130t-41 248v64h358v-84q0 -107 13.5 -139t53.5 -32q43 0 60 21.5t17 90.5q0 95 -22 119q-23 24 -235 142q-178 100 -217 181.5t-39 193.5zM92 1698h280l118 -131l111 131h271l-241 -282h-282z" />
<glyph unicode="&#x162;" horiz-adv-x="944" d="M12 1295v324h920v-324h-250v-1295h-421v1295h-249zM273 -274h148q14 -41 50 -41q30 0 44.5 15t14.5 45q0 33 -20.5 49.5t-62.5 16.5q-9 0 -26 -1v202h117v-124q52 0 98 -35t46 -97q0 -76 -62 -132t-148 -56q-156 0 -199 158z" />
<glyph unicode="&#x163;" horiz-adv-x="624" d="M6 1085v210h87v209h405v-209h109v-210h-109v-710q0 -131 13.5 -146t112.5 -15v-214h-163q-138 0 -197 11.5t-104 53t-56 95t-11 251.5v674h-87zM223 -282h148q14 -41 50 -41q30 0 44.5 15t14.5 45q0 33 -20.5 49.5t-62.5 16.5q-9 0 -26 -1v202h117v-124q52 0 98 -35 t46 -97q0 -76 -62 -132t-148 -56q-156 0 -199 158z" />
<glyph unicode="&#x164;" horiz-adv-x="944" d="M12 1295v324h920v-324h-250v-1295h-421v1295h-249zM74 1952h280l118 -131l111 131h271l-241 -282h-282z" />
<glyph unicode="&#x165;" horiz-adv-x="944" d="M6 1085v210h87v209h405v-209h109v-210h-109v-710q0 -131 13.5 -146t112.5 -15v-214h-163q-138 0 -197 11.5t-104 53t-56 95t-11 251.5v674h-87zM672 1156v117q58 35 67 90h-67v256h272v-84q0 -322 -272 -379z" />
<glyph unicode="&#x166;" horiz-adv-x="944" d="M12 1296v324h920v-324h-248v-385h160v-172h-160v-739h-422v739h-158v172h158v385h-250z" />
<glyph unicode="&#x167;" horiz-adv-x="623" d="M6 739v172h88v174h-88v209h88v211h404v-211h108v-209h-108v-174h106v-172h-106v-364q0 -93 5 -121t25 -34.5t97 -6.5v-213h-164q-127 0 -190 10t-111 53.5t-57 110t-9 238.5v327h-88z" />
<glyph unicode="&#x168;" horiz-adv-x="1120" d="M78 677v958h421v-1214q0 -106 11.5 -135.5t46.5 -29.5q40 0 51.5 32.5t11.5 153.5v1193h421v-1082q0 -184 -12 -258.5t-71 -153t-155.5 -119t-227.5 -40.5q-145 0 -256 48t-166 125t-65 162.5t-10 359.5zM131 1775q110 194 248 194q72 0 157 -32l62 -23q78 -29 106 -29 q83 0 110 90l161 -115q-46 -101 -113 -141t-118 -40q-71 0 -153 33l-74 29q-71 29 -106 29q-74 0 -122 -100z" />
<glyph unicode="&#x169;" horiz-adv-x="1070" d="M66 443v895h404v-903q0 -155 9.5 -184t51.5 -29q45 0 53.5 30t8.5 193v893h404v-1327h-411l7 110q-42 -67 -103.5 -100.5t-141.5 -33.5q-91 0 -151 32t-88.5 85t-35.5 110.5t-7 228.5zM96 1521q110 194 248 194q72 0 157 -32l62 -23q78 -29 106 -29q83 0 110 90l161 -115 q-46 -101 -113 -141t-118 -40q-71 0 -153 33l-74 29q-71 29 -106 29q-74 0 -122 -100z" />
<glyph unicode="&#x16a;" horiz-adv-x="1120" d="M78 677v958h421v-1214q0 -106 11.5 -135.5t46.5 -29.5q40 0 51.5 32.5t11.5 153.5v1193h421v-1082q0 -184 -12 -258.5t-71 -153t-155.5 -119t-227.5 -40.5q-145 0 -256 48t-166 125t-65 162.5t-10 359.5zM160 1670v173h796v-173h-796z" />
<glyph unicode="&#x16b;" horiz-adv-x="1070" d="M66 432v895h404v-903q0 -155 9.5 -184t51.5 -29q45 0 53.5 30t8.5 193v893h404v-1327h-411l7 110q-42 -67 -103.5 -100.5t-141.5 -33.5q-91 0 -151 32t-88.5 85t-35.5 110.5t-7 228.5zM129 1416v173h796v-173h-796z" />
<glyph unicode="&#x16c;" horiz-adv-x="1120" d="M78 677v958h421v-1214q0 -106 11.5 -135.5t46.5 -29.5q40 0 51.5 32.5t11.5 153.5v1193h421v-1082q0 -184 -12 -258.5t-71 -153t-155.5 -119t-227.5 -40.5q-145 0 -256 48t-166 125t-65 162.5t-10 359.5zM272 1972h170q12 -137 113 -137q102 0 114 137h170 q-6 -136 -79.5 -219t-204.5 -83q-132 0 -204.5 83.5t-78.5 218.5z" />
<glyph unicode="&#x16d;" horiz-adv-x="1070" d="M66 432v895h404v-903q0 -155 9.5 -184t51.5 -29q45 0 53.5 30t8.5 193v893h404v-1327h-411l7 110q-42 -67 -103.5 -100.5t-141.5 -33.5q-91 0 -151 32t-88.5 85t-35.5 110.5t-7 228.5zM248 1718h170q12 -137 113 -137q102 0 114 137h170q-6 -136 -79.5 -219t-204.5 -83 q-132 0 -204.5 83.5t-78.5 218.5z" />
<glyph unicode="&#x16e;" horiz-adv-x="1120" d="M78 677v958h421v-1214q0 -106 11.5 -135.5t46.5 -29.5q40 0 51.5 32.5t11.5 153.5v1193h421v-1082q0 -184 -12 -258.5t-71 -153t-155.5 -119t-227.5 -40.5q-145 0 -256 48t-166 125t-65 162.5t-10 359.5zM344 1880q0 87 62 149t149 62q84 0 147 -60.5t63 -150.5 q0 -87 -62 -148.5t-148 -61.5q-88 0 -149.5 61.5t-61.5 148.5zM471 1876q0 -34 24.5 -58t57.5 -24q34 0 58.5 24t24.5 58q0 35 -24.5 59t-58.5 24q-33 0 -57.5 -24t-24.5 -59z" />
<glyph unicode="&#x16f;" horiz-adv-x="1070" d="M66 432v895h404v-903q0 -155 9.5 -184t51.5 -29q45 0 53.5 30t8.5 193v893h404v-1327h-411l7 110q-42 -67 -103.5 -100.5t-141.5 -33.5q-91 0 -151 32t-88.5 85t-35.5 110.5t-7 228.5zM319 1626q0 87 62 149t149 62q84 0 147 -60.5t63 -150.5q0 -87 -62 -148.5 t-148 -61.5q-88 0 -149.5 61.5t-61.5 148.5zM446 1622q0 -34 24.5 -58t57.5 -24q34 0 58.5 24t24.5 58q0 35 -24.5 59t-58.5 24q-33 0 -57.5 -24t-24.5 -59z" />
<glyph unicode="&#x170;" horiz-adv-x="1120" d="M78 677v958h421v-1214q0 -106 11.5 -135.5t46.5 -29.5q40 0 51.5 32.5t11.5 153.5v1193h421v-1082q0 -184 -12 -258.5t-71 -153t-155.5 -119t-227.5 -40.5q-145 0 -256 48t-166 125t-65 162.5t-10 359.5zM207 1670l118 310h272l-241 -310h-149zM597 1670l118 310h271 l-240 -310h-149z" />
<glyph unicode="&#x171;" horiz-adv-x="1070" d="M66 432v895h404v-903q0 -155 9.5 -184t51.5 -29q45 0 53.5 30t8.5 193v893h404v-1327h-411l7 110q-42 -67 -103.5 -100.5t-141.5 -33.5q-91 0 -151 32t-88.5 85t-35.5 110.5t-7 228.5zM180 1416l118 310h272l-241 -310h-149zM570 1416l118 310h271l-240 -310h-149z" />
<glyph unicode="&#x172;" horiz-adv-x="1120" d="M78 537v1083h422v-1251q0 -87 15 -108t44 -21q30 0 46 25t16 126v1229h421v-1157q0 -128 -20 -209t-75.5 -142t-129.5 -85t-180 -29q-82 -84 -82 -133q0 -64 72 -64q50 0 114 27l41 -100q-96 -45 -174 -45q-91 0 -144.5 43t-53.5 112q0 81 84 160q-130 10 -221 50 t-133 110t-52 150.5t-10 228.5z" />
<glyph unicode="&#x173;" horiz-adv-x="1069" d="M66 432v895h403v-1026q0 -90 61 -90q34 0 49 21.5t15 91.5v1003h403v-1327h-49q-86 -85 -86 -135q0 -64 72 -64q50 0 115 27l41 -100q-97 -45 -175 -45q-90 0 -144 43t-54 112q0 83 84 162h-215l6 111q-45 -64 -100 -88.5t-171 -24.5q-77 0 -123 15.5t-82.5 71.5t-43 119 t-6.5 228z" />
<glyph unicode="&#x174;" horiz-adv-x="1668" d="M0 1619h409l43 -565l44 -545q23 423 116 1110h438q9 -71 46 -534l46 -615q35 587 117 1149h409l-187 -1619h-526q-72 373 -127 848q-25 -203 -117 -848h-523zM436 1670l257 282h282l241 -282h-271l-111 131l-118 -131h-280z" />
<glyph unicode="&#x175;" horiz-adv-x="1371" d="M-6 1327h348q4 -52 88 -759q6 72 90 759h335l82 -759q19 332 92 759h348l-161 -1327h-439q-36 243 -83 640q-16 -174 -45 -352l-45 -288h-439zM291 1416l257 282h282l241 -282h-271l-111 131l-118 -131h-280z" />
<glyph unicode="&#x176;" horiz-adv-x="969" d="M-12 1619h387q91 -473 102 -637q35 259 117 637h387l-307 -1033v-586h-390v586zM88 1670l257 282h282l241 -282h-271l-111 131l-118 -131h-280z" />
<glyph unicode="&#x177;" horiz-adv-x="918" d="M-12 1327h367l132 -895l64 895h367l-116 -960q-27 -228 -45.5 -311t-61.5 -137t-119.5 -79.5t-244.5 -25.5h-245v212q94 0 121 9.5t27 42.5q0 16 -25 139zM55 1416l257 282h282l241 -282h-271l-111 131l-118 -131h-280z" />
<glyph unicode="&#x178;" horiz-adv-x="969" d="M-12 1619h387q91 -473 102 -637q35 259 117 637h387l-307 -1033v-586h-390v586zM136 1670v260h261v-260h-261zM573 1670v260h261v-260h-261z" />
<glyph unicode="&#x179;" horiz-adv-x="813" d="M12 0v235l324 1060h-286v324h738v-324l-314 -971h314v-324h-776zM186 1670l176 271h356l-329 -271h-203z" />
<glyph unicode="&#x17a;" horiz-adv-x="719" d="M12 0v278l305 783h-274v266h658v-294l-298 -767h298v-266h-689zM152 1416l176 271h356l-329 -271h-203z" />
<glyph unicode="&#x17b;" horiz-adv-x="813" d="M12 0v235l324 1060h-286v324h738v-324l-314 -971h314v-324h-776zM285 1670v260h261v-260h-261z" />
<glyph unicode="&#x17c;" horiz-adv-x="719" d="M12 0v278l305 783h-274v266h658v-294l-298 -767h298v-266h-689zM231 1416v260h261v-260h-261z" />
<glyph unicode="&#x17d;" horiz-adv-x="813" d="M12 0v235l324 1060h-286v324h738v-324l-314 -971h314v-324h-776zM16 1952h280l118 -131l111 131h271l-241 -282h-282z" />
<glyph unicode="&#x17e;" horiz-adv-x="719" d="M12 0v278l305 783h-274v266h658v-294l-298 -767h298v-266h-689zM-49 1698h280l118 -131l111 131h271l-241 -282h-282z" />
<glyph unicode="&#x17f;" horiz-adv-x="590" d="M72 0v1081q0 179 12 268.5t67.5 162t159.5 107t248 34.5h25v-236h-25q-84 0 -84 -168v-1249h-403z" />
<glyph unicode="&#x192;" horiz-adv-x="908" d="M-48 -229l43 213q61 0 70.5 8.5t22.5 74.5l139 694h-139l45 243h144l60 312q35 183 75.5 234t93.5 75.5t188 24.5h214l-42 -212q-57 0 -70 -4.5t-20 -44.5q-2 -7 -9 -42l-68 -343h148l-48 -243h-147l-133 -673q-38 -191 -109.5 -254t-276.5 -63h-181z" />
<glyph unicode="&#x1fa;" horiz-adv-x="1040" d="M-12 0l214 1619h609l241 -1619h-431l-21 291h-151l-25 -291h-436zM444 578h144q-32 275 -64 679q-64 -464 -80 -679zM310 1880q0 87 62 149t149 62q84 0 147 -60.5t63 -150.5q0 -87 -62 -148.5t-148 -61.5q-88 0 -149.5 61.5t-61.5 148.5zM437 1876q0 -34 24.5 -58 t57.5 -24q34 0 58.5 24t24.5 58q0 35 -24.5 59t-58.5 24q-33 0 -57.5 -24t-24.5 -59zM319 2121l176 271h356l-329 -271h-203z" />
<glyph unicode="&#x1fb;" horiz-adv-x="1032" d="M54 296v109q0 149 47 203t233 126q199 78 213 105t14 110q0 104 -15.5 135.5t-51.5 31.5q-41 0 -51 -26.5t-10 -137.5v-139h-379v89q0 154 35.5 237.5t142.5 147.5t278 64q205 0 309 -72.5t125 -178t21 -434.5v-666h-393v118q-37 -71 -95.5 -106.5t-139.5 -35.5 q-106 0 -194.5 59.5t-88.5 260.5zM433 374q0 -103 13.5 -133t53.5 -30q38 0 49.5 23.5t11.5 123.5v273q-97 -71 -112.5 -119t-15.5 -138zM295 1626q0 87 62 149t149 62q84 0 147 -60.5t63 -150.5q0 -87 -62 -148.5t-148 -61.5q-88 0 -149.5 61.5t-61.5 148.5zM422 1622 q0 -34 24.5 -58t57.5 -24q34 0 58.5 24t24.5 58q0 35 -24.5 59t-58.5 24q-33 0 -57.5 -24t-24.5 -59zM293 1883l176 271h356l-329 -271h-203z" />
<glyph unicode="&#x1fc;" horiz-adv-x="1461" d="M-12 0l426 1619h990v-324h-283v-307h266v-308h-266v-356h303v-324h-724v291h-242l-68 -291h-402zM521 578h179v738zM627 1670l176 271h356l-329 -271h-203z" />
<glyph unicode="&#x1fd;" horiz-adv-x="1543" d="M54 361q0 140 20.5 191.5t84.5 92t221 95.5q83 28 112 47t40 47.5t11 122.5q0 89 -12 124t-45 35q-32 0 -41.5 -29t-9.5 -147v-127h-379v99q0 110 15.5 173t71 126.5t141 101.5t218.5 38q74 0 143 -18t132 -54q46 36 107 54t137 18q152 0 261.5 -66t154.5 -169t45 -305 v-171h-527v-268q0 -102 13 -131.5t55 -29.5q45 0 61 30t16 124v189h382v-134q0 -131 -39.5 -221t-143.5 -156.5t-255 -66.5q-140 0 -238 38t-155 114q-55 -76 -130 -114t-169 -38q-110 0 -181.5 45t-94 114t-22.5 226zM421 352q0 -77 15.5 -109t56.5 -32q29 0 43 20t14 59 l1 119v214q-77 -56 -103.5 -101.5t-26.5 -169.5zM955 856h123v120q0 93 -17 116.5t-44 23.5q-33 0 -47.5 -27t-14.5 -113v-120zM558 1416l176 271h356l-329 -271h-203z" />
<glyph unicode="&#x1fe;" horiz-adv-x="1119" d="M-55 86l147 192q-20 72 -20 392v277q0 244 11.5 345.5t72 185.5t163.5 129t240 45q145 0 249 -47.5t166 -143.5l107 140l92 -69l-147 -193q20 -76 20 -392v-277q0 -244 -11.5 -345.5t-72 -185.5t-163.5 -129t-240 -45q-146 0 -249.5 48t-165.5 143l-107 -140zM493 446 q0 -141 11.5 -174t53.5 -33q43 0 55 38t12 181v340l-132 -175v-177zM493 812l132 174v216q0 113 -12.5 144.5t-51.5 31.5q-41 0 -54.5 -33.5t-13.5 -142.5v-390zM336 1670l176 271h356l-329 -271h-203z" />
<glyph unicode="&#x1ff;" horiz-adv-x="1047" d="M60 492v340q0 185 40 289t144 167t266 63q105 0 189 -25t146 -75l41 62l78 -51l-52 -81q39 -53 56.5 -115.5t17.5 -204.5v-325q0 -179 -18 -262.5t-77 -156t-151 -107t-213 -34.5q-114 0 -198 21.5t-137 63.5l-31 -47l-79 51l45 69q-34 56 -50.5 126t-16.5 232zM464 362 q0 -94 12 -122.5t47 -28.5q36 0 47.5 26t11.5 112v313l-118 -181v-119zM464 655l118 180v126q0 102 -11 128.5t-47 26.5t-48 -26.5t-12 -128.5v-306zM311 1416l176 271h356l-329 -271h-203z" />
<glyph unicode="&#x218;" horiz-adv-x="1059" d="M49 1198q0 186 47.5 272t153.5 134.5t256 48.5q164 0 279.5 -53t153 -133.5t37.5 -273.5v-64h-391v120q0 84 -15 107t-50 23q-38 0 -57.5 -31t-19.5 -94q0 -81 22 -122q21 -41 119 -99q281 -167 354 -274t73 -345q0 -173 -40.5 -255t-156.5 -137.5t-270 -55.5 q-169 0 -288.5 64t-156.5 163t-37 281v106h391v-197q0 -91 16.5 -117t58.5 -26t62.5 33t20.5 98q0 143 -39 187q-40 44 -197 147q-157 104 -208 151t-84.5 130t-33.5 212zM396 -72h272v-84q0 -322 -272 -379v117q58 35 67 90h-67v256z" />
<glyph unicode="&#x219;" horiz-adv-x="964" d="M42 959q0 159 42 234.5t142.5 116.5t233.5 41q132 0 224.5 -33.5t142 -88.5t60 -102t10.5 -147v-77h-358v72q0 92 -10.5 116.5t-52.5 24.5q-34 0 -51 -22.5t-17 -67.5q0 -61 8.5 -89.5t51 -62.5t174.5 -99q176 -86 231 -162t55 -221q0 -162 -42 -244.5t-140.5 -127 t-237.5 -44.5q-154 0 -263.5 48t-150.5 130t-41 248v64h358v-84q0 -107 13.5 -139t53.5 -32q43 0 60 21.5t17 90.5q0 95 -22 119q-23 24 -235 142q-178 100 -217 181.5t-39 193.5zM356 -72h272v-84q0 -322 -272 -379v117q58 35 67 90h-67v256z" />
<glyph unicode="&#x21a;" horiz-adv-x="944" d="M12 1295v324h920v-324h-250v-1295h-421v1295h-249zM336 -80h272v-84q0 -322 -272 -379v117q58 35 67 90h-67v256z" />
<glyph unicode="&#x21b;" horiz-adv-x="624" d="M6 1085v210h87v209h405v-209h109v-210h-109v-710q0 -131 13.5 -146t112.5 -15v-214h-163q-138 0 -197 11.5t-104 53t-56 95t-11 251.5v674h-87zM206 -80h272v-84q0 -322 -272 -379v117q58 35 67 90h-67v256z" />
<glyph unicode="&#x2c6;" horiz-adv-x="683" d="M-48 1501l257 282h282l241 -282h-271l-111 131l-118 -131h-280z" />
<glyph unicode="&#x2c7;" horiz-adv-x="683" d="M-48 1783h280l118 -131l111 131h271l-241 -282h-282z" />
<glyph unicode="&#x2c9;" horiz-adv-x="683" d="M-57 1501v173h796v-173h-796z" />
<glyph unicode="&#x2d8;" horiz-adv-x="683" d="M58 1803h170q12 -137 113 -137q102 0 114 137h170q-6 -136 -79.5 -219t-204.5 -83q-132 0 -204.5 83.5t-78.5 218.5z" />
<glyph unicode="&#x2d9;" horiz-adv-x="683" d="M211 1501v260h261v-260h-261z" />
<glyph unicode="&#x2da;" horiz-adv-x="683" d="M131 1711q0 87 62 149t149 62q84 0 147 -60.5t63 -150.5q0 -87 -62 -148.5t-148 -61.5q-88 0 -149.5 61.5t-61.5 148.5zM258 1707q0 -34 24.5 -58t57.5 -24q34 0 58.5 24t24.5 58q0 35 -24.5 59t-58.5 24q-33 0 -57.5 -24t-24.5 -59z" />
<glyph unicode="&#x2db;" horiz-adv-x="683" d="M156 -161q0 89 106 182h146q-106 -102 -106 -155q0 -32 18 -48.5t54 -16.5q50 0 114 26l41 -100q-84 -43 -174 -43q-86 0 -142.5 41t-56.5 114z" />
<glyph unicode="&#x2dc;" horiz-adv-x="683" d="M-81 1606q110 194 248 194q72 0 157 -32l62 -23q78 -29 106 -29q83 0 110 90l161 -115q-46 -101 -113 -141t-118 -40q-71 0 -153 33l-74 29q-71 29 -106 29q-74 0 -122 -100z" />
<glyph unicode="&#x2dd;" horiz-adv-x="683" d="M24 1501l118 310h272l-241 -310h-149zM414 1501l118 310h271l-240 -310h-149z" />
<glyph unicode="&#x384;" horiz-adv-x="682" d="M197 1350l53 270h274l-125 -270h-202z" />
<glyph unicode="&#x385;" horiz-adv-x="682" d="M-6 1501v260h256v-260h-256zM203 1853l53 271h274l-124 -271h-203zM428 1501v260h262v-260h-262z" />
<glyph unicode="&#x386;" horiz-adv-x="1040" d="M-12 0l214 1619h609l241 -1619h-431l-21 291h-151l-25 -291h-436zM444 578h144q-32 275 -64 679q-64 -464 -80 -679zM-163 1350l53 270h274l-125 -270h-202z" />
<glyph unicode="&#x387;" horiz-adv-x="450" d="M72 642v330h305v-330h-305z" />
<glyph unicode="&#x388;" horiz-adv-x="1100" d="M334 0v1619h702v-324h-281v-307h263v-308h-263v-356h309v-324h-730zM-16 1350l53 270h274l-125 -270h-202z" />
<glyph unicode="&#x389;" horiz-adv-x="1386" d="M334 0v1619h421v-579h126v579h421v-1619h-421v680h-126v-680h-421zM-16 1350l53 270h274l-125 -270h-202z" />
<glyph unicode="&#x38a;" horiz-adv-x="840" d="M334 0v1619h421v-1619h-421zM-16 1350l53 270h274l-125 -270h-202z" />
<glyph unicode="&#x38c;" horiz-adv-x="1311" d="M252 672v277q0 244 11.5 345.5t72 185.5t163.5 129t240 45q130 0 233.5 -42.5t166.5 -127.5t75 -185t12 -350v-277q0 -244 -11.5 -345.5t-72 -185.5t-163.5 -129t-240 -45q-130 0 -233.5 42.5t-166.5 127.5t-75 185t-12 350zM673 448q0 -141 11.5 -174t53.5 -33 q43 0 55 38t12 181v744q0 113 -12.5 144.5t-51.5 31.5q-33 0 -50.5 -25.5t-17.5 -150.5v-756zM-16 1350l53 270h274l-125 -270h-202z" />
<glyph unicode="&#x38e;" horiz-adv-x="1311" d="M328 1619h387q91 -473 102 -637q35 259 117 637h387l-307 -1033v-586h-390v586zM-16 1350l53 270h274l-125 -270h-202z" />
<glyph unicode="&#x38f;" horiz-adv-x="1341" d="M254 0v244h62q46 0 158 -11q-88 58 -142.5 171.5t-54.5 263.5v383q0 210 10 280.5t66.5 150t155 115t255.5 35.5q145 0 247.5 -34.5t163 -109.5t72 -148t11.5 -289v-383q0 -150 -54.5 -263.5t-142.5 -171.5q93 11 150 11h69v-244h-485v246q41 40 41 207v766 q0 119 -14.5 148.5t-50.5 29.5q-40 0 -56 -28t-16 -150v-766q0 -167 41 -207v-246h-486zM-16 1350l53 270h274l-125 -270h-202z" />
<glyph unicode="&#x390;" horiz-adv-x="623" d="M72 379v948h403v-969q0 -70 25.5 -109.5t107.5 -39.5v-209h-65q-207 0 -297 19.5t-132 98t-42 261.5zM-72 1416v260h256v-260h-256zM137 1768l53 271h274l-124 -271h-203zM362 1416v260h262v-260h-262z" />
<glyph unicode="&#x391;" horiz-adv-x="1040" d="M-12 0l214 1619h609l241 -1619h-431l-21 291h-151l-25 -291h-436zM444 578h144q-32 275 -64 679q-64 -464 -80 -679z" />
<glyph unicode="&#x392;" horiz-adv-x="1131" d="M84 0v1619h420q199 0 301.5 -31t165.5 -125.5t63 -304.5q0 -142 -44.5 -198t-175.5 -86q146 -33 198 -109.5t52 -234.5v-150q0 -164 -37.5 -243t-119.5 -108t-336 -29h-487zM505 277q89 3 113.5 28t24.5 123v151q0 104 -22 126t-116 25v-453zM505 982q27 1 42 1 q62 0 79 30.5t17 174.5q0 76 -14 106.5t-36.5 38.5t-87.5 9v-360z" />
<glyph unicode="&#x393;" horiz-adv-x="778" d="M84 0v1620h676v-322h-254v-1298h-422z" />
<glyph unicode="&#x394;" horiz-adv-x="1040" d="M-12 0l215 1620h608l242 -1620h-1065zM444 289h144q0 31 -26.5 467.5t-37.5 500.5q-11 -65 -45.5 -506.5t-34.5 -461.5z" />
<glyph unicode="&#x395;" horiz-adv-x="851" d="M84 0v1619h702v-324h-281v-307h263v-308h-263v-356h309v-324h-730z" />
<glyph unicode="&#x396;" horiz-adv-x="813" d="M12 0v235l324 1060h-286v324h738v-324l-314 -971h314v-324h-776z" />
<glyph unicode="&#x397;" horiz-adv-x="1137" d="M84 0v1619h421v-579h126v579h421v-1619h-421v680h-126v-680h-421z" />
<glyph unicode="&#x398;" horiz-adv-x="1118" d="M72 664v301q0 259 15.5 365.5t79 175t160.5 97.5t232 29t232 -28t160 -96.5t79.5 -176.5t16.5 -366v-301q0 -262 -16.5 -368t-80 -176.5t-161 -101t-230.5 -30.5q-124 0 -217 27t-155.5 86t-82.5 127t-26 168.5t-6 267.5zM494 362q0 -62 11.5 -96.5t51.5 -34.5 q35 0 51.5 28t16.5 132v307h-131v-336zM494 934h131v285q0 102 -10.5 140t-55.5 38q-36 0 -50.5 -30t-14.5 -148v-285z" />
<glyph unicode="&#x399;" horiz-adv-x="590" d="M84 0v1620h422v-1620h-422z" />
<glyph unicode="&#x39a;" horiz-adv-x="1099" d="M84 0v1619h421v-629l187 629h395l-241 -731l264 -888h-435l-170 694v-694h-421z" />
<glyph unicode="&#x39b;" horiz-adv-x="1073" d="M-10 0l213 1620h639l243 -1620h-444q-66 566 -109 1133q-40 -567 -98 -1133h-444z" />
<glyph unicode="&#x39c;" horiz-adv-x="1468" d="M84 0v1619h545q24 -146 51 -344l58 -412l96 756h549v-1619h-368v1093l-147 -1093h-261l-155 1068v-1068h-368z" />
<glyph unicode="&#x39d;" horiz-adv-x="1109" d="M84 0v1619h352l236 -729v729h352v-1619h-369l-219 736v-736h-352z" />
<glyph unicode="&#x39e;" horiz-adv-x="944" d="M33 0v324h878v-324h-878zM33 1296v324h878v-324h-878zM115 666v323h714v-323h-714z" />
<glyph unicode="&#x39f;" horiz-adv-x="1119" d="M72 671v277q0 244 11.5 345.5t72 185.5t163.5 129t240 45q130 0 233.5 -42.5t166.5 -127.5t75 -185t12 -350v-277q0 -244 -11.5 -345.5t-72 -185.5t-163.5 -129t-240 -45q-130 0 -233.5 42.5t-166.5 127.5t-75 185t-12 350zM493 447q0 -141 11.5 -174t53.5 -33 q43 0 55 38t12 181v744q0 113 -12.5 144.5t-51.5 31.5q-33 0 -50.5 -25.5t-17.5 -150.5v-756z" />
<glyph unicode="&#x3a0;" horiz-adv-x="1137" d="M84 0v1620h969v-1620h-422v1296h-125v-1296h-422z" />
<glyph unicode="&#x3a1;" horiz-adv-x="1028" d="M84 0v1620h424q157 0 246.5 -20t149.5 -81.5t73.5 -132.5t13.5 -221v-139q0 -243 -97 -309t-276 -66h-112v-651h-422zM506 930h31q57 0 79.5 27.5t22.5 119.5v131q0 82 -25.5 107.5t-107.5 25.5v-411z" />
<glyph unicode="&#x3a3;" horiz-adv-x="807" d="M-23 1620h785v-324h-311l167 -430l-172 -542h322v-324h-786l276 868z" />
<glyph unicode="&#x3a4;" horiz-adv-x="944" d="M12 1295v324h920v-324h-250v-1295h-421v1295h-249z" />
<glyph unicode="&#x3a5;" horiz-adv-x="969" d="M-12 1619h387q91 -473 102 -637q35 259 117 637h387l-307 -1033v-586h-390v586z" />
<glyph unicode="&#x3a6;" horiz-adv-x="1632" d="M31 793v28q0 159 15 229q21 97 89 175q105 118 400 118q22 0 65 3v274h422v-274q51 -3 74 -3q295 0 399 -118q68 -78 89 -175q15 -70 15 -229v-28q0 -159 -15 -229q-21 -97 -89 -175q-106 -121 -399 -121h-74v-268h-422v268h-65q-294 0 -400 121q-68 78 -89 175 q-15 70 -15 229zM453 702q0 -82 32.5 -132t79.5 -50h35v574h-35q-47 0 -79.5 -50t-32.5 -133v-209zM1022 520h43q48 0 80.5 50t32.5 132v209q0 83 -32.5 133t-80.5 50h-43v-574zM1602 793z" />
<glyph unicode="&#x3a7;" horiz-adv-x="988" d="M0 0l152 903l-152 716h407q11 -67 44 -223q26 -119 43 -218l90 441h353l-147 -716l222 -903h-390q-70 242 -128 589q-16 -153 -44 -325l-40 -264h-410z" />
<glyph unicode="&#x3a8;" horiz-adv-x="1608" d="M4 1620h389q68 -58 68 -234v-419q0 -58 36 -94.5t97 -38.5v786h422v-786q61 2 97 38.5t36 94.5v419q0 176 68 234h389q-56 -75 -56 -260v-404q0 -181 -106.5 -276.5t-292.5 -95.5h-135v-584h-422v584h-135q-186 0 -293 95.5t-107 276.5v404q0 185 -55 260z" />
<glyph unicode="&#x3a9;" horiz-adv-x="1149" d="M61 0v244h62q46 0 158 -11q-88 58 -142.5 171.5t-54.5 263.5v383q0 210 10 280.5t66.5 150t155 115t255.5 35.5q145 0 247.5 -34.5t163 -109.5t72 -148t11.5 -289v-383q0 -150 -54.5 -263.5t-142.5 -171.5q93 11 150 11h69v-244h-485v246q41 40 41 207v766 q0 119 -14.5 148.5t-50.5 29.5q-40 0 -56 -28t-16 -150v-766q0 -167 41 -207v-246h-486z" />
<glyph unicode="&#x3aa;" horiz-adv-x="590" d="M84 0v1619h421v-1619h-421zM-55 1670v260h261v-260h-261zM382 1670v260h261v-260h-261z" />
<glyph unicode="&#x3ab;" horiz-adv-x="969" d="M-12 1619h387q91 -473 102 -637q35 259 117 637h387l-307 -1033v-586h-390v586zM137 1670v260h261v-260h-261zM574 1670v260h261v-260h-261z" />
<glyph unicode="&#x3ac;" horiz-adv-x="1073" d="M59 342v647q0 114 9 171.5t48.5 106t87.5 60.5t132 12q168 0 276 -129q14 62 58 117h381q-60 -138 -60 -340v-471q0 -332 111 -516h-408q-60 71 -78 131q-47 -67 -126.5 -105t-157.5 -38q-103 0 -170.5 37t-85 107.5t-17.5 209.5zM463 334q0 -71 9.5 -102t47.5 -31 q47 0 57.5 35.5t10.5 132.5v641q0 79 -16 101t-48 22q-61 0 -61 -84v-715zM403 1416l53 270h274l-125 -270h-202z" />
<glyph unicode="&#x3ad;" horiz-adv-x="1057" d="M51 334v82q0 106 71.5 179.5t188.5 100.5q-105 12 -177.5 84.5t-72.5 167.5v80q0 153 120 232t345 79q228 0 347.5 -76t119.5 -223v-151h-358v119q0 67 -21.5 92.5t-64.5 25.5q-50 0 -72 -29t-22 -100q0 -86 46 -134.5t122 -53.5v-203q-76 -7 -122 -65t-46 -160 q0 -103 19.5 -141.5t62.5 -38.5q60 0 76 35t16 133v106h387v-156q0 -181 -116 -256t-388 -75q-461 0 -461 346zM403 1416l53 270h274l-125 -270h-202z" />
<glyph unicode="&#x3ae;" horiz-adv-x="1071" d="M14 1327h412q43 -53 49 -117q82 129 254 129q79 0 131.5 -18t89.5 -70t45.5 -119t8.5 -202v-1116h-404v1112q0 130 -8 163t-51 33q-47 0 -56.5 -41.5t-9.5 -177.5v-903h-403v1145q0 95 -58 182zM403 1416l53 270h274l-125 -270h-202z" />
<glyph unicode="&#x3af;" horiz-adv-x="623" d="M72 379v948h403v-969q0 -70 25.5 -109.5t107.5 -39.5v-209h-65q-207 0 -297 19.5t-132 98t-42 261.5zM141 1416l53 270h274l-125 -270h-202z" />
<glyph unicode="&#x3b0;" horiz-adv-x="1069" d="M72 424v903h403v-1034q0 -90 62 -90q33 0 48 21.5t15 90.5v1012h404v-913q0 -156 -42.5 -248t-137.5 -135t-287 -43q-269 0 -367 104t-98 332zM194 1416v260h256v-260h-256zM403 1768l53 271h274l-124 -271h-203zM628 1416v260h262v-260h-262z" />
<glyph unicode="&#x3b1;" horiz-adv-x="1073" d="M59 342v647q0 114 9 171.5t48.5 106t87.5 60.5t132 12q168 0 276 -129q14 62 58 117h381q-60 -138 -60 -340v-471q0 -332 111 -516h-408q-60 71 -78 131q-47 -67 -126.5 -105t-157.5 -38q-103 0 -170.5 37t-85 107.5t-17.5 209.5zM463 334q0 -71 9.5 -102t47.5 -31 q47 0 57.5 35.5t10.5 132.5v641q0 79 -16 101t-48 22q-61 0 -61 -84v-715z" />
<glyph unicode="&#x3b2;" horiz-adv-x="1077" d="M72 -186v1421q0 182 120.5 283.5t337.5 101.5q222 0 343.5 -84.5t121.5 -245.5v-162q0 -95 -72.5 -168.5t-177.5 -85.5q123 -23 198 -87t75 -158v-289q0 -152 -76.5 -249t-212.5 -97q-161 0 -254 112v-292h-403zM475 274q0 -13 24 -38t46 -25q28 0 42.5 20t14.5 80v342 q0 59 -12.5 96.5t-75.5 47.5v176q60 3 74 46.5t14 104.5v183q0 60 -18 80t-52 20q-57 0 -57 -111v-1022z" />
<glyph unicode="&#x3b3;" horiz-adv-x="1024" d="M-12 1116v219q30 4 53 4q134 0 202.5 -27t107 -95t79.5 -221l84 -314l160 645h360l-309 -1124v-389h-403v395l-226 749q-30 104 -52.5 131t-55.5 27z" />
<glyph unicode="&#x3b4;" horiz-adv-x="1044" d="M59 481v187q0 105 8.5 169.5t45 129.5t100.5 111t147 69l-270 260v213h823v-209h-360q275 -214 353.5 -356t78.5 -350v-179q0 -181 -18.5 -269t-83 -153.5t-156.5 -90.5t-267 -25q-88 0 -145 10t-115.5 50t-90 100.5t-41 136t-9.5 196.5zM463 315q0 -114 59 -114 q26 0 43 20t17 51v525q0 107 -14 131t-46 24q-30 0 -44.5 -23.5t-14.5 -131.5v-482z" />
<glyph unicode="&#x3b5;" horiz-adv-x="1057" d="M51 334v82q0 106 71.5 179.5t188.5 100.5q-105 12 -177.5 84.5t-72.5 167.5v80q0 153 120 232t345 79q228 0 347.5 -76t119.5 -223v-151h-358v119q0 67 -21.5 92.5t-64.5 25.5q-50 0 -72 -29t-22 -100q0 -86 46 -134.5t122 -53.5v-203q-76 -7 -122 -65t-46 -160 q0 -103 19.5 -141.5t62.5 -38.5q60 0 76 35t16 133v106h387v-156q0 -181 -116 -256t-388 -75q-461 0 -461 346z" />
<glyph unicode="&#x3b6;" horiz-adv-x="786" d="M53 610v242q0 132 74.5 254t292.5 305h-359v209h703v-203q-179 -153 -243 -270t-64 -270v-250q0 -44 8.5 -70t24 -36.5t71.5 -24.5q119 -31 166 -112.5t47 -213.5q0 -180 -69 -268t-242 -88h-197v227h158q65 0 83.5 24t18.5 72t-21.5 74t-74.5 37l-208 39q-63 12 -100 44 t-53 93t-16 186z" />
<glyph unicode="&#x3b7;" horiz-adv-x="1071" d="M14 1327h412q43 -53 49 -117q82 129 254 129q79 0 131.5 -18t89.5 -70t45.5 -119t8.5 -202v-1116h-404v1112q0 130 -8 163t-51 33q-47 0 -56.5 -41.5t-9.5 -177.5v-903h-403v1145q0 95 -58 182z" />
<glyph unicode="&#x3b8;" horiz-adv-x="1047" d="M76 481v647q0 118 14 203.5t70.5 157.5t148.5 107.5t217 35.5q133 0 232 -35.5t158.5 -105t72 -139.5t12.5 -195v-631q0 -181 -18.5 -269t-82.5 -153.5t-156.5 -90.5t-267.5 -25q-87 0 -144.5 10t-115.5 50t-90 100.5t-41 136t-9 196.5zM479 315q0 -125 60 -125 q24 0 41.5 25t17.5 57v430h-119v-387zM479 922h119v335q0 97 -9 131.5t-50 34.5t-50.5 -35.5t-9.5 -130.5v-335z" />
<glyph unicode="&#x3b9;" horiz-adv-x="623" d="M72 379v948h403v-969q0 -70 25.5 -109.5t107.5 -39.5v-209h-65q-207 0 -297 19.5t-132 98t-42 261.5z" />
<glyph unicode="&#x3ba;" horiz-adv-x="1069" d="M72 0v1327h403v-500q120 261 149 319t74.5 107t100 64.5t131.5 15.5q57 0 127 -8v-209q-54 0 -83.5 -23t-49.5 -66l-131 -284l284 -743h-434l-168 530v-530h-403z" />
<glyph unicode="&#x3bb;" horiz-adv-x="995" d="M-2 0l221 1219q14 78 14 129q0 63 -83 63h-54v209h246q204 0 293 -45t120.5 -149.5t57.5 -356.5l80 -760q6 -65 18.5 -79.5t30.5 -14.5q15 0 53 2v-215q-117 -14 -231 -14q-195 0 -211 229l-55 787l-133 -1004h-367z" />
<glyph unicode="&#x3bc;" horiz-adv-x="1079" d="M72 -170v1497h403v-1026q0 -90 62 -90q33 0 48 21.5t15 91.5v1003h404v-1327h-412l6 111q-55 -76 -123 -97v-184h-403z" />
<glyph unicode="&#x3bd;" horiz-adv-x="895" d="M-12 1327h361l113 -968q13 106 44 520q18 231 40 448h361l-189 -1327h-527z" />
<glyph unicode="&#x3be;" horiz-adv-x="782" d="M49 569q0 113 46.5 179.5t152.5 103.5q-187 85 -187 246q0 58 24 106.5t71.5 89t97 69.5t78.5 48h-275v209h711v-203q-151 -65 -241.5 -144t-90.5 -153q0 -78 57 -117.5t138 -39.5v-199q-178 -32 -178 -156q0 -35 8.5 -57t24.5 -31.5t71 -23.5q119 -31 166 -112.5 t47 -213.5q0 -180 -69 -268t-242 -88h-197v227h158q62 0 82 21.5t20 76.5q0 50 -22.5 74.5t-71.5 33.5l-215 42q-164 30 -164 280z" />
<glyph unicode="&#x3bf;" horiz-adv-x="1047" d="M60 492v340q0 185 40 289t144 167t266 63q136 0 233.5 -40.5t150.5 -105.5t72.5 -134t19.5 -210v-325q0 -179 -18 -262.5t-77 -156t-151.5 -107t-212.5 -34.5q-134 0 -227 29.5t-144.5 89t-73.5 144t-22 253.5zM464 362q0 -94 12 -122.5t47 -28.5q36 0 47.5 26t11.5 112 v612q0 102 -11 128.5t-47 26.5t-48 -26.5t-12 -128.5v-599z" />
<glyph unicode="&#x3c0;" horiz-adv-x="1114" d="M6 1098v229h1102v-229h-84v-1098h-403v1098h-125v-1098h-404v1098h-86z" />
<glyph unicode="&#x3c1;" horiz-adv-x="1059" d="M72 -190v1026q0 117 14 202.5t70.5 157.5t148.5 107.5t217 35.5q133 0 232 -35.5t158.5 -105t72 -139.5t12.5 -195v-405q0 -240 -67.5 -349.5t-245.5 -109.5q-95 0 -209 8v-198h-403zM475 215q33 -2 60 -2q25 0 42 20.5t17 51.5v680q0 92 -9 123.5t-50 31.5 q-42 0 -51 -32.5t-9 -122.5v-750z" />
<glyph unicode="&#x3c2;" horiz-adv-x="793" d="M53 610v275q0 216 97 335t270 119q101 0 307 -14v-205q-84 6 -137 6q-68 0 -100.5 -47.5t-32.5 -165.5v-286q0 -44 8.5 -70t24 -36.5t71.5 -24.5q119 -31 166 -112.5t47 -213.5q0 -180 -69 -268t-242 -88h-197v227h158q64 0 83 19.5t19 82.5q0 50 -18.5 71.5t-77.5 33.5 l-217 44q-55 11 -91.5 44.5t-52.5 96t-16 177.5z" />
<glyph unicode="&#x3c3;" horiz-adv-x="1065" d="M59 481v342q0 120 15 204.5t73 156.5t150 107.5t213 35.5h563v-227h-117q29 -59 29 -262v-312q0 -181 -18.5 -269t-83 -153.5t-156.5 -90.5t-267 -25q-88 0 -145 10t-115.5 50t-90 100.5t-41 136t-9.5 196.5zM463 315q0 -114 59 -114q26 0 43 20t17 51v666q0 93 -9 124.5 t-51 31.5q-41 0 -50 -32.5t-9 -123.5v-623z" />
<glyph unicode="&#x3c4;" horiz-adv-x="752" d="M6 1098v229h739v-229h-167v-740q0 -70 25.5 -109.5t107.5 -39.5v-209h-66q-206 0 -296.5 19.5t-132.5 98t-42 261.5v719h-168z" />
<glyph unicode="&#x3c5;" horiz-adv-x="1069" d="M72 424v903h403v-1034q0 -90 62 -90q33 0 48 21.5t15 90.5v1012h404v-913q0 -156 -42.5 -248t-137.5 -135t-287 -43q-269 0 -367 104t-98 332z" />
<glyph unicode="&#x3c6;" horiz-adv-x="1573" d="M61 451v485q0 197 133 298t371 101v-213q-39 0 -69.5 -42.5t-30.5 -110.5v-666q0 -90 82 -90h41v623q0 117 14 202.5t70.5 157.5t148.5 107.5t217 35.5q133 0 232 -35.5t158.5 -105t72 -139.5t12.5 -195v-405q0 -115 -33 -224.5t-146 -172t-269 -62.5h-74v-190h-403v190 h-76q-157 0 -268.5 61t-147 172t-35.5 218zM991 213h39q37 0 58.5 26t21.5 64v662q0 105 -15 130t-44 25q-30 0 -45 -28t-15 -127v-752z" />
<glyph unicode="&#x3c7;" horiz-adv-x="1018" d="M20 -190l222 800l-95 385q-17 71 -33 97t-61 26q-11 0 -33 -2v205q93 14 207 14q100 0 148.5 -54t67.5 -161l57 -319l112 526h359l-201 -737l79 -315q42 -167 47.5 -184t18 -35.5t27 -26.5t62.5 -11v-200q-118 -15 -232 -15q-85 0 -134.5 55t-70.5 167l-75 389l-127 -604 h-345z" />
<glyph unicode="&#x3c8;" horiz-adv-x="1516" d="M-2 1327h369q67 -60 67 -235v-508q0 -50 29 -84.5t72 -34.5h22v1155h401v-1155h23q42 0 71 35t29 84v508q0 175 68 235h369q-56 -77 -56 -262v-354q0 -112 -32 -221t-135.5 -173.5t-258.5 -64.5h-78v-442h-401v442h-78q-207 0 -316.5 111t-109.5 348v354q0 185 -55 262z " />
<glyph unicode="&#x3c9;" horiz-adv-x="1604" d="M72 451v507q0 222 163 310q117 63 340 63q29 0 78 -4v-217l-45 -4q-133 -12 -133 -154v-651q0 -98 62 -98q63 0 63 67v670h404v-672q0 -27 21 -46t48 -19q55 0 55 100v649v2q0 142 -133 154l-45 4v217q50 4 78 4q224 0 340 -62q164 -89 164 -310v-508q0 -188 -33 -267 q-49 -117 -163 -163q-88 -35 -242 -35q-98 0 -182 50.5t-111 129.5q-21 -78 -108.5 -128t-192.5 -50q-310 -2 -400 213q-28 68 -28 248z" />
<glyph unicode="&#x3ca;" horiz-adv-x="623" d="M72 379v948h403v-969q0 -70 25.5 -109.5t107.5 -39.5v-209h-65q-207 0 -297 19.5t-132 98t-42 261.5zM-39 1416v260h261v-260h-261zM398 1416v260h261v-260h-261z" />
<glyph unicode="&#x3cb;" horiz-adv-x="1069" d="M72 424v903h403v-1034q0 -90 62 -90q33 0 48 21.5t15 90.5v1012h404v-913q0 -156 -42.5 -248t-137.5 -135t-287 -43q-269 0 -367 104t-98 332zM184 1416v260h261v-260h-261zM621 1416v260h261v-260h-261z" />
<glyph unicode="&#x3cc;" horiz-adv-x="1047" d="M60 492v340q0 185 40 289t144 167t266 63q136 0 233.5 -40.5t150.5 -105.5t72.5 -134t19.5 -210v-325q0 -179 -18 -262.5t-77 -156t-151.5 -107t-212.5 -34.5q-134 0 -227 29.5t-144.5 89t-73.5 144t-22 253.5zM464 362q0 -94 12 -122.5t47 -28.5q36 0 47.5 26t11.5 112 v612q0 102 -11 128.5t-47 26.5t-48 -26.5t-12 -128.5v-599zM385 1416l53 270h274l-125 -270h-202z" />
<glyph unicode="&#x3cd;" horiz-adv-x="1069" d="M72 424v903h403v-1034q0 -90 62 -90q33 0 48 21.5t15 90.5v1012h404v-913q0 -156 -42.5 -248t-137.5 -135t-287 -43q-269 0 -367 104t-98 332zM403 1416l53 270h274l-125 -270h-202z" />
<glyph unicode="&#x3ce;" horiz-adv-x="1604" d="M72 451v507q0 222 163 310q117 63 340 63q29 0 78 -4v-217l-45 -4q-133 -12 -133 -154v-651q0 -98 62 -98q63 0 63 67v670h404v-672q0 -27 21 -46t48 -19q55 0 55 100v649v2q0 142 -133 154l-45 4v217q50 4 78 4q224 0 340 -62q164 -89 164 -310v-508q0 -188 -33 -267 q-49 -117 -163 -163q-88 -35 -242 -35q-98 0 -182 50.5t-111 129.5q-21 -78 -108.5 -128t-192.5 -50q-310 -2 -400 213q-28 68 -28 248zM668 1416l53 270h274l-125 -270h-202z" />
<glyph unicode="&#x401;" horiz-adv-x="851" d="M84 0v1619h702v-324h-281v-307h263v-308h-263v-356h309v-324h-730zM109 1670v260h261v-260h-261zM546 1670v260h261v-260h-261z" />
<glyph unicode="&#x402;" horiz-adv-x="1354" d="M10 1337v283h920v-283h-248v-348q42 63 127 96t186 33q80 0 148 -38t97.5 -107.5t29.5 -200.5v-412q0 -222 -74 -291t-297 -69h-141v279q53 0 71.5 31.5t18.5 95.5v292q0 134 -16 165.5t-56 31.5q-94 0 -94 -162v-733h-422v1337h-250z" />
<glyph unicode="&#x403;" horiz-adv-x="844" d="M84 0v1620h731v-324h-309v-1296h-422zM256 1670l176 271h356l-329 -271h-203z" />
<glyph unicode="&#x404;" horiz-adv-x="1135" d="M84 440v793q0 399 473 399q281 0 389.5 -91t108.5 -302v-137h-404v186q0 96 -73 96q-36 0 -54 -26t-18 -113v-280h242v-236h-242v-268q0 -133 11.5 -178t64.5 -45q69 0 69 98v248h404v-127q0 -245 -122 -357t-386 -112q-238 0 -350.5 108t-112.5 344z" />
<glyph unicode="&#x405;" horiz-adv-x="1059" d="M49 1198q0 186 47.5 272t153.5 134.5t256 48.5q164 0 279.5 -53t153 -133.5t37.5 -273.5v-64h-391v120q0 84 -15 107t-50 23q-38 0 -57.5 -31t-19.5 -94q0 -81 22 -122q21 -41 119 -99q281 -167 354 -274t73 -345q0 -173 -40.5 -255t-156.5 -137.5t-270 -55.5 q-169 0 -288.5 64t-156.5 163t-37 281v106h391v-197q0 -91 16.5 -117t58.5 -26t62.5 33t20.5 98q0 143 -39 187q-40 44 -197 147q-157 104 -208 151t-84.5 130t-33.5 212z" />
<glyph unicode="&#x406;" horiz-adv-x="590" d="M84 0v1619h421v-1619h-421z" />
<glyph unicode="&#x407;" horiz-adv-x="590" d="M84 0v1619h421v-1619h-421zM-57 1670v260h261v-260h-261zM380 1670v260h261v-260h-261z" />
<glyph unicode="&#x408;" horiz-adv-x="678" d="M18 0v283q38 -3 55 -3q45 0 71 22t30 54t4 124v1139h421v-1082q0 -243 -5 -312.5t-45.5 -125.5t-110 -77.5t-209.5 -21.5h-211z" />
<glyph unicode="&#x409;" horiz-adv-x="1720" d="M10 0v279q77 0 106 19t29 130v1192h967v-555h66q194 0 294 -23t149.5 -101.5t49.5 -246.5v-315q0 -181 -47 -260t-142.5 -99t-303.5 -20h-488v1296h-123v-917q0 -181 -46.5 -260t-141.5 -99t-303 -20h-66zM1112 279q80 0 108.5 20.5t28.5 128.5v234q0 102 -20.5 124 t-116.5 25v-532z" />
<glyph unicode="&#x40a;" horiz-adv-x="1663" d="M84 0v1620h422v-580h123v580h422v-555h65q195 0 294.5 -23t149.5 -101.5t50 -246.5v-315q0 -181 -47 -260t-142.5 -99t-304.5 -20h-487v680h-123v-680h-422zM1051 279q80 0 108.5 20.5t28.5 128.5v234q0 102 -20.5 124t-116.5 25v-532z" />
<glyph unicode="&#x40b;" horiz-adv-x="1354" d="M10 1337v283h920v-283h-248v-354q43 65 129.5 100t183.5 35q117 0 180 -46t79 -123t16 -240v-709h-422v698q0 134 -16 165.5t-56 31.5q-94 0 -94 -162v-733h-422v1337h-250z" />
<glyph unicode="&#x40c;" horiz-adv-x="1098" d="M84 0v1620h422l2 -684q119 3 123 132l8 316q4 175 68 236h389q-57 -59 -56 -244l2 -278q2 -252 -284 -287q286 -35 284 -291l-2 -258q-1 -184 56 -262h-389q-68 61 -68 236v316q0 60 -36.5 96.5t-94.5 37.5l-2 -686h-422zM449 1519l53 270h274l-125 -270h-202z" />
<glyph unicode="&#x40e;" horiz-adv-x="918" d="M-12 1620h366l133 -1008l64 1008h367l-115 -1073q-27 -254 -58 -356.5t-120 -146.5t-293 -44h-246v209h25q83 0 102.5 13.5t19.5 41.5q0 2 -24 137zM184 1972h170q12 -137 113 -137q102 0 114 137h170q-6 -136 -79.5 -219t-204.5 -83q-132 0 -204.5 83.5t-78.5 218.5z " />
<glyph unicode="&#x40f;" horiz-adv-x="1137" d="M84 0v1620h422v-1296h125v1296h422v-1620h-336v-279h-291v279h-342z" />
<glyph unicode="&#x410;" horiz-adv-x="1040" d="M-12 0l214 1619h609l241 -1619h-431l-21 291h-151l-25 -291h-436zM444 578h144q-32 275 -64 679q-64 -464 -80 -679z" />
<glyph unicode="&#x411;" horiz-adv-x="1130" d="M84 0v1620h825v-281h-403v-274h65q195 0 295 -23t149.5 -101.5t49.5 -246.5v-315q0 -181 -47 -260t-142.5 -99t-304.5 -20h-487zM506 279q80 0 108.5 20.5t28.5 128.5v234q0 102 -20.5 124t-116.5 25v-532z" />
<glyph unicode="&#x412;" horiz-adv-x="1131" d="M84 0v1619h420q199 0 301.5 -31t165.5 -125.5t63 -304.5q0 -142 -44.5 -198t-175.5 -86q146 -33 198 -109.5t52 -234.5v-150q0 -164 -37.5 -243t-119.5 -108t-336 -29h-487zM505 277q89 3 113.5 28t24.5 123v151q0 104 -22 126t-116 25v-453zM505 982q27 1 42 1 q62 0 79 30.5t17 174.5q0 76 -14 106.5t-36.5 38.5t-87.5 9v-360z" />
<glyph unicode="&#x413;" horiz-adv-x="844" d="M84 0v1620h731v-324h-309v-1296h-422z" />
<glyph unicode="&#x414;" horiz-adv-x="1335" d="M27 -279v617h86q68 199 111.5 523.5t43.5 709.5v49h934v-1280h86v-619h-291v279h-680v-279h-290zM555 340h225v960h-125v-12q0 -465 -100 -948z" />
<glyph unicode="&#x415;" horiz-adv-x="851" d="M84 0v1619h702v-324h-281v-307h263v-308h-263v-356h309v-324h-730z" />
<glyph unicode="&#x416;" horiz-adv-x="1516" d="M23 0q45 65 45 193v364q0 116 64.5 177t221.5 87v2q-284 15 -284 264v343q0 127 -45 190h348q15 -6 30 -43.5t15 -110.5v-403q0 -111 131 -115v672h422v-672q133 4 133 115v403q0 84 18 119t27 35h348q-45 -63 -45 -190v-343q0 -249 -285 -264v-2q157 -26 222 -87 t65 -177v-364q0 -128 45 -193h-348q-16 7 -30.5 45t-14.5 111v426q0 111 -135 114v-696h-422v696q-133 -3 -133 -114v-426q0 -85 -18.5 -120.5t-26.5 -35.5h-348z" />
<glyph unicode="&#x417;" horiz-adv-x="1086" d="M60 515v128h404v-263q0 -105 12.5 -133.5t55.5 -28.5q47 0 62 36t15 188v112q0 93 -21 136t-62 56.5t-159 15.5v235q144 0 178 11t49 48t15 116v90q0 85 -17.5 112t-54.5 27q-42 0 -57.5 -28.5t-15.5 -121.5v-133h-404v138q0 232 106 313.5t337 81.5q289 0 392 -113 t103 -314q0 -136 -37 -196.5t-130 -110.5q92 -31 137 -101.5t45 -330.5q0 -193 -44 -299.5t-152 -162t-277 -55.5q-192 0 -301.5 64.5t-144 158t-34.5 324.5z" />
<glyph unicode="&#x418;" horiz-adv-x="1108" d="M84 0v1620h352v-731l236 731h352v-1620h-352v737l-219 -737h-369z" />
<glyph unicode="&#x419;" horiz-adv-x="1108" d="M84 0v1620h352v-731l236 731h352v-1620h-352v737l-219 -737h-369zM268 1972h170q12 -137 113 -137q102 0 114 137h170q-6 -136 -79.5 -219t-204.5 -83q-132 0 -204.5 83.5t-78.5 218.5z" />
<glyph unicode="&#x41a;" horiz-adv-x="1098" d="M84 0v1620h422l2 -684q119 3 123 132l8 316q4 175 68 236h389q-57 -59 -56 -244l2 -278q2 -252 -284 -287q286 -35 284 -291l-2 -258q-1 -184 56 -262h-389q-68 61 -68 236v316q0 60 -36.5 96.5t-94.5 37.5l-2 -686h-422z" />
<glyph unicode="&#x41b;" horiz-adv-x="1196" d="M10 0v279q77 0 106 19t29 130v1192h967v-1620h-422v1296h-123v-917q0 -181 -46.5 -260t-141.5 -99t-303 -20h-66z" />
<glyph unicode="&#x41c;" horiz-adv-x="1468" d="M84 0v1619h545q24 -146 51 -344l58 -412l96 756h549v-1619h-368v1093l-147 -1093h-261l-155 1068v-1068h-368z" />
<glyph unicode="&#x41d;" horiz-adv-x="1137" d="M84 0v1619h421v-579h126v579h421v-1619h-421v680h-126v-680h-421z" />
<glyph unicode="&#x41e;" horiz-adv-x="1119" d="M72 671v277q0 244 11.5 345.5t72 185.5t163.5 129t240 45q130 0 233.5 -42.5t166.5 -127.5t75 -185t12 -350v-277q0 -244 -11.5 -345.5t-72 -185.5t-163.5 -129t-240 -45q-130 0 -233.5 42.5t-166.5 127.5t-75 185t-12 350zM493 447q0 -141 11.5 -174t53.5 -33 q43 0 55 38t12 181v744q0 113 -12.5 144.5t-51.5 31.5q-33 0 -50.5 -25.5t-17.5 -150.5v-756z" />
<glyph unicode="&#x41f;" horiz-adv-x="1137" d="M84 0v1620h969v-1620h-422v1296h-125v-1296h-422z" />
<glyph unicode="&#x420;" horiz-adv-x="1028" d="M84 0v1619h424q172 0 264.5 -27t139 -78t63 -123.5t16.5 -224.5v-141q0 -155 -32 -226t-117.5 -109t-223.5 -38h-113v-652h-421zM505 930q18 -1 31 -1q58 0 80.5 28.5t22.5 118.5v133q0 83 -26 108t-108 25v-412z" />
<glyph unicode="&#x421;" horiz-adv-x="1134" d="M72 575v473q0 175 12 262.5t71.5 168.5t165 127.5t242.5 46.5q186 0 307 -72t159 -179.5t38 -334.5v-154h-421v282q0 123 -13.5 153.5t-59.5 30.5q-52 0 -66 -37t-14 -160v-752q0 -118 14 -154t63 -36q47 0 61.5 36t14.5 169v203h421v-63q0 -251 -35.5 -356t-157 -184 t-299.5 -79q-185 0 -305 67t-159 185.5t-39 356.5z" />
<glyph unicode="&#x422;" horiz-adv-x="944" d="M12 1295v324h920v-324h-250v-1295h-421v1295h-249z" />
<glyph unicode="&#x423;" horiz-adv-x="918" d="M-12 1620h366l133 -1008l64 1008h367l-115 -1073q-27 -254 -58 -356.5t-120 -146.5t-293 -44h-246v209h25q83 0 102.5 13.5t19.5 41.5q0 2 -24 137z" />
<glyph unicode="&#x424;" horiz-adv-x="1632" d="M31 793v28q0 159 15 229q21 97 89 175q105 118 400 118q22 0 65 3v274h422v-274q51 -3 74 -3q295 0 399 -118q68 -78 89 -175q15 -70 15 -229v-28q0 -159 -15 -229q-21 -97 -89 -175q-106 -121 -399 -121h-74v-268h-422v268h-65q-294 0 -400 121q-68 78 -89 175 q-15 70 -15 229zM453 702q0 -82 32.5 -132t79.5 -50h35v574h-35q-47 0 -79.5 -50t-32.5 -133v-209zM1022 520h43q48 0 80.5 50t32.5 132v209q0 83 -32.5 133t-80.5 50h-43v-574zM1602 793z" />
<glyph unicode="&#x425;" horiz-adv-x="988" d="M0 0l152 903l-152 716h407q11 -67 44 -223q26 -119 43 -218l90 441h353l-147 -716l222 -903h-390q-70 242 -128 589q-16 -153 -44 -325l-40 -264h-410z" />
<glyph unicode="&#x426;" horiz-adv-x="1167" d="M84 0v1620h422v-1296h125v1296h422v-1296h86v-603h-291v279h-764z" />
<glyph unicode="&#x427;" horiz-adv-x="1165" d="M72 846v774h422v-729q0 -95 16.5 -130.5t54.5 -35.5q94 0 94 162v733h422v-1620h-422v621q-51 -54 -133 -86.5t-166 -32.5q-151 0 -219.5 84t-68.5 260z" />
<glyph unicode="&#x428;" horiz-adv-x="1686" d="M84 0v1620h422v-1296h125v1296h422v-1296h125v1296h424v-1620h-1518z" />
<glyph unicode="&#x429;" horiz-adv-x="1720" d="M84 0v1620h422v-1296h121v1296h422v-1296h125v1296h421v-1296h86v-603h-290v279h-1307z" />
<glyph unicode="&#x42a;" horiz-adv-x="1272" d="M25 1366v254h624v-555h66q195 0 294.5 -23t149 -101.5t49.5 -246.5v-315q0 -181 -47 -260t-142.5 -99t-303.5 -20h-488v1366h-202zM649 279q80 0 108.5 20.5t28.5 128.5v234q0 102 -20.5 124t-116.5 25v-532z" />
<glyph unicode="&#x42b;" horiz-adv-x="1700" d="M84 0v1620h422v-555h65q195 0 295 -23t149.5 -101.5t49.5 -246.5v-315q0 -181 -47 -260t-142.5 -99t-304.5 -20h-487zM506 279q80 0 108.5 20.5t28.5 128.5v234q0 102 -20.5 124t-116.5 25v-532zM1208 0v1620h422v-1620h-422z" />
<glyph unicode="&#x42c;" horiz-adv-x="1130" d="M84 0v1620h422v-555h65q195 0 295 -23t149.5 -101.5t49.5 -246.5v-315q0 -181 -47 -260t-142.5 -99t-304.5 -20h-487zM506 279q80 0 108.5 20.5t28.5 128.5v234q0 102 -20.5 124t-116.5 25v-532z" />
<glyph unicode="&#x42d;" horiz-adv-x="1085" d="M59 457v127h404v-248q0 -98 69 -98q50 0 59 38t9 185v268h-233v236h233v276q0 78 -10 108.5t-53 30.5q-74 0 -74 -96v-186h-404v137q0 227 104 311t361 84q237 0 358.5 -102t121.5 -299v-789q0 -234 -115 -343t-354 -109q-254 0 -365 106t-111 363z" />
<glyph unicode="&#x42e;" horiz-adv-x="1667" d="M84 0v1620h422v-580h115q2 211 21.5 304.5t83.5 156t158.5 89t223.5 26.5q135 0 231.5 -28.5t159.5 -96.5t79.5 -176t16.5 -367v-276q0 -262 -16 -368t-79.5 -176t-161 -101t-230.5 -31q-124 0 -217 27t-155.5 86t-82.5 127t-26 168.5t-6 267.5v8h-115v-680h-422z M1042 371q0 -63 12 -97t52 -34q35 0 51.5 27.5t16.5 131.5v803q0 102 -10.5 140t-55.5 38q-36 0 -51 -29.5t-15 -148.5v-831z" />
<glyph unicode="&#x42f;" horiz-adv-x="1102" d="M82 0v483q0 123 13.5 187t62.5 106t155 70q-145 13 -188 82.5t-43 249.5q0 162 40 253.5t116 131.5t175 48.5t310 8.5h299v-1620h-422v729q-80 0 -103.5 -26.5t-23.5 -116.5v-586h-391zM473 1128q0 -90 22.5 -117.5t104.5 -27.5v358h-20q-53 0 -80 -23.5t-27 -100.5v-89z " />
<glyph unicode="&#x430;" horiz-adv-x="1032" d="M54 296v109q0 149 47 203t233 126q199 78 213 105t14 110q0 104 -15.5 135.5t-51.5 31.5q-41 0 -51 -26.5t-10 -137.5v-139h-379v89q0 154 35.5 237.5t142.5 147.5t278 64q205 0 309 -72.5t125 -178t21 -434.5v-666h-393v118q-37 -71 -95.5 -106.5t-139.5 -35.5 q-106 0 -194.5 59.5t-88.5 260.5zM433 374q0 -103 13.5 -133t53.5 -30q38 0 49.5 23.5t11.5 123.5v273q-97 -71 -112.5 -119t-15.5 -138z" />
<glyph unicode="&#x431;" horiz-adv-x="1069" d="M72 481v779q0 165 110 268.5t287 103.5q74 0 212 -10t181 -10q53 0 90 12v-209q-49 -14 -78 -14q-54 0 -153.5 8t-142.5 8q-82 0 -101 -78q-6 -23 -6 -129q96 117 219 117q288 0 301 -233q6 -111 6 -244v-324q0 -225 -30 -307q-88 -231 -435 -231q-130 0 -170 4 q-84 11 -143 51q-94 65 -125 177q-22 82 -22 261zM475 315q0 -114 60 -114q59 0 59 71v678q0 89 -5 110q-11 46 -54 46q-44 0 -55 -47q-5 -22 -5 -109v-635z" />
<glyph unicode="&#x432;" horiz-adv-x="1053" d="M72 0v1327h477q245 0 337.5 -81t92.5 -277q0 -225 -234 -256q122 -20 192.5 -95.5t70.5 -189.5v-78q0 -203 -88.5 -276.5t-384.5 -73.5h-463zM473 279q81 0 107 23.5t26 109.5v45q0 86 -23 107.5t-110 21.5v-307zM473 834q92 0 112.5 23t20.5 91q0 57 -23 79t-110 22 v-215z" />
<glyph unicode="&#x433;" horiz-adv-x="707" d="M72 0v1327h635v-229h-232v-1098h-403z" />
<glyph unicode="&#x434;" horiz-adv-x="1276" d="M27 -256v573h86q77 119 126.5 369.5t49.5 591.5v49h872v-1008h86v-575h-270v256h-680v-256h-270zM535 319h225v709h-105v-14q0 -370 -120 -695z" />
<glyph unicode="&#x435;" horiz-adv-x="1047" d="M60 482v387q0 174 47 274.5t154 154t246 53.5q170 0 280.5 -64.5t155 -171t44.5 -299.5v-176h-523v-287q0 -90 13 -116t50 -26q46 0 61.5 34.5t15.5 133.5v175h383v-98q0 -123 -15.5 -189t-72.5 -141t-144.5 -112.5t-219.5 -37.5q-128 0 -226 37t-152.5 101.5t-75.5 142 t-21 225.5zM464 856h118v97q0 103 -11 133t-45 30q-42 0 -52 -25.5t-10 -137.5v-97z" />
<glyph unicode="&#x436;" horiz-adv-x="1530" d="M12 0q45 65 45 193v233q0 165 207 231q58 19 131 33q-35 2 -135 35q-101 47 -132 74q-69 59 -69 157v179q0 127 -45 192h389q46 -61 46 -156v-225q0 -135 106 -135v516h399v-516q127 0 127 135v225q0 136 45 156h390q-46 -65 -46 -192v-179q0 -98 -68 -157 q-31 -27 -132 -74q-61 -28 -135 -35q34 -6 131 -33q207 -66 207 -231v-233q0 -128 45 -193h-390q-45 61 -45 156v280q0 135 -129 135v-571h-399v571q-109 0 -109 -135v-280q0 -136 -45 -156h-389z" />
<glyph unicode="&#x437;" horiz-adv-x="1034" d="M59 440v97h383v-187q0 -100 70 -100q37 0 56.5 28.5t19.5 149.5v84q0 58 -39 80t-162 22v189h31q85 0 111 4t42.5 28.5t16.5 82.5v28q0 85 -18.5 108t-53.5 23q-74 0 -74 -88v-108h-383v59q0 210 102.5 298.5t342.5 88.5q230 0 341 -85t111 -263q0 -120 -36 -178.5 t-132 -89.5q95 -30 140 -88t45 -181q0 -136 -20 -197.5t-77.5 -125t-157.5 -91.5t-222 -28q-243 0 -340 95t-97 345z" />
<glyph unicode="&#x438;" horiz-adv-x="1145" d="M72 0v1327h352v-711l276 711h373v-1327h-352v717l-281 -717h-368z" />
<glyph unicode="&#x439;" horiz-adv-x="1145" d="M72 0v1327h352v-711l276 711h373v-1327h-352v717l-281 -717h-368zM287 1718h170q12 -137 113 -137q102 0 114 137h170q-6 -136 -79.5 -219t-204.5 -83q-132 0 -204.5 83.5t-78.5 218.5z" />
<glyph unicode="&#x43a;" horiz-adv-x="1047" d="M72 0v1327h399v-516q127 0 127 135v225q0 136 45 156h389q-45 -65 -45 -192v-185q0 -97 -79 -161q-29 -24 -122 -68q-60 -29 -135 -31q35 -6 131 -33q207 -66 207 -231v-233q0 -128 45 -193h-389q-45 61 -45 156v280q0 135 -129 135v-571h-399z" />
<glyph unicode="&#x43b;" horiz-adv-x="1149" d="M6 0v217q77 1 106 19.5t29 130.5v960h946v-1327h-401v1049h-143v-670q0 -183 -42 -261.5t-132.5 -98t-296.5 -19.5h-66z" />
<glyph unicode="&#x43c;" horiz-adv-x="1399" d="M72 0v1327h501l129 -733l117 733h508v-1327h-346v915l-168 -915h-221l-174 915v-915h-346z" />
<glyph unicode="&#x43d;" horiz-adv-x="1092" d="M72 0v1327h401v-477h145v477h402v-1327h-402v489h-145v-489h-401z" />
<glyph unicode="&#x43e;" horiz-adv-x="1047" d="M60 492v340q0 185 40 289t144 167t266 63q136 0 233.5 -40.5t150.5 -105.5t72.5 -134t19.5 -210v-325q0 -179 -18 -262.5t-77 -156t-151.5 -107t-212.5 -34.5q-134 0 -227 29.5t-144.5 89t-73.5 144t-22 253.5zM464 362q0 -94 12 -122.5t47 -28.5q36 0 47.5 26t11.5 112 v612q0 102 -11 128.5t-47 26.5t-48 -26.5t-12 -128.5v-599z" />
<glyph unicode="&#x43f;" horiz-adv-x="1090" d="M72 0v1327h946v-1327h-402v1049h-143v-1049h-401z" />
<glyph unicode="&#x440;" horiz-adv-x="1063" d="M72 -189v1516h411l-7 -117q54 71 119 106t142 35q94 0 162.5 -50.5t85.5 -116.5t17 -224v-559q0 -181 -21.5 -257.5t-88 -122t-160.5 -45.5q-75 0 -139 35t-117 104v-304h-404zM476 391q0 -120 12 -150t52 -30q39 0 48.5 27.5t9.5 133.5v569q0 123 -9 149t-50 26 q-40 0 -51.5 -30t-11.5 -145v-550z" />
<glyph unicode="&#x441;" horiz-adv-x="1013" d="M60 498v377q0 169 34 255t145 153.5t270 67.5q158 0 270 -67t149 -169t37 -289h-381v153q0 80 -13 108.5t-48 28.5t-47 -25t-12 -112v-626q0 -71 18 -106.5t53 -35.5q41 0 55.5 37t14.5 140v158h360q-1 -159 -11.5 -238.5t-67 -163t-147.5 -126t-225 -42.5 q-171 0 -271 58.5t-141.5 164t-41.5 299.5z" />
<glyph unicode="&#x442;" horiz-adv-x="881" d="M6 1049v278h866v-278h-231v-1049h-403v1049h-232z" />
<glyph unicode="&#x443;" horiz-adv-x="918" d="M-12 1327h367l132 -895l64 895h367l-116 -960q-27 -228 -45.5 -311t-61.5 -137t-119.5 -79.5t-244.5 -25.5h-245v212q94 0 121 9.5t27 42.5q0 16 -25 139z" />
<glyph unicode="&#x444;" horiz-adv-x="1575" d="M59 362v560q0 139 17 222.5t77 134t183 50.5q160 0 250 -121v326h401v-324q97 121 262 121q108 0 171 -42t78 -115.5t15 -212.5v-560q0 -139 -16.5 -222.5t-76.5 -134t-183 -50.5q-160 0 -250 121v-305h-401v303q-97 -121 -262 -121q-108 0 -171 42t-78.5 115.5 t-15.5 212.5zM463 381q0 -97 1 -118t14 -38.5t44 -17.5q34 0 49 24.5t15 87.5v691q0 102 -66 102q-28 0 -42.5 -20t-14.5 -80v-631zM987 313q0 -102 66 -102q28 0 42.5 20t14.5 80v631q0 97 -1 118t-14 38.5t-44 17.5q-34 0 -49 -24.5t-15 -87.5v-691z" />
<glyph unicode="&#x445;" horiz-adv-x="888" d="M0 0l174 693l-174 634h338q81 -406 87 -461q58 339 88 461h359l-161 -634l195 -693h-393q-58 262 -88 451q-40 -236 -87 -451h-338z" />
<glyph unicode="&#x446;" horiz-adv-x="1133" d="M72 0v1327h401v-1048h143v1048h402v-1048h86v-535h-270v256h-762z" />
<glyph unicode="&#x447;" horiz-adv-x="1055" d="M59 705v622h404v-641q0 -106 10 -143t53 -37q36 0 50 33t14 133v655h403v-1327h-403v365q-76 -72 -242 -72q-115 0 -186 41t-87 119t-16 252z" />
<glyph unicode="&#x448;" horiz-adv-x="1640" d="M72 0v1327h403v-1048h143v1048h404v-1048h143v1048h404v-1327h-1497z" />
<glyph unicode="&#x449;" horiz-adv-x="1683" d="M72 0v1327h403v-1048h143v1048h404v-1048h143v1048h404v-1048h86v-535h-271v256h-1312z" />
<glyph unicode="&#x44a;" horiz-adv-x="1214" d="M10 1049v278h604v-442h66q193 0 288 -23t140 -101t45 -247v-135q0 -182 -42.5 -261t-133 -98.5t-297.5 -19.5h-467v1049h-203zM614 279q80 0 109 20.5t29 128.5v53q0 103 -21 125t-117 25v-352z" />
<glyph unicode="&#x44b;" horiz-adv-x="1606" d="M72 0v1327h401v-442h66q193 0 288 -23t140 -101t45 -247v-135q0 -182 -42.5 -261t-133.5 -98.5t-297 -19.5h-467zM473 279q80 0 108.5 20.5t28.5 128.5v53q0 103 -20.5 125t-116.5 25v-352zM1135 0v1327h401v-1327h-401z" />
<glyph unicode="&#x44c;" horiz-adv-x="1069" d="M72 0v1327h401v-442h66q193 0 288 -23t140 -101t45 -247v-135q0 -182 -42.5 -261t-133.5 -98.5t-297 -19.5h-467zM473 279q80 0 108.5 20.5t28.5 128.5v53q0 103 -20.5 125t-116.5 25v-352z" />
<glyph unicode="&#x44d;" horiz-adv-x="1024" d="M57 455v57h381v-164q0 -78 18.5 -108.5t59.5 -30.5q31 0 47.5 23t16.5 118v256h-183v180h183v230q0 58 -15 77t-47 19q-38 0 -47.5 -34t-9.5 -128v-84h-402v60q0 130 56.5 224t155.5 134.5t266 40.5q213 0 319.5 -99t106.5 -360v-387q0 -127 -15 -204.5t-70.5 -146 t-146 -100.5t-223.5 -32q-132 0 -217.5 27.5t-145 97t-74 144t-14.5 190.5z" />
<glyph unicode="&#x44e;" horiz-adv-x="1585" d="M72 0v1327h405v-514h121v18q0 118 14 203.5t70.5 157.5t148.5 107.5t218 35.5q132 0 231 -35.5t159 -105t72.5 -139.5t12.5 -195v-323q0 -182 -18.5 -269.5t-83 -153.5t-156.5 -91t-268 -25q-87 0 -144.5 10t-115.5 50t-90 101t-41 136t-9 197v43h-123v-535h-403z M1001 326q0 -115 60 -115q26 0 42.5 20.5t16.5 51.5v678q0 92 -9 123.5t-50 31.5t-50.5 -32.5t-9.5 -122.5v-635z" />
<glyph unicode="&#x44f;" horiz-adv-x="1047" d="M66 0v311q0 119 13 171.5t59.5 82.5t158.5 60q-145 13 -188 82.5t-43 248.5q0 198 114.5 284.5t495.5 86.5h299v-1327h-402v522q-78 0 -107.5 -33t-29.5 -124v-365h-370zM436 907q0 -96 29.5 -125.5t107.5 -29.5v317h-41q-44 0 -70 -25.5t-26 -119.5v-17z" />
<glyph unicode="&#x451;" horiz-adv-x="1047" d="M60 482v387q0 174 47 274.5t154 154t246 53.5q170 0 280.5 -64.5t155 -171t44.5 -299.5v-176h-523v-287q0 -90 13 -116t50 -26q46 0 61.5 34.5t15.5 133.5v175h383v-98q0 -123 -15.5 -189t-72.5 -141t-144.5 -112.5t-219.5 -37.5q-128 0 -226 37t-152.5 101.5t-75.5 142 t-21 225.5zM464 856h118v97q0 103 -11 133t-45 30q-42 0 -52 -25.5t-10 -137.5v-97zM172 1416v260h261v-260h-261zM609 1416v260h261v-260h-261z" />
<glyph unicode="&#x452;" horiz-adv-x="1096" d="M8 1290v209h92v123h404v-123h217v-209h-217v-192q80 71 241 71q116 0 187 -40.5t86.5 -119t15.5 -251.5v-682q0 -196 -96 -287.5t-363 -91.5h-24v278q49 0 64.5 41t15.5 109v651q0 107 -10 143.5t-54 36.5q-36 0 -49.5 -33t-13.5 -132v-791h-404v1290h-92z" />
<glyph unicode="&#x453;" horiz-adv-x="707" d="M72 12v1327h635v-229h-232v-1098h-403zM164 1419l176 271h356l-329 -271h-203z" />
<glyph unicode="&#x454;" horiz-adv-x="1024" d="M61 471v410q0 107 16.5 187.5t67.5 145.5t135 95t207 30q263 0 370.5 -109.5t107.5 -289.5v-59h-402v84q0 94 -9.5 127.5t-47.5 33.5q-32 0 -47 -19t-15 -77v-244h183v-188h-183v-256q0 -96 16.5 -118.5t47.5 -22.5q41 0 59.5 30.5t18.5 108.5v164h381v-58 q0 -117 -15.5 -192.5t-76 -144t-145 -95t-214.5 -26.5q-134 0 -225.5 32.5t-146 102t-69 146.5t-14.5 202z" />
<glyph unicode="&#x455;" horiz-adv-x="964" d="M42 959q0 159 42 234.5t142.5 116.5t233.5 41q132 0 224.5 -33.5t142 -88.5t60 -102t10.5 -147v-77h-358v72q0 92 -10.5 116.5t-52.5 24.5q-34 0 -51 -22.5t-17 -67.5q0 -61 8.5 -89.5t51 -62.5t174.5 -99q176 -86 231 -162t55 -221q0 -162 -42 -244.5t-140.5 -127 t-237.5 -44.5q-154 0 -263.5 48t-150.5 130t-41 248v64h358v-84q0 -107 13.5 -139t53.5 -32q43 0 60 21.5t17 90.5q0 95 -22 119q-23 24 -235 142q-178 100 -217 181.5t-39 193.5z" />
<glyph unicode="&#x456;" horiz-adv-x="561" d="M72 0v1327h416v-1327h-416zM72 1408v211h416v-211h-416z" />
<glyph unicode="&#x457;" horiz-adv-x="561" d="M72 0v1327h416v-1327h-416zM-66 1417v260h261v-260h-261zM371 1417v260h261v-260h-261z" />
<glyph unicode="&#x458;" horiz-adv-x="573" d="M-6 26q72 0 81 16t9 200v1085h416v-1050q0 -185 -7.5 -250.5t-46 -115t-103 -73.5t-193.5 -24h-156v212zM84 1408v211h416v-211h-416z" />
<glyph unicode="&#x459;" horiz-adv-x="1688" d="M6 0v279q77 0 106 19t29 130v899h946v-442h66q193 0 288 -23t140 -101t45 -247v-135q0 -182 -42.5 -261t-133 -98.5t-297.5 -19.5h-467v1049h-143v-670q0 -183 -42 -261.5t-132.5 -98t-296.5 -19.5h-66zM1087 279q80 0 109 20.5t29 128.5v53q0 103 -21 125t-117 25v-352z " />
<glyph unicode="&#x45a;" horiz-adv-x="1606" d="M59 0v1327h402v-477h143v477h402v-442h65q193 0 288 -23t140 -101t45 -247v-135q0 -182 -42.5 -261t-133 -98.5t-297.5 -19.5h-467v496h-143v-496h-402zM1006 279q80 0 108.5 20.5t28.5 128.5v53q0 103 -21 125t-116 25v-352z" />
<glyph unicode="&#x45b;" horiz-adv-x="1096" d="M8 1290v209h92v123h404v-123h217v-209h-217v-192q76 71 241 71q116 0 187 -40.5t86.5 -119t15.5 -251.5v-758h-403v776q0 107 -10 143.5t-54 36.5q-36 0 -49.5 -33t-13.5 -132v-791h-404v1290h-92z" />
<glyph unicode="&#x45c;" horiz-adv-x="1047" d="M72 0v1327h399v-516q127 0 127 135v225q0 136 45 156h389q-45 -65 -45 -192v-185q0 -97 -79 -161q-29 -24 -122 -68q-60 -29 -135 -31q35 -6 131 -33q207 -66 207 -231v-233q0 -128 45 -193h-389q-45 61 -45 156v280q0 135 -129 135v-571h-399zM340 1416l176 271h356 l-329 -271h-203z" />
<glyph unicode="&#x45e;" horiz-adv-x="918" d="M-12 1327h367l132 -895l64 895h367l-116 -960q-27 -228 -45.5 -311t-61.5 -137t-119.5 -79.5t-244.5 -25.5h-245v212q94 0 121 9.5t27 42.5q0 16 -25 139zM184 1718h170q12 -137 113 -137q102 0 114 137h170q-6 -136 -79.5 -219t-204.5 -83q-132 0 -204.5 83.5 t-78.5 218.5z" />
<glyph unicode="&#x45f;" horiz-adv-x="1067" d="M59 0v1327h402v-1048h143v1048h402v-1327h-338v-256h-271v256h-338z" />
<glyph unicode="&#x490;" horiz-adv-x="881" d="M84 0v1620h479v123h291v-447h-348v-1296h-422z" />
<glyph unicode="&#x491;" horiz-adv-x="827" d="M72 0v1327h481v191h270v-469h-348v-1049h-403z" />
<glyph unicode="&#x1e80;" horiz-adv-x="1668" d="M0 1619h409l43 -565l44 -545q23 423 116 1110h438q9 -71 46 -534l46 -615q35 587 117 1149h409l-187 -1619h-526q-72 373 -127 848q-25 -203 -117 -848h-523zM487 1941h356l176 -271h-203z" />
<glyph unicode="&#x1e81;" horiz-adv-x="1371" d="M-6 1327h348q4 -52 88 -759q6 72 90 759h335l82 -759q19 332 92 759h348l-161 -1327h-439q-36 243 -83 640q-16 -174 -45 -352l-45 -288h-439zM373 1687h356l176 -271h-203z" />
<glyph unicode="&#x1e82;" horiz-adv-x="1668" d="M0 1619h409l43 -565l44 -545q23 423 116 1110h438q9 -71 46 -534l46 -615q35 587 117 1149h409l-187 -1619h-526q-72 373 -127 848q-25 -203 -117 -848h-523zM594 1670l176 271h356l-329 -271h-203z" />
<glyph unicode="&#x1e83;" horiz-adv-x="1371" d="M-6 1327h348q4 -52 88 -759q6 72 90 759h335l82 -759q19 332 92 759h348l-161 -1327h-439q-36 243 -83 640q-16 -174 -45 -352l-45 -288h-439zM446 1416l176 271h356l-329 -271h-203z" />
<glyph unicode="&#x1e84;" horiz-adv-x="1667" d="M0 1619h409l43 -565l44 -545q23 423 116 1110h438q9 -71 46 -534l46 -615q35 587 117 1149h409l-187 -1619h-526q-72 373 -127 848q-25 -203 -117 -848h-523zM485 1670v260h261v-260h-261zM922 1670v260h261v-260h-261z" />
<glyph unicode="&#x1e85;" horiz-adv-x="1371" d="M-6 1327h348q4 -52 88 -759q6 72 90 759h335l82 -759q19 332 92 759h348l-161 -1327h-439q-36 243 -83 640q-16 -174 -45 -352l-45 -288h-439zM334 1416v260h261v-260h-261zM771 1416v260h261v-260h-261z" />
<glyph unicode="&#x1ef2;" horiz-adv-x="969" d="M-12 1619h387q91 -473 102 -637q35 259 117 637h387l-307 -1033v-586h-390v586zM168 1941h356l176 -271h-203z" />
<glyph unicode="&#x1ef3;" horiz-adv-x="918" d="M-12 1327h367l132 -895l64 895h367l-116 -960q-27 -228 -45.5 -311t-61.5 -137t-119.5 -79.5t-244.5 -25.5h-245v212q94 0 121 9.5t27 42.5q0 16 -25 139zM143 1687h356l176 -271h-203z" />
<glyph unicode="&#x2013;" horiz-adv-x="1024" d="M-12 539v249h1048v-249h-1048z" />
<glyph unicode="&#x2014;" horiz-adv-x="2048" d="M-12 539v249h2072v-249h-2072z" />
<glyph unicode="&#x2015;" horiz-adv-x="2048" d="M-12 539v249h2072v-249h-2072z" />
<glyph unicode="&#x2017;" horiz-adv-x="1130" d="M-12 -154h1155v-102h-1155v102zM-12 -358h1155v-103h-1155v103z" />
<glyph unicode="&#x2018;" horiz-adv-x="344" d="M36 1095v145q0 114 27.5 187t94 124t149.5 68v-116q-59 -34 -67 -91h67v-317h-271z" />
<glyph unicode="&#x2019;" horiz-adv-x="344" d="M36 1095v117q60 33 68 90h-68v317h271v-145q0 -113 -27 -186.5t-93.5 -124t-150.5 -68.5z" />
<glyph unicode="&#x201a;" horiz-adv-x="344" d="M36 0v317h271v-145q0 -114 -27 -187t-93.5 -124t-150.5 -68v116q60 34 68 91h-68z" />
<glyph unicode="&#x201b;" horiz-adv-x="344" d="M37 1474v145h271v-317h-68q8 -57 68 -90v-117q-189 40 -244 193q-27 73 -27 186z" />
<glyph unicode="&#x201c;" horiz-adv-x="706" d="M36 1095v145q0 114 27.5 187t94 124t149.5 68v-116q-59 -34 -67 -91h67v-317h-271zM398 1095v145q0 114 27.5 187t93.5 124t150 68v-116q-59 -34 -67 -91h67v-317h-271z" />
<glyph unicode="&#x201d;" horiz-adv-x="706" d="M36 1095v117q60 33 68 90h-68v317h271v-145q0 -113 -27 -186.5t-93.5 -124t-150.5 -68.5zM398 1095v117q59 33 67 90h-67v317h271v-145q0 -113 -27 -186.5t-93.5 -124t-150.5 -68.5z" />
<glyph unicode="&#x201e;" horiz-adv-x="706" d="M36 0v317h271v-145q0 -114 -27 -187t-93.5 -124t-150.5 -68v116q60 34 68 91h-68zM398 0v317h271v-145q0 -114 -27 -187t-93.5 -124t-150.5 -68v116q59 34 67 91h-67z" />
<glyph unicode="&#x2020;" horiz-adv-x="1112" d="M36 770v380h298v469h444v-468h298v-381h-298v-959h-444v959h-298z" />
<glyph unicode="&#x2021;" horiz-adv-x="1113" d="M36 185v381h298v298h-298v380h298v375h444v-375h298v-380h-298v-298h298v-381h-298v-374h-444v374h-298z" />
<glyph unicode="&#x2022;" horiz-adv-x="712" d="M60 810q0 121 87 208t208 87q130 0 213 -90t83 -198q0 -132 -88 -217.5t-207 -85.5q-123 0 -209.5 86.5t-86.5 209.5z" />
<glyph unicode="&#x2026;" horiz-adv-x="1133" d="M36 0v330h305v-330h-305zM414 0v330h305v-330h-305zM792 0v330h305v-330h-305z" />
<glyph unicode="&#x2030;" horiz-adv-x="2099" d="M36 1052v291q0 120 24.5 177.5t94.5 93.5t173 36q114 0 185 -39.5t95 -95.5t24 -172v-278q0 -109 -20.5 -163.5t-88 -95t-178.5 -40.5q-128 0 -195 38.5t-90.5 92.5t-23.5 155zM291 1006q0 -70 7 -84t37 -14q26 0 33.5 16t7.5 75v415q0 64 -6.5 79t-35.5 15 q-27 0 -35 -16t-8 -78v-408zM316 -31l635 1681h152l-633 -1681h-154zM787 269v292q0 119 24.5 176.5t94.5 94t173 36.5q115 0 186 -40t94.5 -96t23.5 -171v-279q0 -108 -20.5 -163t-88 -95.5t-178.5 -40.5q-127 0 -194.5 39t-91 93t-23.5 154zM1043 223q0 -69 7 -83t36 -14 q27 0 34 15.5t7 75.5v414q0 64 -6.5 79.5t-35.5 15.5q-27 0 -34.5 -16t-7.5 -79v-408zM1467 269v292q0 119 24.5 176.5t94.5 94t173 36.5q115 0 185.5 -40t94.5 -96t24 -171v-279q0 -108 -20.5 -163t-88 -95.5t-178.5 -40.5q-127 0 -194.5 39t-91 93t-23.5 154zM1723 223 q0 -69 7 -83t36 -14q26 0 33.5 15.5t7.5 75.5v414q0 64 -6.5 79.5t-35.5 15.5q-27 0 -34.5 -16t-7.5 -79v-408z" />
<glyph unicode="&#x2032;" horiz-adv-x="379" d="M80 1620h305l-88 -522h-207z" />
<glyph unicode="&#x2033;" horiz-adv-x="795" d="M80 1620h305l-88 -522h-207zM489 1620h306l-88 -522h-207z" />
<glyph unicode="&#x2039;" horiz-adv-x="405" d="M36 696l87 561h245l-87 -561l87 -592h-245z" />
<glyph unicode="&#x203a;" horiz-adv-x="405" d="M36 104l87 592l-87 561h245l87 -561l-87 -592h-245z" />
<glyph unicode="&#x203c;" horiz-adv-x="1114" d="M72 1620h444l-65 -1221h-314zM104 0v324h379v-324h-379zM590 1620h444l-65 -1221h-314zM623 0v324h378v-324h-378z" />
<glyph unicode="&#x203e;" horiz-adv-x="1201" d="M-42 1795v74h1286v-74h-1286z" />
<glyph unicode="&#x2044;" horiz-adv-x="256" d="M-265 -31l635 1681h151l-632 -1681h-154z" />
<glyph unicode="&#x2074;" horiz-adv-x="660" d="M12 931v151l218 554h335v-550h71v-155h-71v-148h-255v148h-298zM183 1086h127v336z" />
<glyph unicode="&#x207f;" horiz-adv-x="682" d="M37 840v780h268l-6 -74q56 84 178 84q61 0 100 -26t49.5 -72t10.5 -146v-546h-262v538q0 81 -7.5 99t-25.5 18q-24 0 -33.5 -29.5t-9.5 -99.5v-526h-262z" />
<glyph unicode="&#x20a3;" horiz-adv-x="815" d="M2 289v172h82v1159h713v-324h-291v-309h260v-307h-260v-219h139v-172h-139v-289h-422v289h-82z" />
<glyph unicode="&#x20a4;" horiz-adv-x="1096" d="M68 797v170h104l-38 69q-21 39 -33.5 83t-12.5 108q0 196 121.5 310t331.5 114q219 0 344 -114.5t125 -305.5q0 -43 -11 -133h-362v235q0 105 -80 105q-38 0 -65 -33.5t-27 -79.5q0 -63 54 -219q38 -111 38 -139h174v-170h-151q4 -60 4 -95h151v-167h-160 q-24 -195 -186 -299q80 12 98 12q28 0 80 -8q38 -7 54 -7q45 0 66.5 30.5t21.5 125.5v66h338v-129q0 -139 -18 -203t-91.5 -109t-189.5 -45q-66 0 -195 32q-149 36 -236 36q-150 0 -245 -68v236q110 67 147 330h-147v172h166q0 30 -13 90h-157z" />
<glyph unicode="&#x20a7;" horiz-adv-x="2630" d="M84 0v1620h424q157 0 246.5 -20t149.5 -81.5t73.5 -132.5t13.5 -221v-139q0 -243 -97 -309t-276 -66h-112v-651h-422zM506 930h31q57 0 79.5 27.5t22.5 119.5v131q0 82 -25.5 107.5t-107.5 25.5v-411zM1034 1085v209h88v211h404v-211h108v-209h-108v-710q0 -93 5 -121 t25.5 -34.5t96.5 -6.5v-213h-164q-127 0 -190 10t-111 53.5t-57 110t-9 238.5v673h-88zM1698 1008q0 168 99.5 245.5t322.5 77.5q132 0 224.5 -26.5t140.5 -80t58.5 -102t10.5 -143.5v-76h-359v123q0 51 -14.5 71.5t-48.5 20.5q-38 0 -54 -24.5t-16 -94.5q0 -53 25 -90.5 t96 -72.5q167 -86 251 -139t116.5 -124t32.5 -180q0 -221 -99 -311t-319 -90q-125 0 -215.5 22t-147 73.5t-75.5 125t-19 188.5v66h358v-141q0 -115 72 -115q37 0 54.5 20t17.5 95q0 78 -18 106.5t-99 73.5q-219 123 -283 175t-88 116.5t-24 210.5z" />
<glyph unicode="&#x20ac;" horiz-adv-x="1087" d="M-25 612v172h97v80h-97v172h97v29q0 156 13.5 248t74.5 171t165.5 124t235.5 45q130 0 235.5 -47t164.5 -151.5t59 -338.5v-53h-373v131q-3 103 -7 129.5t-21.5 40.5t-55.5 14q-44 0 -70 -20.5t-31 -54t-5 -121.5v-146h114v-172h-114v-80h114v-172h-114v-182 q0 -85 6 -116t30 -52.5t60 -21.5q30 0 55.5 17.5t32 51t6.5 135.5v154h373v-63q0 -225 -42 -332.5t-155 -172.5t-274 -65q-129 0 -232 45.5t-158 121.5t-71 166t-16 271v43h-97z" />
<glyph unicode="&#x2105;" horiz-adv-x="1419" d="M37 1051v292q0 130 31.5 191t96 89t163.5 28q107 0 182.5 -37.5t99 -98.5t23.5 -163v-39h-246v43q0 153 -51 153q-43 0 -43 -61v-481q0 -39 12 -49.5t31 -10.5q28 0 34.5 19t6.5 73v88h256v-22q0 -98 -23 -163t-94.5 -100.5t-169.5 -35.5q-89 0 -150 18.5t-101.5 63 t-49 86.5t-8.5 117zM317 -31l635 1682h152l-633 -1682h-154zM788 268v293q0 115 24.5 176.5t99.5 96t167 34.5q111 0 189 -42.5t97 -100t19 -164.5v-278q0 -179 -76 -239t-210 -60q-90 0 -153 20t-101.5 64t-47 86t-8.5 114zM1044 184q0 -39 12 -49t31 -10q29 0 35 18.5 t6 73.5v414q0 58 -6 77t-37 19q-41 0 -41 -61v-482z" />
<glyph unicode="&#x2113;" horiz-adv-x="1201" d="M263 361q0 26 27 57q68 76 97 112q61 353 166.5 603t264.5 250q80 0 123 -55.5t43 -137.5q0 -288 -361 -648q-56 -292 -56 -372q0 -55 29 -55q38 0 83 96q20 42 47 42q38 0 38 -45q0 -81 -68.5 -160.5t-161.5 -79.5q-76 0 -121 64.5t-45 235.5q0 34 3 91q-52 -55 -68 -55 q-13 0 -26.5 15.5t-13.5 41.5zM653 729q90 100 147.5 224t57.5 219q0 74 -35 74q-40 0 -82 -131t-88 -386z" />
<glyph unicode="&#x2116;" horiz-adv-x="1780" d="M84 0v1620h352l236 -731v731h352v-1620h-369l-219 737v-737h-352zM1110 37v172h643v-172h-643zM1133 547v293q0 115 24 176.5t99 96t167 34.5q111 0 189 -42.5t97.5 -100.5t19.5 -164v-279q0 -179 -76.5 -239t-210.5 -60q-90 0 -152.5 20t-101.5 64t-47 86t-8 115z M1389 463q0 -29 7 -44.5t36 -15.5q28 0 34.5 19t6.5 74v413q0 59 -6.5 78t-36.5 19q-41 0 -41 -62v-481z" />
<glyph unicode="&#x2122;" horiz-adv-x="1603" d="M12 1477v142h665v-142h-246v-677h-166v677h-253zM738 800v819h259l149 -564l149 564h260v-819h-158v653l-177 -653h-150l-176 653v-653h-156z" />
<glyph unicode="&#x2126;" horiz-adv-x="1573" d="M32 0v377h36q4 -69 33.5 -101t125.5 -32h328l-7 69q-251 53 -358.5 197t-107.5 315q0 231 185 396.5t519 165.5t519 -165.5t185 -396.5q0 -171 -107.5 -315t-358.5 -197l-7 -69h328q65 0 91.5 10t45.5 38t22 85h36v-377h-619l34 359q183 63 183 441q0 287 -107 398 t-245 111q-109 0 -191.5 -63t-121.5 -162.5t-39 -270.5q0 -392 183 -454l34 -359h-619z" />
<glyph unicode="&#x212e;" horiz-adv-x="1229" d="M90 531q0 252 149.5 408.5t379.5 156.5q214 0 366 -142t163 -423h-827v-371q120 -121 298 -121q254 0 395 246l72 -43q-118 -170 -231.5 -223t-235.5 -53q-232 0 -380.5 158.5t-148.5 406.5zM321 605h596v297q-124 121 -300 121q-174 0 -296 -121v-297z" />
<glyph unicode="&#x215b;" horiz-adv-x="1365" d="M12 1391v110q182 32 279 135h149v-854h-256v533q0 47 -28 63q-21 13 -76 13h-68zM215 -31l635 1682h151l-632 -1682h-154zM731 258q0 160 111 226q-104 55 -104 166t89 169q77 51 200 51q294 0 294 -226q0 -61 -30 -97q-23 -30 -86 -63q123 -55 123 -237 q0 -263 -298 -263q-299 0 -299 274zM982 193q0 -78 50 -78q45 0 45 78v128q0 73 -49 73q-46 0 -46 -82v-119zM987 576q0 -42 44 -42q41 0 41 48v105q0 51 -44 51q-41 0 -41 -55v-107z" />
<glyph unicode="&#x215c;" horiz-adv-x="1508" d="M37 1057v57h256v-162q0 -45 39 -45q31 0 39 26q6 18 6 85v55q0 69 -33 87q-24 14 -117 16v133h19q82 0 99 7q32 14 32 79v47q0 67 -41 67q-43 0 -43 -45v-86h-256v62q0 118 62.5 165.5t215.5 47.5q156 0 228 -51q80 -55 80 -181q0 -114 -91 -157q69 -24 90 -90 q11 -37 11 -132q0 -140 -59 -203q-69 -73 -236 -73q-194 0 -259 89q-42 58 -42 202zM354 -31l635 1682h152l-633 -1682h-154zM874 258q0 160 111 226q-103 55 -103 166t88 169q77 51 201 51q293 0 293 -226q0 -61 -29 -97q-24 -30 -86 -63q123 -55 123 -237 q0 -263 -299 -263t-299 274zM1126 193q0 -78 49 -78q45 0 45 78v128q0 73 -48 73q-46 0 -46 -82v-119zM1130 576q0 -42 44 -42q42 0 42 48v105q0 51 -44 51q-42 0 -42 -55v-107z" />
<glyph unicode="&#x215d;" horiz-adv-x="1513" d="M37 1105h258q2 -110 2 -114q10 -91 50 -91q27 0 43 90q12 63 12 112q0 88 -3 108q-12 73 -59 73q-37 0 -45 -76h-256l9 431h546v-149h-308v-133q52 59 124 59q113 0 174 -69q56 -64 56 -170v-135q0 -273 -298 -273q-171 0 -243 93q-62 79 -62 244zM359 -31l635 1682h151 l-633 -1682h-153zM879 258q0 160 111 226q-104 55 -104 166t88 169q77 51 201 51q293 0 293 -226q0 -61 -29 -97q-24 -30 -86 -63q123 -55 123 -237q0 -263 -299 -263q-298 0 -298 274zM1130 193q0 -78 49 -78q45 0 45 78v128q0 73 -48 73q-46 0 -46 -82v-119zM1134 576 q0 -42 44 -42q42 0 42 48v105q0 51 -44 51q-42 0 -42 -55v-107z" />
<glyph unicode="&#x215e;" horiz-adv-x="1293" d="M12 1465v169h452v-187l-136 -667h-256l147 683zM139 -31l635 1682h152l-633 -1682h-154zM659 258q0 160 111 226q-103 55 -103 166t88 169q77 51 201 51q293 0 293 -226q0 -61 -29 -97q-24 -30 -86 -63q122 -55 122 -237q0 -263 -298 -263q-299 0 -299 274zM911 193 q0 -78 49 -78q45 0 45 78v128q0 73 -48 73q-46 0 -46 -82v-119zM915 576q0 -42 44 -42q42 0 42 48v105q0 51 -44 51q-42 0 -42 -55v-107z" />
<glyph unicode="&#x2190;" horiz-adv-x="2048" d="M79 494v46q116 61 203 130.5t210 205.5h76q-46 -96 -77.5 -147.5t-88.5 -124.5h1566v-175h-1566q55 -69 88 -122.5t78 -149.5h-76q-121 135 -209 205.5t-204 131.5z" />
<glyph unicode="&#x2191;" horiz-adv-x="1024" d="M153 850v76q135 122 205.5 209.5t131.5 203.5h45q61 -116 130.5 -202.5t206.5 -210.5v-76q-97 46 -148.5 78t-123.5 88v-1445h-175v1445q-69 -54 -122.5 -87t-149.5 -79z" />
<glyph unicode="&#x2192;" horiz-adv-x="2048" d="M79 429v175h1566q-54 69 -87 122.5t-79 149.5h76q122 -135 209.5 -205t203.5 -132v-45q-116 -61 -202.5 -130.5t-210.5 -206.5h-76q46 97 78 148.5t88 123.5h-1566z" />
<glyph unicode="&#x2193;" horiz-adv-x="1024" d="M152 -16v76q97 -46 148.5 -78t123.5 -88v1445h175v-1445q69 54 122.5 87t149.5 79v-76q-135 -122 -205.5 -209.5t-131.5 -203.5h-45q-61 116 -131 202.5t-206 210.5z" />
<glyph unicode="&#x2194;" horiz-adv-x="2048" d="M79 494v46q116 61 203 130.5t210 205.5h76q-46 -96 -77.5 -147.5t-88.5 -124.5h1243q-54 68 -87 122t-79 150h76q122 -135 209.5 -205t203.5 -132v-45q-116 -61 -202.5 -130.5t-210.5 -206.5h-76q46 97 77.5 148t88.5 124h-1243q55 -69 88 -122.5t78 -149.5h-76 q-121 135 -209 205.5t-204 131.5z" />
<glyph unicode="&#x2195;" horiz-adv-x="1024" d="M153 -14v77q96 -47 147.5 -78t124.5 -89v1243q-69 -54 -122.5 -87t-149.5 -79v76q135 122 205.5 209.5t131.5 204.5h45q61 -117 130.5 -203.5t206.5 -210.5v-76q-97 46 -148.5 78t-123.5 88v-1243q68 54 122 87.5t150 79.5v-77q-135 -121 -205.5 -208.5t-131.5 -204.5 h-45q-61 116 -131 203t-206 210z" />
<glyph unicode="&#x21a8;" horiz-adv-x="1024" d="M152 -14v77q96 -47 147.5 -78t124.5 -89v1243q-69 -54 -122.5 -87t-149.5 -79v76q135 122 205.5 209.5t131.5 204.5h45q61 -117 130.5 -203.5t206.5 -210.5v-76q-97 46 -148.5 78t-123.5 88v-1243q68 54 122 87.5t150 79.5v-77q-135 -121 -205.5 -208.5t-131.5 -204.5 h-45q-61 116 -131 203t-206 210zM152 -502h719v-175h-719v175z" />
<glyph unicode="&#x2202;" horiz-adv-x="1003" d="M62 293q0 231 188.5 436t398.5 205q168 0 236 -150q8 77 8 127q0 110 -42 178t-101 106.5t-170 38.5q-73 0 -129.5 -21t-96.5 -63h-42q52 142 139 213t209 71q100 0 165.5 -46.5t97 -122.5t31.5 -231q0 -344 -95 -586t-209 -356.5t-272 -114.5q-155 0 -235.5 92 t-80.5 224zM318 212q0 -94 29 -131t91 -37q134 0 259 199t172 448q-63 192 -214 192q-86 0 -163.5 -90t-125.5 -264.5t-48 -316.5z" />
<glyph unicode="&#x2206;" horiz-adv-x="1259" d="M29 0l628 1387l572 -1387h-1200zM154 82h839l-399 967z" />
<glyph unicode="&#x220f;" horiz-adv-x="1685" d="M45 -45h35q93 0 128 37.5t35 117.5v1334q0 85 -38 120t-125 35h-35v37h1594v-37h-35q-86 0 -124 -36t-38 -119v-1334q0 -86 39 -120.5t123 -34.5h35v-38h-597v38h35q93 0 127.5 37.5t34.5 117.5v1448h-795v-1448q0 -86 39 -120.5t123 -34.5h36v-38h-597v38z" />
<glyph unicode="&#x2211;" d="M38 -47l669 831l-669 816v38h1278l27 -337h-40q-27 256 -249 256h-740l562 -687l-629 -777h818q89 0 180.5 39t129.5 207l40 -8l-64 -414h-1313v36z" />
<glyph unicode="&#x2212;" horiz-adv-x="1092" d="M64 687v244h964v-244h-964z" />
<glyph unicode="&#x2215;" horiz-adv-x="256" d="M-265 -31l635 1681h151l-632 -1681h-154z" />
<glyph unicode="&#x2219;" horiz-adv-x="450" d="M72 642v330h305v-330h-305z" />
<glyph unicode="&#x221a;" horiz-adv-x="1124" d="M84 916l301 151l405 -823l260 1625h74l-312 -1947l-496 1021l-198 -91z" />
<glyph unicode="&#x221e;" horiz-adv-x="1460" d="M53 671q0 157 88.5 262t218.5 105q77 0 147 -42t146 -187q70 169 158 223t212 54q97 0 180 -43.5t143 -139.5t60 -234q0 -123 -49 -216t-132.5 -148.5t-167.5 -55.5q-79 0 -155 49.5t-182 236.5q-56 -116 -137 -174.5t-187 -58.5q-142 0 -242.5 102t-100.5 267zM108 672 q0 -137 72.5 -214.5t157.5 -77.5q63 0 133 51t142 267l11 34q-45 107 -111.5 160.5t-155.5 53.5q-101 0 -175 -72.5t-74 -201.5zM749 606q69 -147 142.5 -205t169.5 -58q129 0 208.5 93t79.5 233q0 145 -86.5 242t-195.5 97q-85 0 -150 -58t-168 -344z" />
<glyph unicode="&#x221f;" horiz-adv-x="2048" d="M123 0v1782h135v-1647h1667v-135h-1802z" />
<glyph unicode="&#x2229;" horiz-adv-x="1473" d="M144 0v636q0 271 14.5 386t84 226t205 185.5t289.5 74.5t289 -75t203 -181t84 -222.5t16 -393.5v-636h-206v642q0 274 -21.5 386t-125 195t-239.5 83q-103 0 -194.5 -53t-132 -124.5t-50.5 -167t-10 -319.5v-642h-206z" />
<glyph unicode="&#x222b;" horiz-adv-x="561" d="M0 -99q0 45 26 72t64 27q40 0 70 -33q28 -31 48 -31t29.5 15.5t9.5 45.5q0 42 -9 120q-38 317 -38 778l12 445q9 344 75 433.5t148 89.5q53 0 89 -34.5t36 -72.5q0 -44 -25.5 -74t-66.5 -30q-35 0 -76 36q-23 20 -40 20q-40 0 -40 -63q0 -42 9 -146q37 -411 37 -665 q0 -68 -12 -470.5t-77 -493t-151 -90.5q-49 0 -83.5 32.5t-34.5 88.5z" />
<glyph unicode="&#x2248;" horiz-adv-x="1075" d="M57 430v278q144 129 290 129q85 0 231 -70q118 -57 169 -57q98 0 271 162v-276l-14 -11q-147 -120 -264 -120q-53 0 -101.5 14t-160.5 68q-96 47 -143 47q-48 0 -108.5 -29t-169.5 -135zM57 816v278q144 130 290 130q85 0 231 -71q118 -57 169 -57q98 0 271 162v-276 q-155 -131 -278 -131q-53 0 -101.5 14t-160.5 69q-96 46 -143 46q-57 0 -114 -32.5t-164 -131.5z" />
<glyph unicode="&#x2260;" horiz-adv-x="1092" d="M65 496v244h341l55 138h-396v244h490l165 419h223l-162 -419h246v-244h-341l-54 -138h395v-244h-490l-166 -419h-226l166 419h-246z" />
<glyph unicode="&#x2261;" horiz-adv-x="1092" d="M65 182v244h942v-244h-942zM65 564v244h942v-244h-942zM65 946v244h942v-244h-942z" />
<glyph unicode="&#x2264;" horiz-adv-x="1092" d="M64 162v244h964v-244h-964zM65 887v203l962 402v-264l-594 -239l594 -238v-265z" />
<glyph unicode="&#x2265;" horiz-adv-x="1092" d="M64 162v244h964v-244h-964zM65 486v265l594 238l-594 238v265l962 -400v-204z" />
<glyph unicode="&#x2302;" horiz-adv-x="1229" d="M153 0v634l461 519l462 -519v-634h-923zM234 81h761v519l-381 427l-380 -427v-519z" />
<glyph unicode="&#x2310;" horiz-adv-x="1092" d="M1029 881v245h-964v-634h244v389h720z" />
<glyph unicode="&#x2320;" horiz-adv-x="1237" d="M546 -515v1811q0 219 89.5 330t202.5 111q67 0 102.5 -32.5t35.5 -76.5q0 -40 -25.5 -66t-62.5 -26q-30 0 -57 15q-18 10 -41.5 46.5t-46.5 36.5q-17 0 -31 -12q-10 -8 -14 -27q-7 -33 -7 -139v-1971h-145z" />
<glyph unicode="&#x2321;" horiz-adv-x="1237" d="M261 -406q0 40 25.5 66t61.5 26q31 0 59 -16q18 -10 41 -46t46 -36q17 0 31 11q10 8 14 29q7 32 7 138v1971h145v-1811q0 -219 -89.5 -330t-202.5 -111q-67 0 -102.5 32.5t-35.5 76.5z" />
<glyph unicode="&#x2500;" d="M-23 534v175h1496v-175h-1496z" />
<glyph unicode="&#x2502;" d="M638 -621v2485h175v-2485h-175z" />
<glyph unicode="&#x250c;" d="M638 -621v1330h836v-175h-661v-1155h-175z" />
<glyph unicode="&#x2510;" d="M-23 534v175h835v-1330h-175v1155h-660z" />
<glyph unicode="&#x2514;" d="M638 534v1330h175v-1155h661v-175h-836z" />
<glyph unicode="&#x2518;" d="M-23 534v175h660v1155h175v-1330h-835z" />
<glyph unicode="&#x251c;" d="M638 -621v2485h175v-1155h661v-175h-661v-1155h-175z" />
<glyph unicode="&#x2524;" d="M-23 534v175h660v1155h175v-2485h-175v1155h-660z" />
<glyph unicode="&#x252c;" d="M-23 534v175h1496v-175h-661v-1155h-175v1155h-660z" />
<glyph unicode="&#x2534;" d="M-23 534v175h660v1155h175v-1155h661v-175h-1496z" />
<glyph unicode="&#x253c;" d="M-23 534v175h660v1155h175v-1155h661v-175h-661v-1155h-175v1155h-660z" />
<glyph unicode="&#x2550;" d="M-23 344v175h1496v-175h-1496zM-23 724v175h1496v-175h-1496z" />
<glyph unicode="&#x2551;" d="M448 -621v2485h175v-2485h-175zM829 -621v2485h175v-2485h-175z" />
<glyph unicode="&#x2552;" d="M638 -621v1520h836v-175h-661v-205h661v-175h-661v-965h-175z" />
<glyph unicode="&#x2553;" d="M448 -621v1330h1027v-175h-471v-1155h-175v1155h-206v-1155h-175z" />
<glyph unicode="&#x2554;" d="M448 -621v1520h1026v-175h-851v-1345h-175zM829 519h645v-175h-470v-965h-175v1140z" />
<glyph unicode="&#x2555;" d="M-23 344v175h660v205h-660v175h835v-1520h-175v965h-660z" />
<glyph unicode="&#x2556;" d="M-23 534v175h1026v-1330h-175v1155h-206v-1155h-174v1155h-471z" />
<glyph unicode="&#x2557;" d="M-23 344v175h645v-1140h-175v965h-470zM-23 724v175h1026v-1520h-175v1345h-851z" />
<glyph unicode="&#x2558;" d="M638 344v1520h175v-965h661v-175h-661v-205h661v-175h-836z" />
<glyph unicode="&#x2559;" d="M448 534v1330h175v-1155h206v1155h175v-1155h471v-175h-1027z" />
<glyph unicode="&#x255a;" d="M448 344v1520h175v-1345h850v-175h-1025zM829 724v1140h175v-965h470v-175h-645z" />
<glyph unicode="&#x255b;" d="M-23 344v175h660v205h-660v175h660v965h175v-1520h-835z" />
<glyph unicode="&#x255c;" d="M-23 534v175h470v1155h175v-1155h206v1155h175v-1330h-1026z" />
<glyph unicode="&#x255d;" d="M-23 344v175h851v1345h175v-1520h-1026zM-23 724v175h470v965h175v-1140h-645z" />
<glyph unicode="&#x255e;" d="M638 -621v2485h175v-965h661v-175h-661v-205h661v-175h-661v-965h-175z" />
<glyph unicode="&#x255f;" d="M448 -621v2485h175v-2485h-175zM829 -621v2485h175v-1155h470v-175h-470v-1155h-175z" />
<glyph unicode="&#x2560;" d="M448 -621v2485h175v-2485h-175zM829 519h645v-175h-470v-965h-175v1140zM829 724v1140h175v-965h470v-175h-645z" />
<glyph unicode="&#x2561;" d="M-23 344v175h660v205h-660v175h660v965h175v-2485h-175v965h-660z" />
<glyph unicode="&#x2562;" d="M-23 534v175h470v1155h175v-2485h-175l1 1155h-471zM828 -621v2485h175v-2485h-175z" />
<glyph unicode="&#x2563;" d="M-23 344v175h645v-1140h-175v965h-470zM-23 724v175h470v965h175v-1140h-645zM828 -621v2485h175v-2485h-175z" />
<glyph unicode="&#x2564;" d="M-23 344v175h1496v-175h-661v-965h-175v965h-660zM-23 724v175h1496v-175h-1496z" />
<glyph unicode="&#x2565;" d="M-23 534v175h1496v-175h-470v-1155h-175v1155h-206v-1155h-175v1155h-470z" />
<glyph unicode="&#x2566;" d="M-23 344v175h645v-1140h-175v965h-470zM-23 724v175h1496v-175h-1496zM828 519h645v-175h-470v-965h-175v1140z" />
<glyph unicode="&#x2567;" d="M-23 344v175h1496v-175h-1496zM-23 724v175h660v965h175v-965h661v-175h-1496z" />
<glyph unicode="&#x2568;" d="M-23 534v175h470v1155h175v-1155h206v1155h175v-1155h470v-175h-1496z" />
<glyph unicode="&#x2569;" d="M-23 344v175h1496v-175h-1496zM-23 724v175h470v965h175v-1140h-645zM828 724v1140h175v-965h470v-175h-645z" />
<glyph unicode="&#x256a;" d="M-23 344v175h660v205h-660v175h660v965h175v-965h661v-175h-661v-205h661v-175h-661v-965h-175v965h-660z" />
<glyph unicode="&#x256b;" d="M-23 534v175h470v1155h175v-1155h206v1155h175v-1155h470v-175h-470v-1155h-175v1155h-206v-1155h-175v1155h-470z" />
<glyph unicode="&#x256c;" d="M-23 344v175h645v-1140h-175v965h-470zM-23 724v175h470v965h175v-1140h-645zM828 519h645v-175h-470v-965h-175v1140zM828 724v1140h175v-965h470v-175h-645z" />
<glyph unicode="&#x2580;" d="M-23 621v1243h1496v-1243h-1496z" />
<glyph unicode="&#x2584;" d="M-23 -621v1242h1496v-1242h-1496z" />
<glyph unicode="&#x2588;" d="M-23 -621v2485h1496v-2485h-1496z" />
<glyph unicode="&#x258c;" d="M-23 -621v2485h748v-2485h-748z" />
<glyph unicode="&#x2590;" d="M726 -621v2485h748v-2485h-748z" />
<glyph unicode="&#x2591;" d="M0 -130h121v-125h-121v125zM0 244v125h121v-125h-121zM0 742v125h121v-125h-121zM0 1241v125h121v-125h-121zM0 1739v125h121v-125h-121zM241 -5v125h121v-125h-121zM241 -379h121v-125h-121v125zM241 493v125h121v-125h-121zM241 992v125h121v-125h-121zM241 1490v125 h121v-125h-121zM482 -130h121v-125h-121v125zM482 244v125h121v-125h-121zM482 742v125h121v-125h-121zM482 1241v125h121v-125h-121zM482 1739v125h121v-125h-121zM723 -5v125h121v-125h-121zM723 -379h121v-125h-121v125zM723 493v125h121v-125h-121zM723 992v125h121 v-125h-121zM723 1490v125h121v-125h-121zM965 -130h121v-125h-121v125zM965 244v125h121v-125h-121zM965 742v125h121v-125h-121zM965 1241v125h121v-125h-121zM965 1739v125h121v-125h-121zM1206 -5v125h121v-125h-121zM1206 -379h121v-125h-121v125zM1206 493v125h121 v-125h-121zM1206 992v125h121v-125h-121zM1206 1490v125h121v-125h-121z" />
<glyph unicode="&#x2592;" d="M0 -5v124h121v-124h-121zM0 -379h121v-125h-121v125zM0 493v125h121v-125h-121zM0 992v124h121v-124h-121zM0 1490v125h121v-125h-121zM121 -130h120v-125h-120v125zM121 244v125h120v-125h-120zM121 742v125h120v-125h-120zM121 1241v125h120v-125h-120zM121 1739v125 h120v-125h-120zM241 -5v124h121v-124h-121zM241 -379h121v-125h-121v125zM241 493v125h121v-125h-121zM241 992v124h121v-124h-121zM241 1490v125h121v-125h-121zM362 -130h120v-125h-120v125zM362 244v125h120v-125h-120zM362 742v125h120v-125h-120zM362 1241v125h120 v-125h-120zM362 1739v125h120v-125h-120zM482 -5v124h121v-124h-121zM482 -379h121v-125h-121v125zM482 493v125h121v-125h-121zM482 992v124h121v-124h-121zM482 1490v125h121v-125h-121zM603 -130h121v-125h-121v125zM603 244v125h121v-125h-121zM603 742v125h121v-125 h-121zM603 1241v125h121v-125h-121zM603 1739v125h121v-125h-121zM724 -5v124h120v-124h-120zM724 -379h120v-125h-120v125zM724 493v125h120v-125h-120zM724 992v124h120v-124h-120zM724 1490v125h120v-125h-120zM844 -130h121v-125h-121v125zM844 244v125h121v-125h-121z M844 742v125h121v-125h-121zM844 1241v125h121v-125h-121zM844 1739v125h121v-125h-121zM965 -5v124h121v-124h-121zM965 -380l121 1v-125h-121v124zM965 493v125h121v-125h-121zM965 992v124h121v-124h-121zM965 1490v125h121v-125h-121zM1086 -130h120v-125h-120v125z M1086 244v125h120v-125h-120zM1086 742v125h120v-125h-120zM1086 1241v125h120v-125h-120zM1086 1739v125h120v-125h-120zM1206 -5v124h121v-124h-121zM1206 -379h121v-125h-121v125zM1206 493v125h121v-125h-121zM1206 992v124h121v-124h-121zM1206 1490v125h121v-125h-121 zM1327 -130h120v-125h-120v125zM1327 244v125h120v-125h-120zM1327 742v125h120v-125h-120zM1327 1241v125h120v-125h-120zM1327 1739v125h120v-125h-120z" />
<glyph unicode="&#x2593;" d="M0 -130v374h121v125h-121v373h121v125h-121v374h121v125h-121v373h121v125h120v-125h121v125h120v-125h121v125h121v-125h120v125h121v-125h121v125h120v-125h121v125h120v-249h-120v-125h120v-374h-120v-124h120v-374h-120v-125h120v-374h-120v-124h120v-374h-120v-125 h120v-124h-1447v373h121v125h-121zM121 -5h120v124h-120v-124zM121 -379v-125h120v125h-120zM121 493h120v125h-120v-125zM121 992h120v124h-120v-124zM121 1490h120v125h-120v-125zM241 -130v-125h121v125h-121zM241 244h121v125h-121v-125zM241 742h121v125h-121v-125z M241 1241h121v125h-121v-125zM362 -5h120v124h-120v-124zM362 -379v-125h120v125h-120zM362 493h120v125h-120v-125zM362 992h120v124h-120v-124zM362 1490h120v125h-120v-125zM482 -130v-125h121v125h-121zM482 244h121v125h-121v-125zM482 742h121v125h-121v-125z M482 1241h121v125h-121v-125zM603 -5h121v124h-121v-124zM603 -379v-125h121v125h-121zM603 493h121v125h-121v-125zM603 992h121v124h-121v-124zM603 1490h121v125h-121v-125zM724 -130v-125h120v125h-120zM724 244h120v125h-120v-125zM724 742h120v125h-120v-125z M724 1241h120v125h-120v-125zM844 -5h121v124h-121v-124zM844 -379v-125h121v125h-121zM844 493h121v125h-121v-125zM844 992h121v124h-121v-124zM844 1490h121v125h-121v-125zM965 -130v-125h121v125h-121zM965 244h121v125h-121v-125zM965 742h121v125h-121v-125z M965 1241h121v125h-121v-125zM1086 -5h120v124h-120v-124zM1086 -379v-125h120v125h-120zM1086 493h120v125h-120v-125zM1086 992h120v124h-120v-124zM1086 1490h120v125h-120v-125zM1206 -130v-125h121v125h-121zM1206 244h121v125h-121v-125zM1206 742h121v125h-121v-125z M1206 1241h121v125h-121v-125z" />
<glyph unicode="&#x25a0;" horiz-adv-x="1237" d="M146 0v944h944v-944h-944z" />
<glyph unicode="&#x25a1;" horiz-adv-x="1237" d="M146 0v944h944v-944h-944zM222 76h792v792h-792v-792z" />
<glyph unicode="&#x25aa;" horiz-adv-x="726" d="M131 445v463l463 1v-464h-463z" />
<glyph unicode="&#x25ab;" horiz-adv-x="726" d="M131 445v463l463 1v-464h-463zM207 521h311v312l-311 -1v-311z" />
<glyph unicode="&#x25ac;" horiz-adv-x="2048" d="M340 0v386h1368v-386h-1368z" />
<glyph unicode="&#x25b2;" horiz-adv-x="2027" d="M304 0l710 1419l710 -1419h-1420z" />
<glyph unicode="&#x25ba;" horiz-adv-x="2027" d="M288 -31v1448l1451 -724z" />
<glyph unicode="&#x25bc;" horiz-adv-x="2027" d="M304 1388h1420l-710 -1419z" />
<glyph unicode="&#x25c4;" horiz-adv-x="2027" d="M288 693l1451 724v-1448z" />
<glyph unicode="&#x25ca;" horiz-adv-x="1012" d="M46 709l391 713h111l418 -713l-418 -709h-111zM154 709l340 -615l359 615l-359 616z" />
<glyph unicode="&#x25cb;" horiz-adv-x="1237" d="M178 578q0 115 59 220.5t165 162.5t217 57q110 0 216 -57t165 -163t59 -220q0 -183 -129 -312t-311 -129q-183 0 -312 129t-129 312zM254 578q0 -151 107 -258t258 -107t257.5 107t106.5 258q0 94 -49 182t-136 135t-179 47q-93 0 -180 -47t-136 -135t-49 -182z" />
<glyph unicode="&#x25cf;" horiz-adv-x="1237" d="M178 578q0 115 59 220.5t165 162.5t217 57q110 0 216 -57t165 -163t59 -220q0 -183 -129 -312t-311 -129q-183 0 -312 129t-129 312z" />
<glyph unicode="&#x25d8;" horiz-adv-x="1237" d="M128 0v980h980v-980h-980zM416 490q0 -83 59.5 -142.5t142.5 -59.5q84 0 143 59.5t59 142.5q0 84 -59 143t-143 59t-143 -59t-59 -143z" />
<glyph unicode="&#x25d9;" horiz-adv-x="1237" d="M42 0v1155h1155v-1155h-1155zM179 577q0 -182 129 -311t311 -129q183 0 312 129t129 311q0 115 -59 221t-164.5 163t-217.5 57q-111 0 -216.5 -57t-164.5 -163t-59 -221zM255 577q0 96 49 183.5t136.5 134.5t179.5 47q91 0 178.5 -47t136.5 -134.5t49 -183.5 q0 -151 -106.5 -257.5t-257.5 -106.5q-152 0 -258.5 106.5t-106.5 257.5z" />
<glyph unicode="&#x25e6;" horiz-adv-x="726" d="M112 677q0 104 73 177.5t178 73.5q104 0 177.5 -73.5t73.5 -177.5t-73.5 -177.5t-177.5 -73.5t-177.5 73.5t-73.5 177.5zM188 677q0 -73 51.5 -124t123.5 -51t123.5 51t51.5 124q0 72 -51 123.5t-124 51.5t-124 -51.5t-51 -123.5z" />
<glyph unicode="&#x263a;" horiz-adv-x="2048" d="M386 518q0 166 85.5 319.5t238.5 236t314 82.5q160 0 313 -82.5t239 -236t86 -319.5q0 -165 -84.5 -316.5t-236.5 -236t-317 -84.5q-166 0 -317.5 84.5t-236 236t-84.5 316.5zM479 518q0 -141 72 -270.5t202 -201.5t271 -72t271 72t202 201.5t72 270.5q0 142 -73.5 273 t-204 201.5t-267.5 70.5t-267.5 -70.5t-204 -201.5t-73.5 -273zM698 650q0 34 24 57.5t57 23.5q34 0 57.5 -23.5t23.5 -57.5q0 -33 -23.5 -57t-57.5 -24q-33 0 -57 24t-24 57zM730 313l62 36q79 -144 232 -144t231 144l63 -36q-50 -95 -123.5 -145t-170.5 -50q-98 0 -171 50 t-123 145zM1187 650q0 34 23.5 57.5t57.5 23.5t57.5 -23.5t23.5 -57.5q0 -33 -23.5 -57t-57.5 -24q-33 0 -57 24t-24 57z" />
<glyph unicode="&#x263b;" horiz-adv-x="2048" d="M386 518q0 166 85.5 319.5t238.5 236t314 82.5q160 0 313 -82.5t239 -236t86 -319.5q0 -165 -84.5 -316.5t-236.5 -236t-317 -84.5q-166 0 -317.5 84.5t-236 236t-84.5 316.5zM698 650q0 -33 24 -57t57 -24q34 0 57.5 24t23.5 57q0 34 -23.5 57.5t-57.5 23.5 q-33 0 -57 -23.5t-24 -57.5zM730 313q50 -95 123 -145t171 -50q97 0 170.5 50t123.5 145l-63 36q-78 -144 -231 -144t-232 144zM1187 650q0 -33 24 -57t57 -24q34 0 57.5 24t23.5 57q0 34 -23.5 57.5t-57.5 23.5t-57.5 -23.5t-23.5 -57.5z" />
<glyph unicode="&#x263c;" horiz-adv-x="1877" d="M16 665v69h336q9 106 42 185.5t102 163.5l-284 287l48 57l292 -282q101 70 179.5 100.5t170.5 38.5v337h76v-337q102 -7 181.5 -38.5t167.5 -102.5l290 284l52 -53l-286 -286q73 -95 103 -169q38 -96 41 -185h335v-69h-335q-19 -193 -143 -351l285 -291l-57 -50l-283 282 q-98 -72 -171 -100.5t-180 -40.5v-337h-76v337q-112 15 -188.5 46t-156.5 92l-294 -278l-51 51l285 286q-66 84 -100 166t-45 188h-336zM425 699q0 -133 67.5 -255t189.5 -190t255 -68t255 68t190 190t68 255t-69 256.5t-192 189.5t-252 66t-252 -66t-191.5 -189.5 t-68.5 -256.5z" />
<glyph unicode="&#x2640;" horiz-adv-x="1536" d="M244 983q0 136 69.5 261t193.5 194t261 69q136 0 260.5 -69.5t193.5 -194t69 -260.5q0 -209 -143.5 -360.5t-351.5 -161.5v-402h459v-59h-459v-439h-59v439h-460v59h460v402q-103 0 -225.5 65.5t-195 191t-72.5 265.5zM298 982q0 -195 137.5 -332.5t331.5 -137.5 q195 0 332.5 137.5t137.5 332.5q0 122 -63 235t-175.5 173.5t-231.5 60.5q-118 0 -230.5 -60.5t-175.5 -173.5t-63 -235z" />
<glyph unicode="&#x2642;" horiz-adv-x="1536" d="M111 262q0 217 153.5 370t372.5 153q78 0 166 -27l360 771l-537 -265l-24 53l614 303l36 -16l163 -666l-57 -15l-142 581l-358 -768q148 -75 224 -202t76 -272q0 -136 -69 -260.5t-193.5 -194t-261.5 -69.5q-136 0 -260.5 69.5t-193.5 194t-69 260.5zM165 262 q0 -195 137.5 -332.5t331.5 -137.5q195 0 332.5 137.5t137.5 332.5q0 122 -63 235t-175.5 173.5t-231.5 60.5q-118 0 -230.5 -60.5t-175.5 -173.5t-63 -235z" />
<glyph unicode="&#x2660;" horiz-adv-x="1344" d="M186 494q0 74 32 133q45 83 146.5 166t149.5 137q74 83 107.5 148t51.5 153q26 -108 80 -193t192.5 -210.5t175.5 -193t37 -136.5q0 -95 -64 -159t-154 -64q-82 0 -154 57q-54 42 -101 133q1 -147 38.5 -233.5t119.5 -136t219 -58.5l7 -37h-792l7 37q184 0 285.5 107.5 t97.5 320.5q-45 -95 -111.5 -142.5t-149.5 -47.5q-90 0 -155 65t-65 154z" />
<glyph unicode="&#x2663;" horiz-adv-x="1344" d="M55 553q0 116 74 195.5t165 81.5q63 -2 166 -53q-42 69 -54.5 105t-12.5 77q0 115 79 193.5t198 78.5q117 0 197.5 -78.5t80.5 -189.5q0 -88 -69 -186q84 40 101 45q27 8 61 8q100 0 173.5 -78.5t73.5 -194.5q0 -120 -80.5 -201.5t-196.5 -82.5q-77 4 -134.5 33 t-107.5 80q-35 37 -87 125q4 -159 48.5 -251.5t136.5 -153.5q62 -41 223 -72l8 -34h-848l8 34q165 35 219 69q81 51 132.5 151t51.5 210q0 16 -1 47q-61 -124 -148.5 -181t-178.5 -57q-116 0 -197 81t-81 199z" />
<glyph unicode="&#x2665;" horiz-adv-x="1344" d="M127 969q0 111 74 186t180 76q113 -1 194 -79q61 -58 99 -173q32 112 92 171q83 81 191 81q109 0 184.5 -74t75.5 -176q0 -91 -43.5 -188t-170.5 -257q-164 -207 -239 -340q-59 -105 -90 -220q-31 118 -88.5 221.5t-222.5 321.5q-121 160 -149 203q-46 70 -66.5 128.5 t-20.5 118.5z" />
<glyph unicode="&#x2666;" horiz-adv-x="1344" d="M213 604q101 115 260 328q118 158 198 302q88 -154 218 -327q150 -200 242 -303q-74 -78 -242 -302q-136 -182 -218 -326q-27 52 -74 121q-81 120 -201 279q-26 35 -183 228z" />
<glyph unicode="&#x266a;" horiz-adv-x="1024" d="M37 186q0 105 76 176.5t199 71.5q78 0 174 -46v975h38q172 0 227 -14q79 -20 139 -77q45 -42 71 -118.5t26 -178.5v-103h-99v43q0 68 -28.5 115.5t-84.5 72.5q-73 32 -162 32h-28v-835q0 -121 -32 -188.5t-110 -108t-170 -40.5q-109 0 -172.5 61.5t-63.5 161.5z" />
<glyph unicode="&#x266b;" horiz-adv-x="1536" d="M85 94q0 105 76 176.5t199 71.5q78 0 174 -46v975l796 248v-1108q0 -124 -31.5 -187t-107 -104t-170.5 -41q-109 0 -174 62.5t-65 161.5q0 100 77 172.5t199 72.5q40 0 70.5 -7t99.5 -36v724l-595 -185v-836q0 -121 -32 -188.5t-110 -107.5t-170 -40q-109 0 -172.5 61.5 t-63.5 160.5z" />
<glyph unicode="&#xe000;" horiz-adv-x="1325" d="M0 1325h1325v-1325h-1325v1325z" />
<glyph unicode="&#xfb01;" horiz-adv-x="1148" d="M4 1085v210h83q0 131 9 175t44.5 78.5t99.5 52.5t199 18h148v-205q-125 0 -147.5 -11.5t-22.5 -65.5v-42h170v-210h-96v-1085h-404v1085h-83zM659 0v1327h416v-1327h-416zM659 1408v211h416v-211h-416z" />
<glyph unicode="&#xfb02;" horiz-adv-x="1145" d="M4 1085v210h83q0 131 9 175t44.5 78.5t99.5 52.5t199 18h148v-205q-125 0 -147.5 -11.5t-22.5 -65.5v-42h170v-210h-96v-1085h-404v1085h-83zM656 0v1619h416v-1619h-416z" />
<glyph horiz-adv-x="1124" d="M52 612q36 122 92 202.5t104.5 100.5t158.5 20h632v-207h-215q-36 -291 -36 -423q0 -79 22 -119t65 -40q99 0 118 170h37q-12 -344 -211 -344q-95 0 -143 83t-48 248q0 143 35 425h-198q-32 -517 -84 -636.5t-132 -119.5q-47 0 -76.5 30.5t-29.5 71.5q0 53 56 152 q52 94 74.5 198.5t26.5 303.5h-34q-130 0 -177 -116h-37z" />
<glyph horiz-adv-x="1618" />
<glyph horiz-adv-x="1493" d="M84 0v1619h713v-324h-292v-307h327v339h404l-16 -174q88 187 255 198v-467q-110 0 -162.5 -30t-64.5 -83.5t-12 -246.5v-524h-404v680h-327v-680h-421z" />
<glyph horiz-adv-x="683" d="M241 -203q0 47 29 76.5t71 29.5q49 0 77 -37.5t28 -93.5q0 -112 -100 -305h-78q47 130 55 222q-82 32 -82 108z" />
<glyph horiz-adv-x="1148" d="M4 1085v210h83q0 131 9 175t44.5 78.5t99.5 52.5t199 18h148v-205q-125 0 -147.5 -11.5t-22.5 -65.5v-42h170v-210h-96v-1085h-404v1085h-83zM659 0v1327h416v-1327h-416zM659 1408v211h416v-211h-416z" />
<glyph horiz-adv-x="1145" d="M4 1085v210h83q0 131 9 175t44.5 78.5t99.5 52.5t199 18h148v-205q-125 0 -147.5 -11.5t-22.5 -65.5v-42h170v-210h-96v-1085h-404v1085h-83zM656 0v1619h416v-1619h-416z" />
<glyph horiz-adv-x="344" d="M36 1157v117q58 35 67 90h-67v256h272v-84q0 -322 -272 -379z" />
<glyph horiz-adv-x="344" d="M36 -72h272v-84q0 -322 -272 -379v117q58 35 67 90h-67v256z" />
<glyph horiz-adv-x="561" d="M72 0v1327h416v-1327h-416zM72 1408v211h416v-211h-416zM94 1670l176 271h356l-329 -271h-203z" />
</font>
</defs>
</svg>
